<svg width="111" height="115" viewBox="0 0 111 115" fill="none" xmlns="http://www.w3.org/2000/svg">
<path d="M23.0948 80.8895C25.2795 83.8527 27.8283 86.504 30.7931 88.7913L24.3432 104.075L41.0922 111.145L47.282 96.5372C51.2352 97.4209 55.2404 97.6289 59.1936 97.317L66.1636 114.524L82.9646 107.662L76.5147 91.8065C80.936 89.2072 84.8371 85.8281 88.0621 81.7213L103.355 88.1675L110.429 71.4282L95.8124 65.2419C96.8527 60.5112 96.9567 55.7805 96.3326 51.1538L110.585 45.3314L103.719 28.5401L89.9347 34.1545C86.9698 29.6317 83.0686 25.7329 78.4393 22.6137L84.6291 8.00576L67.8801 0.935742L61.4302 16.2195C57.7371 15.6996 53.992 15.6996 50.4029 16.2195L43.797 0L26.996 6.86209L33.3939 22.6137C28.8686 25.5769 24.9674 29.4758 21.8465 34.1025L7.23014 27.9162L0.156046 44.6556L15.4486 51.1018C14.8244 55.5726 14.9284 59.9913 15.7607 64.3061L0 70.7004L6.86604 87.4917L23.0948 80.8895ZM40.572 50.1661C44.1611 41.6924 53.94 37.7415 62.3665 41.2765C70.845 44.8635 74.7982 54.6368 71.2611 63.0585C67.6721 71.5321 57.8932 75.483 49.4667 71.948C40.9882 68.361 37.035 58.5877 40.572 50.1661Z" fill="#3465E0"/>
</svg>
