<svg width="159" height="285" viewBox="0 0 159 285" fill="none" xmlns="http://www.w3.org/2000/svg">
<g clip-path="url(#clip0_5_530)">
<path d="M156.624 227.651C162.999 212.908 156.189 195.786 141.458 189.406C136.588 187.305 131.44 186.631 126.53 187.226C126.53 187.226 126.53 187.226 126.491 187.226C126.412 187.226 126.293 187.226 126.095 187.265C123.679 187.543 112.394 188.375 106.138 181.836C99.1291 174.543 100.713 162.376 100.713 162.376L123.719 109.03L75.6876 88.2624C75.6876 88.2624 66.2239 80.4944 66.3031 70.3484C66.3823 61.3121 75.1729 54.1782 77.1131 52.7118C77.2715 52.5929 77.3903 52.5136 77.4299 52.474C77.4299 52.474 77.4299 52.474 77.4695 52.474C81.4688 49.5411 84.7554 45.4986 86.854 40.6237C93.2292 25.8803 86.4185 8.7589 71.6883 2.378C56.9582 -4.00289 39.8522 2.81396 33.4771 17.5574C31.3784 22.4322 30.7053 27.5845 31.2993 32.5386C31.2993 32.5386 31.2993 32.5386 31.2993 32.5783C31.2993 32.6575 31.2993 32.7764 31.3389 32.9746C31.616 35.3922 32.4476 46.6876 25.914 52.9495C18.6282 59.9646 6.47185 58.3792 6.47185 58.3792L-52.1319 33.0538L-128 209.063L47.7717 285L70.7776 231.654C70.7776 231.654 78.5386 222.182 88.6755 222.261C97.7036 222.34 104.831 231.139 106.296 233.081C106.415 233.239 106.494 233.358 106.534 233.398C106.534 233.398 106.534 233.398 106.534 233.438C109.464 237.441 113.503 240.73 118.373 242.831C133.103 249.212 150.209 242.395 156.585 227.651H156.624Z" fill="#3B5CC1"/>
</g>
<defs>
<clipPath id="clip0_5_530">
<rect width="287" height="285" fill="white" transform="translate(-128)"/>
</clipPath>
</defs>
</svg>
