<svg width="1223" height="740" viewBox="0 0 1223 740" fill="none" xmlns="http://www.w3.org/2000/svg">
<g clip-path="url(#clip0_5_251)">
<path d="M1527 543H0V740H1527V543Z" fill="#B6E2FF"/>
<path d="M612.446 94.6342L624.643 165.492L588.23 175.211L579.343 112.899L576.098 87.8012L596.335 83.7568L612.446 94.6342Z" fill="#52A1FF"/>
<path d="M612.511 96.7053C612.511 96.7053 611.141 84.507 603.738 77.2501C596.335 69.9931 589.682 68.9168 582.083 68.6558C574.484 68.3786 560.493 73.7602 556.155 75.9291C551.834 78.0981 545.719 83.5938 544.316 86.9043C542.93 90.2311 541.773 94.8462 545.181 95.7757C548.589 96.7053 552.649 91.5357 555.47 88.4535C558.291 85.3714 558.52 83.6264 562.058 82.8763C565.58 82.1261 567.57 81.2944 567.57 81.2944L563.982 90.2311L591.28 91.3889C591.28 91.3889 592.062 87.1489 595.014 88.2904C597.965 89.432 601.194 97.5207 601.194 97.5207L612.527 96.7053H612.511Z" fill="#52A1FF"/>
<path d="M557.541 154.484C557.541 154.484 545.425 73.7114 523.884 41.4708C502.343 9.23023 464.707 -9.70314 409.819 5.10436C354.931 19.9119 340.842 84.8333 319.317 129.223C297.792 173.613 247.274 217.987 214.139 256.604C181.02 295.237 143.743 366.73 136.291 439.871C128.839 513.011 138.77 554.923 133.812 573.823C128.855 592.724 94.0568 605.868 87.4363 632.988C80.8158 660.108 275.42 659.293 390.545 656.814C505.653 654.351 708.557 646.948 727.603 625.584C746.65 604.221 735.202 587.538 720.217 557.255C705.247 526.971 689.511 426.71 679.564 351.091C669.633 275.488 622.425 226.173 600.069 203.163C577.713 180.153 567.211 175.619 557.558 154.468L557.541 154.484Z" fill="#52A1FF"/>
<path d="M1067.87 377.64C1063.03 384.751 828.623 410.501 828.623 410.501L689.136 403.39L688.174 348.335L816.035 250.668L816.997 70.4173L835.896 63.1277L1076.58 61.5132C1076.58 61.5132 1072.7 370.546 1067.86 377.657L1067.87 377.64Z" fill="#83C7FF"/>
<path d="M626.682 392.48V652.264L612.266 653.194L601.586 392.48H626.682Z" fill="#3465E0"/>
<path d="M1067.68 377.917L1079.83 654.694H1062.84L1040.01 383.968L1067.68 377.917Z" fill="#3465E0"/>
<path d="M851.224 407.957L837.07 660.353L820.878 661.967L817.437 409.93L851.224 407.957Z" fill="#3465E0"/>
<path d="M938.628 397.683L934.176 610.989L920.414 613.419L912.668 400.83L938.628 397.683Z" fill="#3465E0"/>
<path d="M820.062 407.875L819.247 367.497L819.964 367.399L1054.58 337.213L1062.8 72.0316L816.834 71.2162V69.5854L1064.48 70.4008L1064.45 71.2325L1056.17 338.665L1055.48 338.746L820.894 368.932L821.693 407.842L820.062 407.875Z" fill="#021754"/>
<path d="M820.035 367.469L773.239 368.106L773.261 369.737L820.057 369.099L820.035 367.469Z" fill="#021754"/>
<path d="M627.725 675.649C636.531 675.665 654.272 660.352 669.356 644.518C676.971 636.527 683.918 628.389 688.696 622.045C702.899 603.145 720.836 586.103 720.836 586.103L718.977 535.891L648.532 546.247L659.702 586.038C659.702 586.038 647.848 603.911 636.156 621.54C631.704 628.259 627.269 634.945 623.518 640.604C609.951 661.07 614.484 675.633 627.741 675.649H627.725Z" fill="#83C7FF"/>
<path d="M778.122 588.941C770.376 598.008 757.559 599.59 757.559 599.59C757.559 599.59 757.265 600.046 756.678 600.927C754.461 604.335 748.117 614.055 738.904 628.096C733.36 636.543 723.152 648.643 712.504 659.423C700.909 671.181 688.794 681.373 681.668 683.559C668.003 687.766 659.898 674.557 666.356 656.814C667.97 652.378 671.753 646.002 676.498 638.973C690.669 617.952 713.515 590.946 713.515 590.946L700.306 537.359L773.197 536.576C773.197 536.576 774.991 557.287 778.937 564.935C779.149 565.36 779.361 565.783 779.589 566.224C779.964 566.958 780.307 567.675 780.633 568.393C783.698 575.112 784.726 581.194 778.105 588.957L778.122 588.941Z" fill="#83C7FF"/>
<path d="M681.668 683.558C688.794 681.373 700.909 671.181 712.503 659.407L676.498 638.957C671.753 646.002 667.986 652.362 666.356 656.797C659.898 674.54 667.986 687.75 681.668 683.542V683.558Z" fill="#3465E0"/>
<path d="M778.121 588.94C770.376 598.008 757.559 599.589 757.559 599.589C757.559 599.589 757.265 600.046 756.678 600.927C754.477 589.854 751.379 572.747 752.699 570.888C754.036 569.012 769.495 567.218 779.605 566.224C779.98 566.957 780.323 567.675 780.649 568.393C783.715 575.111 784.742 581.194 778.121 588.957V588.94Z" fill="#3465E0"/>
<path d="M627.725 675.649C636.531 675.666 654.272 660.353 669.356 644.518L636.156 621.54C631.704 628.259 627.269 634.945 623.518 640.604C609.951 661.07 614.484 675.633 627.741 675.649H627.725Z" fill="#3465E0"/>
<path d="M673.906 639.87L672.65 638.826L712.585 590.767L694.289 538.827L695.822 538.289L714.428 591.11L673.906 639.87Z" fill="#021754"/>
<path d="M704.383 250.504C704.383 250.504 627.529 253.831 603.233 284.979C578.936 316.143 578.088 347.699 586.926 388.664C595.764 429.629 637.591 559.015 637.591 559.015L727.587 558.803L728.19 335.174L853.377 259.8L704.399 250.488L704.383 250.504Z" fill="#0641B7"/>
<path d="M1005.37 224.167C1005.37 224.167 1014.52 275.455 1004.91 309.799C995.31 344.144 956.5 338.093 948.249 331.179C948.249 331.179 856.345 353.178 818.725 354.466C781.106 355.771 770.001 358.429 773.637 378.879C777.274 399.329 788.281 443.654 795.782 480.51C803.283 517.365 814.681 561.723 814.681 561.723L689.772 563.37C689.772 563.37 643.771 408.657 648.5 362.702C653.229 316.763 673.123 295.09 703.486 282.891C733.849 270.677 814.502 254.597 814.502 254.597L1005.37 224.183V224.167Z" fill="#0641B7"/>
<path d="M928.632 241.959C928.632 241.959 940.193 250.863 945.982 258.952C951.771 267.04 949.602 270.286 945.982 269.47C942.362 268.655 937.307 263.811 931.535 258.952C925.746 254.092 920.691 250.863 920.691 250.863C920.691 250.863 928.632 258.153 932.97 265.426C937.307 272.715 938.025 276.76 934.421 277.559C930.801 278.374 924.311 268.655 920.691 264.61C917.071 260.566 907.678 254.092 907.678 254.092C907.678 254.092 917.788 264.61 921.408 270.269C925.028 275.928 925.028 279.972 922.126 280.788C919.239 281.603 912.016 271.085 908.395 267.024C904.775 262.98 898.139 257.843 898.139 257.843C898.139 257.843 906.944 269.454 909.113 273.498C911.282 277.543 911.999 282.402 907.662 281.587C903.324 280.771 897.552 270.253 893.214 266.209C888.876 262.164 882.37 257.305 882.37 257.305L928.616 241.926L928.632 241.959Z" fill="#B6E2FF"/>
<path d="M816.426 86.627C791.167 87.2956 741.823 89.2525 689.038 107.86C636.27 126.467 590.774 157.794 578.039 182.077C565.303 206.359 562.564 229.826 586.225 250.048C609.886 270.269 676.303 271.085 692.675 271.085C709.046 271.085 790.939 266.225 790.939 266.225L871.004 251.662L1091.94 172.732C1091.94 172.732 1086.64 152.935 1064.81 137.556C1042.97 122.178 998.392 100.75 942.884 93.4762C887.376 86.1867 853.523 85.6322 816.41 86.627H816.426Z" fill="#3465E0"/>
<path d="M635.367 187.347L634.931 188.918L693.191 205.098L693.628 203.527L635.367 187.347Z" fill="#021754"/>
<path d="M943.993 203.146C943.928 203.554 943.846 203.962 943.781 204.321C943.357 206.538 943.015 207.973 943.015 207.973L939.492 208.773L938.09 209.082L917.299 213.812L916.06 214.089L895.448 218.769L894.176 219.063L872.798 223.923L871.852 224.135L864.384 225.831L859.41 226.956L850.018 229.092L848.746 229.369L827.857 234.115L826.455 234.441L804.962 239.333L803.739 239.611L796.401 241.274C796.401 241.274 790.873 241.405 782.443 241.486C782.1 241.486 781.758 241.486 781.399 241.486C775.594 241.535 768.517 241.551 761 241.486C760.527 241.486 760.054 241.486 759.581 241.47C752.569 241.405 745.215 241.258 738.138 240.981C737.73 240.981 737.322 240.964 736.915 240.932C729.071 240.622 721.619 240.133 715.471 239.448C714.982 239.399 714.509 239.333 714.036 239.285C712.585 239.105 711.215 238.909 709.943 238.714C702.948 237.589 697.518 236.316 693.229 234.914C692.756 234.751 692.283 234.588 691.827 234.425C685.695 232.24 682.124 229.712 679.597 226.776C679.401 226.564 679.222 226.336 679.042 226.108C677.77 224.493 676.776 222.781 675.814 220.906C671.655 212.817 671.655 207.957 671.655 207.957C671.655 207.957 671.166 208.071 670.334 208.218C669.943 208.283 669.47 208.365 668.948 208.463C663.844 209.262 653.359 210.24 653.359 204.728C653.359 204.581 653.359 204.418 653.359 204.272C653.392 203.929 653.441 203.587 653.539 203.261C654.843 198.254 662.768 195.547 669.046 195.433C669.487 195.416 669.91 195.433 670.334 195.433C671.411 195.465 672.438 195.596 673.319 195.824C673.319 195.824 673.906 189.758 677.412 182.289C677.575 181.93 677.754 181.555 677.95 181.18C680.314 176.434 683.853 171.216 689.152 166.682C689.984 165.965 690.913 165.28 691.941 164.627C692.446 164.301 692.984 163.975 693.539 163.649C696.262 162.083 699.523 160.665 703.16 159.36C704.383 158.92 705.655 158.496 706.959 158.104C709.258 157.387 711.688 156.702 714.216 156.066C714.738 155.935 715.276 155.788 715.797 155.674C722.467 154.044 729.707 152.69 736.947 151.548C737.436 151.467 737.926 151.402 738.415 151.32C745.378 150.244 752.324 149.379 758.766 148.662C759.222 148.613 759.679 148.564 760.119 148.515C764.522 148.026 768.68 147.618 772.398 147.259C774.991 147.015 778.056 146.754 781.513 146.509C782.019 146.477 782.541 146.444 783.079 146.395C789.129 145.987 796.238 145.612 803.935 145.303C804.424 145.303 804.913 145.27 805.386 145.254C812.121 144.993 819.296 144.797 826.552 144.683C827.009 144.683 827.482 144.683 827.938 144.667C834.918 144.585 841.962 144.569 848.811 144.667C849.284 144.667 849.757 144.667 850.213 144.667C857.617 144.781 864.791 145.025 871.363 145.449C871.836 145.466 872.325 145.498 872.798 145.531C880.788 146.069 887.849 146.835 893.328 147.928C893.508 147.961 893.703 147.993 893.883 148.042C894.143 148.091 894.388 148.14 894.649 148.205C902.541 149.918 909.716 152.902 916.043 156.457C916.598 156.767 917.136 157.093 917.674 157.403C917.951 157.566 918.228 157.729 918.506 157.892C919.06 158.235 919.598 158.561 920.136 158.92C928.045 163.991 934.323 169.813 938.481 174.787C939.003 175.39 939.476 175.978 939.916 176.565C941.205 178.228 942.232 179.777 942.982 181.098C943.21 181.506 943.406 181.881 943.569 182.24C943.667 182.452 943.765 182.664 943.846 182.859C946.048 188.225 944.971 197.471 943.993 203.114V203.146Z" fill="#83C7FF"/>
<path d="M939.492 203.163V190.557L939.737 182.305C941.009 182.305 942.281 182.289 943.569 182.272C943.406 181.914 943.21 181.522 942.982 181.131C941.971 181.131 940.895 181.131 939.786 181.131L939.916 176.614C939.476 176.043 938.987 175.456 938.481 174.836C938.465 176.532 938.432 178.701 938.4 181.131C931.91 181.115 924.18 181.066 917.707 181.033L917.495 172.537L917.658 158.985C918.571 158.985 919.403 158.985 920.136 158.985C919.598 158.642 919.06 158.3 918.506 157.957H917.674V157.468C917.152 157.158 916.614 156.832 916.06 156.522V157.957C909.113 157.941 903.976 157.925 903.976 157.925L894.633 158.039L894.502 154.207L894.682 148.287C894.437 148.238 894.176 148.189 893.915 148.124C893.736 148.091 893.54 148.059 893.361 148.01L893.328 148.744L893.377 158.055L885.941 158.153L873.026 158.463V154.19L872.831 145.58C872.358 145.547 871.869 145.515 871.396 145.498L871.542 148.727L871.445 158.496L867.596 158.577L850.327 158.137L850.376 154.174L850.262 144.699C849.789 144.699 849.316 144.699 848.86 144.699L848.925 148.744L848.795 158.137C845.696 158.104 836.581 158.088 828.134 158.055V154.207L827.987 144.699C827.531 144.699 827.058 144.699 826.601 144.716L826.503 148.727L826.536 158.039C821.595 158.039 817.013 158.039 814.208 158.039C812.072 158.039 809.104 158.039 805.729 158.039L805.761 154.223L805.419 145.319C804.93 145.335 804.44 145.352 803.968 145.368L804.033 148.76V158.039C797.494 158.039 789.699 158.006 783.16 157.99L783.209 154.223L783.111 146.46C782.573 146.493 782.051 146.526 781.546 146.575L781.579 148.76L781.53 157.974C774.599 157.974 769.446 157.941 769.446 157.941L760.103 158.055L759.956 154.223L760.135 148.58C759.695 148.629 759.238 148.678 758.782 148.727V148.76L758.831 158.072L751.395 158.153L738.48 158.463V154.207L738.431 151.369C737.942 151.434 737.453 151.516 736.964 151.597L736.898 158.496L733.05 158.593L715.781 158.153L715.814 155.707C715.276 155.821 714.754 155.968 714.232 156.098L714.199 158.169C712.797 158.153 710.188 158.137 706.976 158.137C705.671 158.545 704.399 158.969 703.176 159.393L714.167 159.556L714.004 171.15C714.004 171.15 714.053 175.195 714.118 180.658C710.922 180.723 701.79 180.903 693.36 181.033L693.62 172.569L693.571 163.665C693.017 163.975 692.495 164.301 691.973 164.644L692.006 171.15C692.006 171.15 692.006 175.391 691.973 181.066C687.016 181.131 682.418 181.196 679.613 181.196H677.999C677.819 181.571 677.64 181.93 677.46 182.305C682.76 182.256 687.88 182.207 691.973 182.158C691.957 188.975 691.924 197.537 691.908 203.391C686.967 203.326 682.418 203.212 679.613 203.212C677.314 203.212 674.085 203.212 670.383 203.228V195.449C669.959 195.449 669.535 195.433 669.095 195.449C669.063 198.27 669.03 200.945 669.014 203.244C664.187 203.244 658.724 203.261 653.604 203.277C653.522 203.603 653.457 203.929 653.424 204.288C657.403 204.288 663.029 204.337 669.014 204.37C669.014 205.478 669.014 206.49 669.014 207.321V208.479C669.535 208.398 670.025 208.316 670.4 208.234V204.37C677.999 204.418 686.021 204.484 691.908 204.533V207.321C691.908 211.512 691.908 218.525 691.908 225.977C686.984 226.059 682.418 226.108 679.629 226.108H679.124C679.303 226.336 679.483 226.564 679.678 226.776C684.146 226.776 688.402 226.76 691.908 226.744V234.425C692.365 234.588 692.838 234.751 693.311 234.914C693.311 232.778 693.311 229.94 693.294 226.728C697.844 226.728 700.812 226.711 700.812 226.711L714.232 226.613C714.199 230.886 714.151 235.24 714.102 239.301C714.574 239.35 715.047 239.415 715.537 239.464C715.537 237.849 715.537 236.447 715.537 235.322C715.537 233.12 715.537 230.054 715.537 226.564L727.652 227.103L737.322 226.956C737.224 231.701 737.11 236.577 737.012 240.948C737.42 240.964 737.828 240.981 738.235 240.997C738.235 238.746 738.235 236.789 738.235 235.322C738.235 233.202 738.252 230.283 738.284 226.94L750.041 226.776C750.041 226.776 754.151 226.776 759.695 226.776C759.695 231.783 759.679 236.92 759.662 241.502C760.135 241.502 760.625 241.502 761.081 241.519C761.114 239.056 761.13 236.904 761.13 235.322C761.13 233.169 761.114 230.185 761.081 226.76H781.562C781.546 231.767 781.513 236.92 781.481 241.519C781.839 241.519 782.182 241.519 782.524 241.519C782.492 239.056 782.475 236.904 782.475 235.322C782.475 233.169 782.508 230.185 782.573 226.76C783.959 226.76 785.182 226.76 786.193 226.76C790.156 226.76 796.695 226.76 803.723 226.744C803.739 231.082 803.788 235.534 803.805 239.627L805.028 239.35C805.028 237.784 805.028 236.414 805.028 235.305V226.728C812.61 226.728 820.633 226.695 826.536 226.662V234.441L827.938 234.115C827.938 232.077 827.938 229.516 827.922 226.646C832.472 226.646 835.44 226.63 835.44 226.63L848.86 226.532C848.86 227.478 848.86 228.424 848.827 229.369L850.099 229.092C850.099 228.26 850.099 227.412 850.099 226.532L859.508 226.956L864.482 225.831L850.099 225.472C850.099 218.981 850.067 211.203 850.05 204.63L862.215 204.19L872.162 204.386C872.162 205.462 872.162 206.424 872.162 207.24C872.162 211.088 872.064 217.351 871.934 224.151L872.88 223.939C872.961 217.709 873.075 210.534 873.189 204.418L884.588 204.647C884.588 204.647 888.713 204.582 894.274 204.5C894.274 205.544 894.274 206.457 894.274 207.256C894.274 210.126 894.274 214.334 894.258 219.096L895.53 218.802C895.481 213.991 895.399 208.952 895.334 204.5C901.954 204.402 910.271 204.288 916.174 204.239V207.272C916.174 209.099 916.174 211.447 916.158 214.122L917.397 213.844C917.478 210.534 917.56 207.256 917.641 204.239C918.815 204.239 919.859 204.239 920.74 204.239C924.702 204.239 931.208 204.272 938.204 204.321C938.204 205.43 938.204 206.441 938.204 207.272V209.115L939.606 208.805V204.337C941.025 204.337 942.46 204.353 943.895 204.353C943.96 203.978 944.026 203.587 944.107 203.179C942.721 203.179 941.205 203.179 939.606 203.179L939.492 203.163ZM715.585 172.537L715.749 159.539H727.571L736.866 159.49L736.752 171.118C736.752 171.118 736.866 175.179 737.012 180.691H733.034L715.488 180.609L715.585 172.553V172.537ZM693.033 190.622L693.294 182.126C697.795 182.077 700.763 182.044 700.763 182.044L709.014 181.718L714.118 181.506C714.199 188.323 714.281 197.08 714.314 203.114C712.438 203.179 708.068 203.473 702.948 203.489C699.817 203.489 696.409 203.473 693.115 203.424C693.082 196.134 693.033 190.638 693.033 190.638V190.622ZM714.314 207.321C714.314 211.431 714.265 218.264 714.199 225.586C711.085 225.651 701.79 225.831 693.245 225.977C693.213 219.356 693.18 211.3 693.131 204.549C697.746 204.582 700.763 204.614 700.763 204.614L714.314 204.712V207.321ZM715.374 190.573L715.488 181.441L727.587 181.767H737.061C737.241 188.502 737.436 197.015 737.518 202.967L733.05 202.837L715.406 203.049C715.406 195.922 715.374 190.573 715.374 190.573ZM737.534 207.256C737.534 211.431 737.42 218.411 737.257 225.847L733.034 225.945L715.455 225.504C715.455 219.014 715.422 211.235 715.406 204.647L727.571 204.206L737.518 204.402C737.518 205.462 737.518 206.441 737.518 207.24L737.534 207.256ZM759.63 203.326L751.379 203.375L738.594 202.983C738.725 195.873 738.822 190.557 738.822 190.557L738.611 181.751H749.96C749.96 181.751 753.841 181.832 759.173 181.963C759.353 188.796 759.565 197.422 759.63 203.326ZM738.464 159.474L749.976 159.425C749.976 159.425 753.694 159.36 758.831 159.278L758.88 171.102C758.88 171.102 758.994 175.195 759.141 180.74L751.379 180.593L738.578 180.674L738.382 172.537L738.447 159.49L738.464 159.474ZM759.662 207.256C759.662 211.382 759.662 218.264 759.63 225.602L751.379 225.504L738.235 225.831C738.317 219.21 738.447 211.17 738.578 204.435L749.976 204.663C749.976 204.663 754.102 204.598 759.662 204.5C759.662 205.544 759.662 206.473 759.662 207.256ZM781.497 159.001L781.448 171.118C781.448 171.118 781.448 175.342 781.481 181.017C774.55 180.984 769.414 180.935 769.414 180.935L760.559 180.772L760.608 172.537L760.119 159.262C766.805 159.164 775.431 159.034 781.497 159.001ZM760.494 190.573L760.543 182.012C767.163 182.158 775.545 182.321 781.481 182.403C781.497 189.138 781.53 197.471 781.53 203.244C774.567 203.244 769.397 203.277 769.397 203.277L760.673 203.326C760.576 196.053 760.478 190.573 760.478 190.573H760.494ZM781.546 207.256C781.546 211.431 781.513 218.411 781.481 225.831C774.55 225.765 769.414 225.716 769.414 225.716L760.983 225.619C760.918 219.063 760.804 211.137 760.706 204.484C767.327 204.386 775.659 204.272 781.546 204.223V207.256ZM782.508 225.847C782.622 219.161 782.834 211.007 783.014 204.223C784.188 204.223 785.231 204.223 786.112 204.223C790.074 204.223 796.564 204.255 803.56 204.304C803.56 205.413 803.56 206.424 803.56 207.256C803.56 211.463 803.593 218.525 803.641 226.01C796.972 225.977 789.047 225.896 782.508 225.847ZM803.576 203.179C797.103 203.179 789.455 203.212 783.046 203.228C783.242 196.004 783.405 190.573 783.405 190.573L783.209 182.419C784.302 182.419 785.296 182.436 786.128 182.436C790.14 182.436 796.744 182.403 803.853 182.338C803.756 189.056 803.641 197.39 803.593 203.179H803.576ZM804 171.102C804 171.102 803.935 175.391 803.853 181.115C797.363 181.082 789.65 181.049 783.16 181L782.948 172.52L783.111 158.969C784.237 158.969 785.248 158.969 786.112 158.969C790.156 158.969 796.842 159.017 804 159.066V171.102ZM828.183 172.537L828.101 159.262C832.488 159.295 835.342 159.311 835.342 159.311L848.729 159.507L848.566 171.102C848.566 171.102 848.615 175.146 848.681 180.609C845.484 180.674 836.353 180.854 827.922 180.984L828.183 172.52V172.537ZM826.455 207.256C826.455 211.447 826.455 218.476 826.455 225.928C821.53 225.994 816.964 226.059 814.176 226.059C811.876 226.059 808.648 226.059 804.946 226.026V204.321C812.545 204.37 820.568 204.435 826.455 204.484V207.256ZM826.471 203.326C821.53 203.244 816.98 203.146 814.176 203.146C811.876 203.146 808.648 203.146 804.946 203.163V190.557L805.207 182.305C812.757 182.24 820.698 182.158 826.536 182.077C826.52 188.91 826.487 197.455 826.471 203.326ZM826.536 181.017C821.579 181.082 816.98 181.147 814.176 181.147C811.942 181.147 808.827 181.147 805.24 181.131L805.517 172.537L805.68 159.083C813.083 159.132 820.796 159.197 826.503 159.246L826.569 171.118C826.569 171.118 826.569 175.358 826.536 181.033V181.017ZM827.629 190.573L827.89 182.077C832.406 182.028 835.358 181.979 835.358 181.979L843.609 181.669L848.713 181.457C848.795 188.274 848.876 197.031 848.909 203.065C847.034 203.13 842.663 203.424 837.543 203.44C834.412 203.44 831.004 203.424 827.71 203.375C827.677 196.085 827.645 190.589 827.645 190.589L827.629 190.573ZM848.909 207.256C848.909 211.366 848.86 218.215 848.795 225.521C845.68 225.586 836.385 225.765 827.841 225.896C827.824 219.275 827.775 211.219 827.726 204.484C832.341 204.516 835.358 204.549 835.358 204.549L848.909 204.647V207.256ZM850.132 172.52L850.295 159.523H862.117L871.412 159.474L871.298 171.102C871.298 171.102 871.412 175.162 871.559 180.674H867.58L850.034 180.593L850.132 172.537V172.52ZM867.58 202.804L849.936 203.016C849.92 195.889 849.904 190.54 849.904 190.54L850.018 181.408L862.117 181.734H871.591C871.771 188.469 871.966 196.982 872.048 202.934L867.58 202.804ZM872.912 172.52L872.994 159.474L884.49 159.425C884.49 159.425 888.208 159.36 893.344 159.295L893.41 171.118C893.41 171.118 893.524 175.211 893.671 180.74L885.909 180.593L873.108 180.674L872.912 172.537V172.52ZM885.925 203.358L873.124 202.967C873.255 195.857 873.369 190.54 873.369 190.54L873.157 181.734H884.506C884.506 181.734 888.404 181.832 893.72 181.946C893.899 188.796 894.095 197.406 894.176 203.31L885.925 203.358ZM916.043 158.985L915.978 171.102C915.978 171.102 915.994 175.325 916.011 180.984C909.097 180.952 903.96 180.919 903.96 180.919L895.106 180.756L895.155 172.52L894.665 159.246C901.351 159.148 909.961 159.034 916.043 158.985ZM903.96 203.261L895.236 203.31C895.122 196.036 895.04 190.557 895.04 190.557L895.089 181.995C901.71 182.142 910.091 182.305 916.027 182.387C916.043 189.122 916.076 197.455 916.092 203.228C909.129 203.228 903.96 203.261 903.96 203.261ZM938.123 203.163C931.649 203.163 924.001 203.195 917.592 203.212C917.788 195.987 917.951 190.557 917.951 190.557L917.756 182.403C918.848 182.403 919.843 182.403 920.674 182.403C924.686 182.403 931.306 182.37 938.4 182.305C938.302 189.024 938.188 197.357 938.139 203.146L938.123 203.163Z" fill="#52A1FF"/>
<path d="M783.666 98.7273C773.148 93.8676 759.385 97.1128 759.385 108.43C759.385 108.43 752.911 106.001 748.052 109.246C743.193 112.475 741.578 119.764 742.394 124.624C742.394 124.624 734.305 125.44 731.876 133.528C729.446 141.617 732.691 148.091 739.165 149.706C743.877 150.88 748.59 149.918 751.118 148.042C756.597 152.853 769.104 147.276 769.104 147.276L762.271 143.688C771.746 136.007 795.798 110.061 795.798 110.061V109.246C795.798 109.246 794.184 103.587 783.666 98.7273Z" fill="#021754"/>
<path d="M794.983 109.246C794.983 109.246 787.694 113.29 780.421 110.061C780.421 110.061 782.035 118.15 777.192 121.395C772.333 124.624 765.06 122.211 765.06 122.211C765.06 122.211 769.104 131.115 765.875 137.589C762.647 144.063 759.401 145.678 759.401 145.678C759.401 145.678 774.779 155.381 787.726 159.442C800.674 163.486 818.758 162.393 824.954 156.213C830.613 150.554 831.428 139.22 826.569 130.316C822.035 121.999 801.489 110.893 795.015 109.279L794.983 109.246Z" fill="#B6E2FF"/>
<path d="M769.088 147.292C769.088 147.292 758.57 149.722 756.955 155.381C755.341 161.039 758.57 163.469 764.245 162.67C769.903 161.855 776.377 156.196 775.578 152.152C774.762 148.107 769.104 147.292 769.104 147.292H769.088Z" fill="#B6E2FF"/>
<path d="M793.776 111.268C793.776 111.268 792.162 105.609 795.39 99.135C798.619 92.6608 804.098 94.0144 807.522 96.7052C810.507 99.0535 809.691 111.399 804.294 113.698C799.581 115.704 793.776 111.268 793.776 111.268Z" fill="#B6E2FF"/>
<path d="M778.806 128.668L787.71 143.231L791.754 133.528L778.806 128.668Z" fill="#4C83F2"/>
<path d="M779.247 140.524C779.018 140.312 778.757 140.133 778.464 140.002C778.121 139.856 777.795 139.725 777.437 139.676C777.062 139.627 776.686 139.578 776.311 139.627C776.148 139.627 775.985 139.66 775.838 139.725C775.692 139.774 775.561 139.856 775.447 139.97C775.235 140.182 775.072 140.524 775.088 140.834C775.088 140.916 775.105 141.013 775.121 141.095C775.088 141.47 775.17 141.829 775.349 142.171C775.431 142.334 775.561 142.481 775.675 142.612C775.806 142.758 775.969 142.872 776.132 142.987C776.311 143.117 776.507 143.215 776.703 143.296C777.094 143.46 777.502 143.623 777.942 143.59C778.448 143.557 778.872 143.394 779.247 143.052C779.312 142.987 779.361 142.921 779.426 142.84C779.491 142.758 779.54 142.693 779.589 142.612C779.654 142.497 779.703 142.367 779.736 142.236C779.768 142.09 779.801 141.927 779.785 141.78C779.752 141.291 779.573 140.85 779.214 140.508L779.247 140.524Z" fill="#021754"/>
<path d="M792.194 122.733C791.966 122.521 791.705 122.341 791.411 122.211C791.069 122.064 790.743 121.934 790.384 121.885C790.009 121.836 789.634 121.787 789.259 121.836C789.096 121.836 788.933 121.868 788.786 121.934C788.639 121.982 788.509 122.064 788.395 122.178C788.183 122.39 788.02 122.733 788.036 123.042C788.036 123.124 788.052 123.222 788.069 123.303C788.036 123.678 788.117 124.037 788.297 124.38C788.378 124.543 788.509 124.69 788.623 124.82C788.753 124.967 788.916 125.081 789.08 125.195C789.259 125.326 789.455 125.423 789.65 125.505C790.042 125.668 790.449 125.831 790.89 125.798C791.395 125.766 791.819 125.603 792.194 125.26C792.259 125.195 792.308 125.13 792.373 125.048C792.439 124.967 792.488 124.902 792.537 124.82C792.602 124.706 792.651 124.575 792.683 124.445C792.716 124.298 792.749 124.135 792.732 123.988C792.7 123.499 792.52 123.059 792.161 122.716L792.194 122.733Z" fill="#021754"/>
<path d="M768.517 154.223C768.305 154.011 767.914 153.799 767.506 153.75C767.163 153.701 766.805 153.718 766.479 153.799C766.397 153.799 766.315 153.815 766.25 153.832C765.761 153.962 765.272 154.109 764.815 154.305C764.375 154.484 763.967 154.712 763.592 154.941C762.924 155.348 762.369 155.854 761.994 156.408C761.88 156.588 761.766 156.751 761.782 156.947C761.782 157.175 761.929 157.403 762.157 157.583C762.337 157.729 762.549 157.827 762.826 157.892C762.956 157.941 763.103 157.958 763.25 157.958C763.478 157.99 763.69 157.974 763.918 157.925C765.06 157.811 766.12 157.419 766.951 156.914C767.799 156.425 768.419 155.74 768.696 155.038C768.794 154.761 768.745 154.468 768.517 154.223Z" fill="#4C83F2"/>
<path d="M803.234 102.364C802.598 101.679 801.489 101.924 800.935 102.592C800.217 103.473 799.679 104.468 799.32 105.544C798.929 106.686 798.749 107.925 798.815 109.116C798.815 109.311 798.88 109.491 798.978 109.67C799.027 109.849 799.124 110.029 799.271 110.176C799.728 110.6 800.527 110.681 800.983 110.176C802.467 108.529 803.364 106.506 803.609 104.305C803.69 103.62 803.739 102.919 803.25 102.38L803.234 102.364Z" fill="#4C83F2"/>
<path d="M795.162 150.227C794.983 150.015 790.808 144.878 794.249 138.013C797.07 132.37 804.082 133.169 807.392 134.376L806.838 135.909C806.495 135.795 798.57 133.006 795.7 138.747C792.749 144.634 796.255 149.004 796.401 149.184L795.146 150.227H795.162Z" fill="#021754"/>
<path d="M860.535 264.643L852.496 221.721C852.496 221.721 803.332 236.92 785.443 249.444C767.571 261.969 762.206 273.58 755.944 286.104C749.683 298.629 747.905 308.462 751.476 310.24C755.048 312.034 757.738 304.875 762.206 295.041C766.674 285.208 774.73 274.477 774.73 274.477C774.73 274.477 763.103 294.144 761.326 304.875C759.532 315.605 762.222 315.605 764 313.811C765.794 312.018 773.833 296.819 775.627 292.35C777.42 287.882 785.459 277.151 785.459 277.151C785.459 277.151 776.523 293.247 773.833 300.39C771.159 307.549 768.468 314.692 771.159 316.486C773.833 318.28 780.095 304.858 782.785 300.39C785.459 295.922 794.412 280.723 794.412 280.723C794.412 280.723 787.253 295.025 783.682 304.858C780.111 314.692 780.111 320.057 782.785 319.16C785.459 318.263 789.047 310.224 795.309 300.39C801.57 290.556 802.174 287.425 806.038 285.191C823.03 275.358 860.568 264.627 860.568 264.627L860.535 264.643Z" fill="#B6E2FF"/>
<path d="M846.283 222.389C846.283 222.389 927.067 196.183 967.947 185.941C1008.83 175.7 1065.87 161.349 1065.87 161.349C1065.87 161.349 1083.63 160.175 1091.68 173.906C1099.74 187.637 1098.48 211.692 1076.63 227.363C1054.78 243.035 1014.14 250.504 975.448 257.223C936.753 263.942 854.323 271.346 854.323 271.346L846.316 222.373L846.283 222.389Z" fill="#3465E0"/>
<path d="M786.634 295.824L785.15 295.155C785.394 294.617 791.134 281.929 799.255 275.618C807.262 269.389 814.942 265.295 815.023 265.263L815.79 266.698C815.79 266.698 808.158 270.758 800.266 276.906C792.471 282.973 786.715 295.693 786.65 295.824H786.634Z" fill="#021754"/>
<path d="M777.649 291.421L776.23 290.638C776.572 290.035 784.546 275.7 792.096 268.753C799.63 261.822 806.674 258.267 806.984 258.12L807.718 259.572C807.718 259.572 800.576 263.192 793.205 269.96C785.851 276.727 777.746 291.29 777.665 291.437L777.649 291.421Z" fill="#021754"/>
<path d="M769.626 284.245L768.174 283.511C768.468 282.924 775.512 268.965 784.481 261.773C793.385 254.646 798.717 251.955 798.929 251.841L799.663 253.293C799.663 253.293 794.249 256.032 785.508 263.028C776.817 269.992 769.707 284.066 769.642 284.212L769.626 284.245Z" fill="#021754"/>
<path d="M1029.85 166.673L943.22 190.341L943.65 191.914L1030.28 168.246L1029.85 166.673Z" fill="#021754"/>
<path d="M687.261 557.662C686.918 556.455 653.408 436.43 649.543 396.899C645.418 354.793 651.011 328.39 668.834 305.739C687.179 282.418 736.947 271.721 739.067 271.28L739.41 272.878C738.904 272.993 688.109 283.903 670.123 306.75C652.593 329.043 647.114 355.119 651.19 396.753C655.039 436.136 688.516 556.031 688.859 557.238L687.293 557.678L687.261 557.662Z" fill="#021754"/>
<path d="M467.056 109.214C467.056 109.214 467.186 102.87 459.799 100.179C452.412 97.4883 444.634 113.845 444.438 124.005C444.242 134.165 449.037 141.878 455.298 139.465C461.544 137.051 462.946 129.452 462.946 129.452L600.835 119.504L661.089 146.118C661.089 146.118 669.992 134.866 674.297 105.724C678.602 76.5817 665.394 54.7292 664.154 54.7129C662.915 54.6803 593.775 100.31 593.775 100.31L467.072 109.214H467.056Z" fill="#83C7FF"/>
<path d="M564.325 88.6984C564.325 88.6984 560.737 96.2653 560.998 101.011C561.259 105.773 567.847 106.8 568.972 102.772C568.972 102.772 569.559 105.577 573.929 105.218C578.3 104.876 579.05 100.293 579.05 100.293C579.05 100.293 578.577 106.621 583.713 106.115C588.85 105.626 591.557 90.2966 591.557 90.2966L564.341 88.6821L564.325 88.6984Z" fill="#52A1FF"/>
<path d="M520.558 143.297C520.558 143.297 527.178 107.371 531.157 104.827C535.136 102.283 540.387 102.381 540.387 102.381C540.387 102.381 537.614 94.5529 531.858 95.0421C531.858 95.0421 532.755 92.3024 530.162 90.003C527.57 87.7036 522.303 88.9104 522.303 88.9104C522.303 88.9104 513.546 82.6971 508.051 87.5731L491.923 95.2867C491.923 95.2867 478.65 124.836 473.334 152.886C468.018 180.935 465.572 186.333 465.572 186.333L511.084 190.981L520.558 143.297Z" fill="#52A1FF"/>
<path d="M405.27 271.574C395.355 271.574 386.403 266.682 379.945 257.696C364.682 236.464 359.529 180.838 359.317 178.473L360.948 178.326C360.997 178.897 366.264 235.876 381.282 256.75C387.675 265.638 396.643 270.319 406.427 269.927C418.331 269.454 430.056 261.561 437.785 248.792C453.603 222.7 464.12 194.65 470.92 160.534C478.829 120.808 489.265 97.7818 497.467 82.1589C505.213 67.4003 515.095 56.0827 520.965 55.251C522.27 55.0716 523.395 55.4141 524.194 56.2458C527.325 59.491 522.074 67.8733 514.329 79.3703C512.421 82.2078 510.611 84.8823 509.29 87.1002C503.974 95.9879 498.397 114.057 498.332 114.236L496.766 113.763C496.995 113.013 502.474 95.3193 507.887 86.2685C509.225 84.018 511.051 81.3272 512.975 78.4733C517.949 71.1022 525.466 59.9477 523.02 57.3873C522.58 56.9307 521.993 56.7676 521.194 56.8818C516.611 57.5341 507.023 67.4493 498.902 82.9254C490.749 98.4504 480.378 121.347 472.502 160.86C465.669 195.172 455.07 223.385 439.171 249.64C431.148 262.882 418.935 271.069 406.476 271.574C406.069 271.574 405.677 271.591 405.286 271.591L405.27 271.574Z" fill="#021754"/>
<path d="M520.378 90.7529L517.802 88.0784C516.008 86.203 511.198 87.4587 509.502 88.0784L508.931 86.5455C509.225 86.4313 516.073 83.9036 518.976 86.9205L521.552 89.595L520.378 90.7203V90.7529Z" fill="#021754"/>
<path d="M510.79 115.019L509.176 114.742C509.355 113.649 513.888 87.9319 524.944 88.1276C527.749 88.1765 529.787 89.0082 531.027 90.5737C532.788 92.8079 532.184 95.6781 532.152 95.7923L530.554 95.4498C530.554 95.4498 531.01 93.183 529.738 91.5685C528.825 90.4107 527.195 89.791 524.912 89.742C524.879 89.742 524.83 89.742 524.797 89.742C515.193 89.742 510.823 114.742 510.79 115.003V115.019Z" fill="#021754"/>
<path d="M519.954 115.231L518.356 114.905C518.47 114.302 521.389 100.179 526.917 96.2164C530.146 93.8844 532.657 94.0148 534.19 94.5204C536.228 95.2053 537.843 96.9992 538.609 99.4617L537.06 99.9509C536.457 97.994 535.217 96.5915 533.685 96.0696C532.005 95.5152 529.999 96.0207 527.879 97.5373C522.873 101.141 520.003 115.101 519.971 115.231H519.954Z" fill="#021754"/>
<path d="M428.311 93.346C426.974 93.346 425.686 92.9383 424.463 92.1392C417.973 87.8666 415.445 73.4668 415.347 72.8471L416.962 72.5698C416.994 72.7166 419.473 86.8881 425.376 90.7694C426.729 91.6663 428.115 91.9109 429.632 91.5521C438.796 89.318 438.584 73.532 438.584 73.3689L440.215 73.3363C440.215 74.0375 440.443 90.6063 430.023 93.134C429.452 93.2645 428.898 93.346 428.344 93.346H428.311Z" fill="#021754"/>
<path d="M475.062 92.0412C474.801 92.0412 474.557 92.0412 474.296 92.0086C462.62 91.0791 462.131 73.4014 462.115 72.6349L463.745 72.6023C463.745 72.7654 464.218 89.5625 474.426 90.3778C476.448 90.5572 478.177 89.9702 479.677 88.6166C484.846 84.0178 485.319 72.2435 485.319 72.1294L486.95 72.1946C486.933 72.7002 486.444 84.7843 480.753 89.8397C479.106 91.3074 477.198 92.0412 475.062 92.0412Z" fill="#021754"/>
<path d="M582.849 107.012C582.001 107.012 581.284 106.832 580.68 106.457C579.196 105.544 578.707 103.701 578.479 102.397C578.218 100.961 578.137 99.2492 578.039 97.439C577.729 91.6823 580.159 85.5017 584.676 80.4789C589.144 75.505 595.634 78.261 595.699 78.2936L595.047 79.7939C594.818 79.6961 589.551 77.4945 585.882 81.5715C581.642 86.2681 579.376 92.0248 579.669 97.3575C579.767 99.1187 579.849 100.782 580.093 102.119C580.371 103.701 580.843 104.647 581.545 105.071C582.262 105.511 583.371 105.495 584.887 105.038C587.839 104.142 588.915 98.7273 589.779 94.3731C590.481 90.8343 591.051 88.0294 592.519 87.1977L593.318 88.6165C592.486 89.0894 591.899 92.0574 591.378 94.683C590.367 99.7058 589.225 105.397 585.36 106.588C584.431 106.881 583.599 107.012 582.849 107.012Z" fill="#021754"/>
<path d="M573.815 106.05C573.212 106.05 572.543 105.985 571.81 105.838C570.212 105.528 569.054 104.696 568.369 103.392C566.738 100.293 567.798 94.6832 571.695 85.7465C575.723 76.5163 584.447 74.4941 584.806 74.4126L585.165 76.0108C585.083 76.0271 576.865 77.9677 573.196 86.3988C569.608 94.618 568.483 100.081 569.82 102.641C570.277 103.506 571.027 104.044 572.136 104.256C577.174 105.234 578.267 101.696 578.316 101.549L579.881 101.989C579.881 101.989 578.691 106.066 573.832 106.066L573.815 106.05Z" fill="#021754"/>
<path d="M564.374 106.767C563.982 106.767 563.591 106.719 563.216 106.604C562.172 106.295 561.39 105.544 560.933 104.403C559.237 100.081 560.362 96.9991 563.738 87.883L564.374 86.1544C568.287 75.4891 574.207 73.5647 574.468 73.4995L574.957 75.0651C574.957 75.0651 569.527 76.9078 565.907 86.7252L565.271 88.4538C561.977 97.3742 560.982 100.065 562.466 103.816C562.727 104.484 563.118 104.876 563.673 105.039C565.385 105.544 568.238 103.865 569.184 103.18L570.146 104.501C569.788 104.762 566.934 106.767 564.374 106.767Z" fill="#021754"/>
<path d="M546.583 96.8683C545.36 96.8683 544.219 96.3954 543.191 95.4658C542.066 94.4547 541.577 93.0196 541.756 91.3399C542.327 86.0399 549.535 78.6688 554.052 76.1084C559.743 72.8795 572.299 69.3733 572.821 69.2265C573 69.1287 580.24 65.8997 593.677 69.6179C607.277 73.3687 611.5 88.5839 611.679 89.2362L610.098 89.6602C610.065 89.5135 605.923 74.706 593.236 71.1998C580.354 67.6447 573.44 70.7432 573.375 70.7758C573.13 70.8573 560.346 74.4287 554.851 77.5435C550.578 79.9734 543.876 86.9042 543.371 91.5356C543.24 92.7261 543.534 93.623 544.268 94.2754C545.148 95.0581 546.061 95.3843 547.089 95.2212C549.551 94.8461 552.617 91.7476 555.731 86.5128C558.601 81.6857 566.021 81.2291 566.33 81.2128L566.412 82.8436C566.412 82.8436 559.547 83.2676 557.117 87.3445C554.736 91.3563 551.1 96.2649 547.317 96.8357C547.056 96.8683 546.811 96.9009 546.567 96.9009L546.583 96.8683Z" fill="#021754"/>
<path d="M661.562 148.531C661.431 148.287 648.842 124.135 650.718 95.4168C652.593 66.6499 664.383 53.7667 664.888 53.2285L666.078 54.3374C665.964 54.4679 654.191 67.3837 652.348 95.5147C650.506 123.76 662.882 147.52 663.013 147.749L661.578 148.515L661.562 148.531Z" fill="#021754"/>
<path d="M456.538 133.398C454.646 133.398 452.983 132.468 451.58 130.626C449.64 128.098 448.971 124.429 449.624 119.993C450.537 113.828 453.912 107.224 457.5 104.663C459.082 103.522 460.631 103.196 462.082 103.685C465.115 104.696 466.485 109.001 466.55 109.181L465.001 109.67C464.675 108.643 463.435 105.854 461.576 105.234C460.631 104.924 459.62 105.169 458.462 106.001C455.249 108.3 452.086 114.562 451.254 120.254C450.847 123.026 450.798 126.924 452.885 129.647C453.994 131.082 455.266 131.783 456.587 131.767C460.06 131.734 463.403 127.315 463.435 127.266L464.74 128.245C464.577 128.457 460.875 133.382 456.587 133.414H456.538V133.398Z" fill="#021754"/>
<path d="M409.64 330.918C383.027 330.918 356.627 316.551 339.244 291.633C320.801 265.182 317.36 222.7 315.289 197.308C315.061 194.422 314.833 191.748 314.621 189.334L316.251 189.187C316.463 191.601 316.692 194.275 316.92 197.178C318.958 222.39 322.383 264.611 340.581 290.703C361.127 320.172 394.475 334.604 425.539 327.494C458.446 319.96 481.699 294.34 498.69 246.868C510.431 214.089 523.411 125.766 523.542 124.869L525.156 125.097C525.026 125.994 512.013 214.481 500.223 247.406C483.02 295.449 459.391 321.411 425.897 329.076C420.516 330.315 415.07 330.902 409.623 330.902L409.64 330.918Z" fill="#021754"/>
<path d="M417.5 102.364C417.5 102.364 425.588 121.787 420.728 125.831C415.869 129.876 411.825 128.261 411.026 121.787C410.227 115.313 417.5 102.364 417.5 102.364Z" fill="#83C7FF"/>
<path d="M432.061 167.106C432.061 167.106 440.15 186.529 435.29 190.573C430.431 194.618 426.387 193.003 425.588 186.529C424.772 180.055 432.061 167.106 432.061 167.106Z" fill="#83C7FF"/>
<path d="M406.982 219.715C406.982 219.715 415.07 239.138 410.21 243.182C405.351 247.227 401.307 245.612 400.508 239.138C399.693 232.664 406.982 219.715 406.982 219.715Z" fill="#83C7FF"/>
<path d="M432.061 353.244C432.061 353.244 440.15 372.666 435.29 376.711C430.431 380.755 426.387 379.14 425.588 372.666C424.772 366.192 432.061 353.244 432.061 353.244Z" fill="#83C7FF"/>
<path d="M404.797 312.083C404.797 312.083 412.885 331.506 408.025 335.55C403.166 339.594 399.122 337.98 398.323 331.506C397.508 325.031 404.797 312.083 404.797 312.083Z" fill="#83C7FF"/>
<path d="M396.79 437.131C396.79 437.131 404.878 456.554 400.035 460.598C395.176 464.643 391.132 463.028 390.333 456.554C389.517 450.08 396.806 437.131 396.806 437.131H396.79Z" fill="#83C7FF"/>
<path d="M449.999 537.913L448.042 548.399L447.814 549.557L444.047 569.779L443.786 571.116L440.997 586.054L439.579 593.67L435.975 612.946L435.796 613.843L432.012 634.064L431.833 635.108L428.05 655.313L427.789 656.667L425.49 668.979H326.737L325.497 656.977L325.367 655.77L323.214 635.108L323.117 633.999L321.013 613.777L320.899 612.652L318.812 592.447L318.665 591.093L316.594 571.132L316.463 569.779L314.36 549.639L314.262 548.546L312.941 535.924L333.064 536.201L334.205 536.234L353.985 536.511L355.175 536.544L375.021 536.821L376.342 536.853L396.888 537.147L398.144 537.163L418.315 537.457L419.391 537.473L440.427 537.783H441.307L449.999 537.913Z" fill="#83C7FF"/>
<path d="M441.144 549.655L447.814 549.557L448.026 548.399L441.144 548.562C441.177 545.219 441.242 541.484 441.307 537.783H440.427C440.378 541.012 440.313 544.73 440.231 548.595L436.187 548.693L419.391 548.269C419.391 544.909 419.391 541.175 419.375 537.456H418.299C418.282 540.685 418.25 544.404 418.217 548.285C415.233 548.35 406.362 548.529 398.193 548.66C398.193 545.105 398.16 541.109 398.127 537.163H396.872V548.693C392.159 548.774 387.805 548.823 385.131 548.823C382.946 548.823 379.848 548.823 376.325 548.79V536.853H375.004C375.021 540.327 375.037 544.485 375.07 548.774C368.694 548.742 361.127 548.66 354.866 548.611C354.931 544.877 355.029 540.685 355.143 536.543H353.953C353.953 540.049 353.92 544.241 353.904 548.611C347.283 548.546 342.375 548.497 342.375 548.497L334.319 548.399C334.287 544.632 334.221 540.392 334.173 536.233H333.031C333.031 539.74 333.031 543.98 333.015 548.383L325.139 548.285L314.229 548.562L314.344 549.655L323.785 549.508H333.015C332.998 556.765 332.982 564.381 332.966 569.876L325.139 569.73L316.431 569.779L316.578 571.132L323.785 571.165C323.785 571.165 327.683 571.083 332.966 570.985C332.966 575.16 332.95 577.9 332.95 577.9L332.852 591.272L325.155 591.174L318.649 591.093L318.795 592.446L323.85 592.528C323.85 592.528 327.666 592.512 332.852 592.495L332.248 603.552L332.297 612.44L325.188 612.538L320.866 612.652L320.98 613.777H323.834C323.834 613.777 327.389 613.712 332.281 613.63L332.346 624.932C332.346 624.932 332.46 628.846 332.607 634.129L325.188 633.982H323.084L323.198 635.108H323.85C323.85 635.108 327.568 635.206 332.656 635.32C332.819 641.859 333.031 650.078 333.096 655.721L325.351 655.77L325.481 656.976C327.112 656.944 329.851 656.911 333.113 656.862C333.113 657.857 333.113 658.738 333.113 659.488C333.113 661.853 333.113 665.179 333.096 668.979H334.303C334.238 664.853 334.189 660.629 334.14 656.83C340.467 656.732 348.408 656.634 354.05 656.585V659.472C354.05 661.836 354.034 665.179 354.018 668.963H355.127C355.224 664.755 355.339 660.434 355.436 656.569C356.562 656.569 357.556 656.569 358.404 656.569C362.187 656.569 368.4 656.601 375.086 656.65C375.086 657.727 375.086 658.672 375.07 659.488C375.07 661.853 375.07 665.179 375.102 668.979H376.407V656.667C383.663 656.716 391.327 656.781 396.953 656.83V659.488C396.953 661.853 396.953 665.179 396.953 668.979H398.241C398.225 664.853 398.193 660.629 398.176 656.83C402.579 656.862 405.465 656.895 405.465 656.895L418.413 656.993V659.488C418.413 661.853 418.396 665.179 418.364 668.979H419.44C419.44 664.902 419.424 660.727 419.408 656.976L427.805 656.683L428.05 655.329L419.408 655.444C419.391 648.627 419.375 643.523 419.375 643.523L419.489 634.798L431.05 635.108H431.833L432.029 634.064L419.489 633.982L419.587 626.285L419.75 613.859H435.812L435.975 612.945L419.75 612.538L419.799 608.754L419.587 592.61L431.034 592.186L439.514 592.316L439.579 593.67L441.014 586.054C441.03 582.042 441.046 576.448 441.063 571.1H443.802L444.047 569.762H441.063C441.063 564.919 441.079 560.402 441.079 557.646C441.079 555.623 441.095 552.835 441.144 549.655ZM405.4 549.394L418.217 549.296C418.152 556.569 418.07 564.201 418.005 569.746C416.179 569.811 412.526 570.023 408.237 570.007C405.09 570.007 401.601 569.942 398.241 569.86V557.662C398.241 555.591 398.241 552.704 398.225 549.41C402.563 549.394 405.4 549.377 405.4 549.377V549.394ZM418.136 591.174C415.07 591.158 406.313 591.125 398.241 591.093V570.806C402.579 570.822 405.4 570.839 405.4 570.839L418.005 570.936C417.956 575.144 417.924 577.9 417.924 577.9L418.136 591.174ZM334.417 557.662C334.417 555.607 334.401 552.753 334.368 549.492C340.614 549.492 348.376 549.492 353.936 549.492C353.904 556.781 353.871 564.381 353.838 569.893C347.267 569.958 342.407 570.039 342.407 570.039L334.287 569.893C334.368 564.984 334.417 560.434 334.417 557.662ZM334.27 570.969C340.5 570.855 348.245 570.724 353.822 570.676C353.806 575.046 353.789 577.916 353.789 577.916V591.305C347.251 591.37 342.407 591.419 342.407 591.419L333.895 591.305C333.944 589.087 334.14 579.677 334.27 570.969ZM353.985 634.39C347.365 634.358 342.456 634.325 342.456 634.325L333.993 634.162L334.042 626.301L333.569 613.614C339.961 613.516 348.196 613.402 354.001 613.369L353.936 624.948C353.936 624.948 353.953 628.992 353.969 634.406L353.985 634.39ZM342.456 655.656L334.124 655.721C334.026 648.774 333.928 643.523 333.928 643.523L333.977 635.352C340.304 635.499 348.294 635.646 353.985 635.727C354.001 642.153 354.034 650.127 354.05 655.639C347.397 655.656 342.456 655.672 342.456 655.672V655.656ZM354.001 612.358C347.381 612.342 342.456 612.326 342.456 612.326L333.537 612.44L333.39 608.771L333.912 592.479C340.19 592.463 348.164 592.43 353.855 592.414L354.05 603.552L354.001 612.358ZM354.784 557.662C354.784 555.607 354.817 552.753 354.882 549.492H358.339C362.122 549.492 368.368 549.492 375.102 549.475C375.151 556.667 375.216 564.169 375.265 569.681C368.857 569.73 361.225 569.827 354.931 569.893C354.849 564.984 354.8 560.434 354.784 557.662ZM354.947 570.659C356.252 570.659 357.41 570.643 358.355 570.643C362.171 570.643 368.498 570.675 375.282 570.708C375.314 575.062 375.347 577.916 375.347 577.916L375.249 591.126C368.987 591.158 361.551 591.223 355.339 591.289C355.29 589.022 355.094 579.416 354.964 570.659H354.947ZM375.102 655.574C368.906 655.59 361.6 655.607 355.469 655.623C355.648 648.725 355.811 643.523 355.811 643.523L355.616 635.744C356.659 635.744 357.605 635.76 358.404 635.76C362.236 635.76 368.563 635.727 375.347 635.662C375.249 642.087 375.151 650.046 375.102 655.574ZM375.494 624.932C375.494 624.932 375.428 629.025 375.347 634.488C369.134 634.472 361.763 634.423 355.567 634.39L355.371 626.285L355.534 613.337C356.611 613.337 357.589 613.337 358.388 613.337C362.253 613.337 368.645 613.369 375.477 613.435V624.932H375.494ZM375.494 612.424C369.248 612.424 361.796 612.391 355.551 612.375L355.6 608.787L355.388 592.43H358.404C362.22 592.43 368.531 592.43 375.298 592.414L375.494 603.568V612.44V612.424ZM376.358 557.662C376.358 555.607 376.358 552.737 376.358 549.475C383.614 549.459 391.278 549.443 396.904 549.41V569.811C392.192 569.713 387.854 569.599 385.163 569.599C382.978 569.599 379.896 569.615 376.374 569.648C376.374 564.837 376.358 560.369 376.358 557.646V557.662ZM376.391 570.708C383.631 570.741 391.278 570.773 396.904 570.806C396.904 575.095 396.904 577.916 396.904 577.916L397.198 591.109C392.371 591.093 387.887 591.077 385.147 591.077C382.978 591.077 379.929 591.093 376.439 591.109C376.439 588.581 376.407 579.237 376.374 570.708H376.391ZM396.97 655.721C392.241 655.639 387.903 655.558 385.229 655.558C383.027 655.558 379.929 655.558 376.423 655.558V643.506L376.668 635.63C383.875 635.564 391.474 635.467 397.051 635.418C397.035 641.941 397.002 650.111 396.986 655.721H396.97ZM397.018 634.406C392.273 634.488 387.903 634.537 385.212 634.537C383.076 634.537 380.092 634.537 376.684 634.521L376.929 626.301L377.092 613.451C384.169 613.5 391.539 613.549 397.002 613.598L397.051 624.948C397.051 624.948 397.051 628.992 397.018 634.406ZM396.953 603.552L396.986 612.44C392.257 612.44 387.887 612.424 385.212 612.424C383.158 612.424 380.337 612.424 377.092 612.424L377.141 608.787L376.521 592.414C383.859 592.398 391.621 592.381 397.23 592.349L396.937 603.568L396.953 603.552ZM407.536 655.819C404.552 655.819 401.291 655.786 398.144 655.737C398.111 648.79 398.078 643.523 398.078 643.523L398.323 635.401C402.628 635.352 405.449 635.32 405.449 635.32L413.325 635.01L418.201 634.814C418.266 641.321 418.364 649.687 418.396 655.46C416.619 655.525 412.445 655.802 407.536 655.819ZM398.535 613.598C402.726 613.63 405.449 613.663 405.449 613.663L418.25 613.859L418.087 624.948C418.087 624.948 418.136 628.797 418.201 634.031C415.151 634.097 406.427 634.26 398.356 634.39L398.6 626.301L398.535 613.614V613.598ZM418.266 612.538C415.298 612.505 406.607 612.472 398.519 612.456V608.787L398.29 592.349C402.612 592.332 405.449 592.316 405.449 592.316L418.201 592.626L418.396 603.568L418.266 612.538ZM439.546 577.9L439.432 590.995L436.203 590.962L419.522 591.174C419.522 588.777 419.473 579.514 419.456 570.953L430.985 571.067L439.726 571.1C439.628 575.225 439.563 577.9 439.563 577.9H439.546ZM439.742 569.795H436.203L419.44 569.713C419.44 564.87 419.424 560.385 419.408 557.646C419.408 555.542 419.408 552.623 419.408 549.28L430.985 549.802L440.215 549.655C440.068 556.83 439.889 564.332 439.742 569.779V569.795Z" fill="#52A1FF"/>
<path d="M384.332 536.935C384.332 536.935 401.976 510.908 423.99 520.921C446.004 530.917 434.997 619.958 458.005 645.969C481.014 671.98 516.024 668.979 516.024 668.979C516.024 668.979 496.016 655.966 489.021 629.955C482.025 603.944 489.021 548.921 478.014 522.91C467.007 496.899 429.99 484.897 403.981 494.893C377.972 504.89 375.167 536.821 375.167 536.821L384.332 536.918V536.935Z" fill="#3465E0"/>
<path d="M374.972 536.918C374.972 536.918 363.965 506.912 340.956 504.906C317.947 502.9 321.943 555.933 314.947 596.948C307.951 637.962 279.937 674.981 230.919 677.981C230.919 677.981 270.935 654.971 279.937 611.951C284.812 588.68 278.942 529.922 293.944 504.906C308.946 479.89 341.967 484.897 357.964 497.91C373.977 510.924 377.092 527.362 377.092 527.362L374.972 536.918Z" fill="#3465E0"/>
<path d="M493.847 667.593C463.811 646.866 462.881 607.45 462.066 572.682C461.413 544.893 460.843 520.888 445.612 512.62C411.548 494.127 384.348 520.089 384.071 520.35L382.929 519.192C383.207 518.915 411.254 492.121 446.395 511.201C462.457 519.926 463.044 544.371 463.713 572.665C464.528 607.042 465.441 646.018 494.793 666.272L493.864 667.609L493.847 667.593Z" fill="#021754"/>
<path d="M246.736 667.137L246.117 665.62C246.41 665.506 274.93 653.454 286.671 621.181C291.123 608.918 292.379 591.68 293.683 573.432C295.884 543.018 298.151 511.576 316.023 500.715C344.332 483.527 371.841 518.572 372.118 518.915L370.83 519.91C370.569 519.567 343.94 485.679 316.871 502.101C299.717 512.522 297.483 543.54 295.314 573.546C293.993 591.909 292.737 609.26 288.204 621.736C276.219 654.71 247.03 667.006 246.736 667.137Z" fill="#021754"/>
<path d="M382.978 538.924C382.978 538.924 363.704 426.645 392.404 401.074C421.087 375.504 443.003 426.873 443.003 426.873C443.003 426.873 439.823 380.575 401.65 386.56C354.98 393.866 370.977 512.913 370.977 512.913L382.978 538.924Z" fill="#3465E0"/>
<path d="M423.957 400.194C433.757 392.839 441.063 387.881 460.729 402.493C480.394 417.105 489.07 439.12 481.732 441.599C474.394 444.078 465.767 431.863 465.767 431.863C465.767 431.863 470.757 453.895 462.18 452.705C453.603 451.514 443.753 439.316 443.753 439.316C443.753 439.316 442.873 471.524 433.529 458.527C424.185 445.529 411.548 409.522 423.973 400.194H423.957Z" fill="#0641B7"/>
<path d="M1132.89 596.002C1132.89 596.002 1113.32 554.76 1047.38 535.272C981.417 515.784 892.382 538.387 867.058 573.236C841.734 608.086 843.381 638.239 870.906 661.625C898.432 685.01 1050.21 676.759 1090.59 666.582C1130.97 656.406 1148.22 634.195 1132.89 596.002Z" fill="#52A1FF"/>
<path d="M889.887 610.011L888.273 609.783C888.991 604.89 894.502 578.423 897.959 576.025C898.367 575.748 898.84 575.683 899.296 575.862C902.427 577.053 906.879 593.882 908.493 600.406C910.059 599.965 913.548 599.574 922.077 599.59C928.942 599.623 936.215 599.949 938.351 600.047C941.629 590.001 947.336 573.889 950.402 573.824C953.483 573.824 956.174 592.089 957.87 607.434L956.256 607.614C954.625 592.953 951.983 577.134 950.336 575.487C948.591 576.482 943.471 589.447 939.688 601.139L939.492 601.726L938.873 601.694C938.791 601.694 930.149 601.254 922.061 601.205C911.086 601.156 908.819 601.857 908.379 602.167L907.401 602.852L907.124 601.694C904.433 590.653 900.519 578.39 898.791 577.411C896.378 579.531 890.996 602.313 889.887 609.994V610.011Z" fill="#021754"/>
<path d="M1129.94 645.48C1129.94 645.48 1131.99 673.562 1098.19 684.244C1064.39 694.925 1011.24 688.989 989.277 691.435C967.312 693.882 944.482 692.707 949.048 676.416C953.614 660.124 980.471 651.579 1015.51 652.884C1050.56 654.188 1099.61 655.199 1111.51 649.948C1123.42 644.697 1126.29 638.647 1126.29 638.647L1129.94 645.48Z" fill="#52A1FF"/>
<path d="M948.64 676.726C948.64 676.123 948.64 661.984 974.633 656.015C992.913 651.808 1013.31 652.183 1039.13 652.672C1049.58 652.868 1061.43 653.08 1074.28 653.014C1117.5 652.77 1122.6 642.072 1122.65 641.974L1124.15 642.61C1123.94 643.099 1118.57 654.384 1074.3 654.645C1061.42 654.711 1049.56 654.499 1039.11 654.303C1013.39 653.83 993.092 653.455 975.008 657.613C950.287 663.288 950.271 676.563 950.271 676.693L948.64 676.726Z" fill="#021754"/>
<path d="M886.626 662.473C886.626 662.473 930.1 684.619 926.316 695.692C922.533 706.781 879.076 684.635 865.705 666.892C852.333 649.149 850.605 631.423 850.605 631.423L886.626 662.473Z" fill="#52A1FF"/>
<path d="M863.569 654.874C863.569 654.874 836.907 651.954 834.102 662.016C831.298 672.078 883.332 672.029 883.332 672.029L863.569 654.857V654.874Z" fill="#52A1FF"/>
<path d="M904.091 673.432C892.154 664.838 881.31 649.688 881.196 649.524L882.517 648.579C882.631 648.725 893.328 663.663 905.036 672.095L904.091 673.415V673.432Z" fill="#021754"/>
<path d="M869.341 672.258C862.296 665.245 857.502 655.298 857.307 654.874L858.774 654.172C858.823 654.27 863.634 664.283 870.482 671.1L869.325 672.258H869.341Z" fill="#021754"/>
<path d="M934.535 655.705H887.751V657.336H934.535V655.705Z" fill="#021754"/>
<path d="M939.59 626.775C938.661 626.775 937.813 626.465 937.046 625.862C933.703 623.236 933.41 616.077 933.41 615.996L935.041 615.963C935.073 617.659 935.856 622.845 938.057 624.573C938.71 625.079 939.427 625.242 940.259 625.063C944.596 624.101 945.412 615.751 945.428 615.669L947.059 615.816C947.026 616.208 946.113 625.454 940.618 626.661C940.275 626.742 939.933 626.775 939.607 626.775H939.59Z" fill="#021754"/>
<path d="M907.221 626.906C906.439 626.906 905.705 626.661 905.02 626.172C901.791 623.856 900.943 616.534 900.911 616.224L902.525 616.045C902.737 617.969 903.781 623.285 905.966 624.851C906.504 625.242 907.091 625.373 907.743 625.226C912.081 624.264 912.896 615.914 912.912 615.833L914.543 615.979C914.51 616.371 913.614 625.617 908.102 626.824C907.808 626.889 907.515 626.922 907.238 626.922L907.221 626.906Z" fill="#021754"/>
<path d="M918.995 638.892L917.364 638.745C917.397 638.353 918.294 629.107 923.805 627.9C924.882 627.656 925.941 627.868 926.92 628.504C930.409 630.77 931.926 638.093 931.975 638.402L930.377 638.729C929.985 636.804 928.436 631.439 926.023 629.873C925.42 629.482 924.8 629.352 924.148 629.498C919.81 630.461 918.995 638.81 918.978 638.908L918.995 638.892Z" fill="#021754"/>
<path d="M944.058 632.303C944.058 632.303 950.287 643.181 947.336 646.246C944.384 649.312 941.368 648.366 941.253 642.365C941.139 636.364 944.058 632.303 944.058 632.303Z" fill="#83C7FF"/>
<path d="M929.399 624.541C929.399 624.541 928.812 622.6 924.637 622.698C920.462 622.796 919.386 624.198 919.403 625.307C919.419 626.416 923.919 628.552 925.028 628.259C926.137 627.965 929.447 626.498 929.399 624.557V624.541Z" fill="#021754"/>
<path d="M1012.74 652.232C1012.64 652.003 1003.28 628.748 1017.94 607.32C1032.59 585.924 1066.85 584.978 1067.19 584.978L1067.22 586.609C1066.88 586.609 1033.47 587.538 1019.3 608.249C1005.13 628.96 1014.16 651.384 1014.26 651.612L1012.76 652.232H1012.74Z" fill="#021754"/>
</g>
<defs>
<clipPath id="clip0_5_251">
<rect width="1223" height="740" fill="white"/>
</clipPath>
</defs>
</svg>
