<svg width="766" height="541" viewBox="0 0 766 541" fill="none" xmlns="http://www.w3.org/2000/svg">
<g clip-path="url(#clip0_2_3805)">
<path d="M383 541C594.525 541 766 522.793 766 500.333C766 477.873 594.525 459.666 383 459.666C171.475 459.666 0 477.873 0 500.333C0 522.793 171.475 541 383 541Z" fill="#CFEEFF"/>
<path d="M679.637 75.7126L58.7185 77.5583L58.7221 78.7587L679.64 76.913L679.637 75.7126Z" fill="#021754"/>
<path d="M612.965 195.389C611.132 195.461 608.904 195.521 606.472 195.509C603.249 195.509 599.678 195.437 596.216 195.365C596.216 190.348 596.216 185.679 596.216 182.834C596.216 180.709 596.216 177.745 596.204 174.36C600.649 174.36 603.572 174.348 603.572 174.348L612.558 174.276V173.303C608.293 173.387 602.062 173.507 596.204 173.591C596.18 167.098 596.132 159.2 596.096 152.574C600.613 152.61 603.572 152.634 603.572 152.634L612.127 152.694L612.103 151.385C610.258 151.457 608.065 151.529 605.717 151.529C602.65 151.529 599.319 151.505 596.084 151.457C596.036 144.315 596.012 138.914 596.012 138.914L596.276 130.584C600.697 130.536 603.584 130.5 603.584 130.5L611.659 130.176H611.683V129.251C607.49 129.323 601.751 129.431 596.312 129.527L596.575 121.209L596.491 108.174C600.792 108.21 603.584 108.234 603.584 108.234L611.252 108.342L611.228 107.021C607.131 107.009 601.691 106.985 596.491 106.973L596.467 103.204L596.252 86.3276C600.685 86.3156 603.596 86.3036 603.596 86.3036L610.821 86.4717L610.797 85.1033C606.699 85.0913 601.32 85.0673 596.228 85.0553C596.228 83.4948 596.228 79.4137 596.228 74.5044H594.922L595.173 85.0433C590.225 85.0433 585.624 85.0193 582.821 85.0193C580.604 85.0193 577.465 85.0313 573.895 85.0673C573.895 83.4828 573.871 79.3177 573.847 74.3123H572.721L572.637 85.0793C566.215 85.1153 558.583 85.1873 552.209 85.2353C552.185 83.7829 552.101 79.3897 552.005 74.1203H550.64V85.2593C543.93 85.3193 538.97 85.3674 538.97 85.3674L530.236 85.2593C530.272 83.8069 530.368 79.3177 530.463 73.9282H529.289L529.193 85.2473L521.298 85.1393L513.39 85.0433L513.342 86.4236L519.932 86.5197C519.932 86.5197 523.85 86.5077 529.169 86.4837L528.558 97.8388L528.606 106.973L521.334 107.069L512.516 107.285L512.468 108.366L519.932 108.33C519.932 108.33 523.562 108.258 528.606 108.186L528.666 119.793C528.666 119.793 528.786 123.802 528.93 129.239L521.334 129.095L511.641 129.155L511.593 130.248H519.932C519.932 130.248 523.742 130.344 528.954 130.464C529.122 137.174 529.337 145.636 529.397 151.409L521.31 151.457L510.743 151.133L510.695 152.538L519.932 152.718C519.932 152.718 523.97 152.646 529.409 152.562C529.421 153.582 529.421 154.494 529.421 155.262C529.421 159.308 529.409 166.065 529.385 173.255L521.31 173.159L509.856 173.435L509.808 174.564L519.92 174.408H529.373C529.373 181.874 529.337 189.676 529.325 195.341L521.298 195.185L508.969 195.257L508.921 196.602L519.92 196.65C519.92 196.65 523.922 196.578 529.325 196.47C529.325 200.767 529.313 203.576 529.313 203.576V203.696H530.523C530.571 201.343 530.607 198.87 530.643 196.446C537.029 196.326 544.985 196.182 550.688 196.134C550.664 200.623 550.652 203.576 550.652 203.576V203.864H551.97C551.922 201.343 551.886 198.69 551.838 196.11C553.18 196.11 554.354 196.11 555.336 196.11C559.254 196.11 565.736 196.134 572.685 196.17C572.733 200.647 572.757 203.576 572.757 203.576V204.056H573.859C573.859 201.499 573.847 198.798 573.835 196.182C581.263 196.206 589.099 196.254 594.862 196.29V204.248H596.24V196.29C600.673 196.302 603.584 196.326 603.584 196.326L613.013 196.398L612.989 195.341L612.965 195.389ZM552.281 152.322C553.443 152.322 554.462 152.322 555.324 152.322C559.206 152.322 565.568 152.37 572.421 152.406C572.421 153.51 572.421 154.482 572.421 155.298C572.421 159.428 572.445 166.354 572.493 173.7C565.951 173.664 558.188 173.591 551.79 173.531C551.91 166.966 552.113 158.971 552.293 152.322H552.281ZM550.795 129.539C544.002 129.503 538.982 129.467 538.982 129.467L530.308 129.299L530.356 121.221L529.876 108.198C536.43 108.102 544.865 107.982 550.819 107.934L550.759 119.817C550.759 119.817 550.771 123.958 550.807 129.527L550.795 129.539ZM550.688 195.413C543.954 195.497 538.982 195.557 538.982 195.557L530.655 195.401C530.727 190.372 530.787 185.691 530.787 182.834C530.787 180.721 530.775 177.793 530.739 174.456C537.149 174.456 545.104 174.456 550.795 174.456C550.759 181.934 550.723 189.748 550.688 195.413ZM550.855 155.298C550.855 159.392 550.819 166.245 550.783 173.531C544.002 173.471 538.97 173.423 538.97 173.423L530.715 173.315C530.643 166.882 530.547 159.104 530.439 152.586C536.921 152.49 545.08 152.382 550.855 152.334V155.298ZM538.982 151.385L530.427 151.433C530.32 144.291 530.236 138.914 530.236 138.914L530.284 130.512C536.765 130.656 544.973 130.824 550.795 130.896C550.819 137.51 550.843 145.684 550.855 151.337C544.038 151.361 538.97 151.385 538.97 151.385H538.982ZM550.819 106.925C544.026 106.901 538.982 106.877 538.982 106.877L529.828 106.997L529.685 103.228L530.212 86.4957C536.658 86.4717 544.817 86.4476 550.652 86.4356L550.855 97.8628L550.807 106.913L550.819 106.925ZM551.814 195.401C551.73 190.36 551.67 185.691 551.67 182.834C551.67 180.721 551.706 177.793 551.766 174.456H555.312C559.194 174.456 565.592 174.456 572.493 174.444C572.541 181.826 572.601 189.544 572.661 195.185C566.095 195.245 558.26 195.329 551.814 195.413V195.401ZM572.433 151.301C566.083 151.301 558.595 151.337 552.317 151.349C552.521 144.267 552.676 138.926 552.676 138.926L552.473 130.932C553.551 130.932 554.521 130.944 555.336 130.944C559.254 130.944 565.748 130.896 572.697 130.836C572.601 137.426 572.493 145.612 572.445 151.289L572.433 151.301ZM572.853 119.829C572.853 119.829 572.781 124.03 572.697 129.659C566.335 129.635 558.775 129.587 552.425 129.551L552.221 121.221L552.389 107.922C553.503 107.922 554.486 107.922 555.324 107.922C559.278 107.922 565.832 107.97 572.853 108.006V119.829ZM572.853 106.985C566.443 106.973 558.799 106.949 552.401 106.925L552.449 103.24L552.233 86.4476C553.407 86.4476 554.45 86.4476 555.324 86.4476C559.242 86.4476 565.7 86.4476 572.649 86.4236L572.853 97.8748V106.985ZM582.809 195.125C580.568 195.125 577.417 195.137 573.799 195.173C573.787 190.228 573.775 185.643 573.775 182.846V174.444C581.215 174.432 589.063 174.396 594.826 174.384C594.826 181.85 594.826 189.676 594.826 195.341C589.998 195.233 585.529 195.113 582.797 195.125H582.809ZM594.838 155.298C594.838 159.404 594.838 166.305 594.838 173.615C590.01 173.688 585.553 173.748 582.821 173.748C580.58 173.748 577.405 173.748 573.787 173.712V152.406C581.227 152.454 589.075 152.514 594.862 152.574C594.862 153.594 594.862 154.518 594.862 155.298H594.838ZM594.85 151.457C590.01 151.385 585.553 151.289 582.809 151.289C580.568 151.289 577.393 151.289 573.775 151.289V138.926L574.027 130.836C581.419 130.764 589.195 130.68 594.91 130.608C594.898 137.306 594.862 145.696 594.85 151.445V151.457ZM594.922 129.551C590.057 129.623 585.565 129.683 582.809 129.683C580.628 129.683 577.561 129.683 574.063 129.671L574.326 121.233L574.482 108.03C581.731 108.078 589.291 108.138 594.886 108.186L594.946 119.841C594.946 119.841 594.934 123.994 594.91 129.563L594.922 129.551ZM594.838 97.8748L594.886 107.009C590.045 107.009 585.565 106.997 582.809 106.997C580.712 106.997 577.813 106.997 574.506 106.997L574.554 103.252L573.919 86.4356C581.455 86.4236 589.386 86.3876 595.149 86.3756L594.838 97.8868V97.8748Z" fill="#A78FFF"/>
<path d="M613.145 204.44L596.216 204.308L594.862 204.296L573.835 204.116L572.745 204.104L551.958 203.936L550.64 203.924L530.511 203.756H529.301L508.646 203.576L508.921 196.662L508.981 195.306L509.808 174.612L509.844 173.484L510.683 152.574L510.743 151.169L511.581 130.284L511.617 129.191L512.444 108.402L512.492 107.321L513.33 86.4477L513.378 85.0674L513.834 73.7963L529.265 73.9403L530.44 73.9523L550.616 74.1324L551.982 74.1444L572.697 74.3244L573.823 74.3364L594.886 74.5285L596.192 74.5405L610.545 74.6725L610.761 85.1394L610.785 86.5077L611.192 107.045L611.228 108.366L611.635 129.263L611.659 130.188L612.079 151.397L612.103 152.706L612.522 173.303L612.534 174.288L612.965 195.39L612.989 196.446L613.145 204.44Z" fill="#A4D6FF"/>
<path d="M612.965 195.389C611.132 195.461 608.904 195.521 606.472 195.509C603.249 195.509 599.678 195.437 596.216 195.365C596.216 190.348 596.216 185.679 596.216 182.834C596.216 180.709 596.216 177.745 596.204 174.36C600.649 174.36 603.572 174.348 603.572 174.348L612.558 174.276V173.303C608.293 173.387 602.062 173.507 596.204 173.591C596.18 167.098 596.132 159.2 596.096 152.574C600.613 152.61 603.572 152.634 603.572 152.634L612.127 152.694L612.103 151.385C610.258 151.457 608.065 151.529 605.717 151.529C602.65 151.529 599.319 151.505 596.084 151.457C596.036 144.315 596.012 138.914 596.012 138.914L596.276 130.584C600.697 130.536 603.584 130.5 603.584 130.5L611.659 130.176H611.683V129.251C607.49 129.323 601.751 129.431 596.312 129.527L596.575 121.209L596.491 108.174C600.792 108.21 603.584 108.234 603.584 108.234L611.252 108.342L611.228 107.021C607.131 107.009 601.691 106.985 596.491 106.973L596.467 103.204L596.252 86.3276C600.685 86.3156 603.596 86.3036 603.596 86.3036L610.821 86.4717L610.797 85.1033C606.699 85.0913 601.32 85.0673 596.228 85.0553C596.228 83.4948 596.228 79.4137 596.228 74.5044H594.922L595.173 85.0433C590.225 85.0433 585.624 85.0193 582.821 85.0193C580.604 85.0193 577.465 85.0313 573.895 85.0673C573.895 83.4828 573.871 79.3177 573.847 74.3123H572.721L572.637 85.0793C566.215 85.1153 558.583 85.1873 552.209 85.2353C552.185 83.7829 552.101 79.3897 552.005 74.1203H550.64V85.2593C543.93 85.3193 538.97 85.3674 538.97 85.3674L530.236 85.2593C530.272 83.8069 530.368 79.3177 530.463 73.9282H529.289L529.193 85.2473L521.298 85.1393L513.39 85.0433L513.342 86.4236L519.932 86.5197C519.932 86.5197 523.85 86.5077 529.169 86.4837L528.558 97.8388L528.606 106.973L521.334 107.069L512.516 107.285L512.468 108.366L519.932 108.33C519.932 108.33 523.562 108.258 528.606 108.186L528.666 119.793C528.666 119.793 528.786 123.802 528.93 129.239L521.334 129.095L511.641 129.155L511.593 130.248H519.932C519.932 130.248 523.742 130.344 528.954 130.464C529.122 137.174 529.337 145.636 529.397 151.409L521.31 151.457L510.743 151.133L510.695 152.538L519.932 152.718C519.932 152.718 523.97 152.646 529.409 152.562C529.421 153.582 529.421 154.494 529.421 155.262C529.421 159.308 529.409 166.065 529.385 173.255L521.31 173.159L509.856 173.435L509.808 174.564L519.92 174.408H529.373C529.373 181.874 529.337 189.676 529.325 195.341L521.298 195.185L508.969 195.257L508.921 196.602L519.92 196.65C519.92 196.65 523.922 196.578 529.325 196.47C529.325 200.767 529.313 203.576 529.313 203.576V203.696H530.523C530.571 201.343 530.607 198.87 530.643 196.446C537.029 196.326 544.985 196.182 550.688 196.134C550.664 200.623 550.652 203.576 550.652 203.576V203.864H551.97C551.922 201.343 551.886 198.69 551.838 196.11C553.18 196.11 554.354 196.11 555.336 196.11C559.254 196.11 565.736 196.134 572.685 196.17C572.733 200.647 572.757 203.576 572.757 203.576V204.056H573.859C573.859 201.499 573.847 198.798 573.835 196.182C581.263 196.206 589.099 196.254 594.862 196.29V204.248H596.24V196.29C600.673 196.302 603.584 196.326 603.584 196.326L613.013 196.398L612.989 195.341L612.965 195.389ZM552.281 152.322C553.443 152.322 554.462 152.322 555.324 152.322C559.206 152.322 565.568 152.37 572.421 152.406C572.421 153.51 572.421 154.482 572.421 155.298C572.421 159.428 572.445 166.354 572.493 173.7C565.951 173.664 558.188 173.591 551.79 173.531C551.91 166.966 552.113 158.971 552.293 152.322H552.281ZM550.795 129.539C544.002 129.503 538.982 129.467 538.982 129.467L530.308 129.299L530.356 121.221L529.876 108.198C536.43 108.102 544.865 107.982 550.819 107.934L550.759 119.817C550.759 119.817 550.771 123.958 550.807 129.527L550.795 129.539ZM550.688 195.413C543.954 195.497 538.982 195.557 538.982 195.557L530.655 195.401C530.727 190.372 530.787 185.691 530.787 182.834C530.787 180.721 530.775 177.793 530.739 174.456C537.149 174.456 545.104 174.456 550.795 174.456C550.759 181.934 550.723 189.748 550.688 195.413ZM550.855 155.298C550.855 159.392 550.819 166.245 550.783 173.531C544.002 173.471 538.97 173.423 538.97 173.423L530.715 173.315C530.643 166.882 530.547 159.104 530.439 152.586C536.921 152.49 545.08 152.382 550.855 152.334V155.298ZM538.982 151.385L530.427 151.433C530.32 144.291 530.236 138.914 530.236 138.914L530.284 130.512C536.765 130.656 544.973 130.824 550.795 130.896C550.819 137.51 550.843 145.684 550.855 151.337C544.038 151.361 538.97 151.385 538.97 151.385H538.982ZM550.819 106.925C544.026 106.901 538.982 106.877 538.982 106.877L529.828 106.997L529.685 103.228L530.212 86.4957C536.658 86.4717 544.817 86.4476 550.652 86.4356L550.855 97.8628L550.807 106.913L550.819 106.925ZM551.814 195.401C551.73 190.36 551.67 185.691 551.67 182.834C551.67 180.721 551.706 177.793 551.766 174.456H555.312C559.194 174.456 565.592 174.456 572.493 174.444C572.541 181.826 572.601 189.544 572.661 195.185C566.095 195.245 558.26 195.329 551.814 195.413V195.401ZM572.433 151.301C566.083 151.301 558.595 151.337 552.317 151.349C552.521 144.267 552.676 138.926 552.676 138.926L552.473 130.932C553.551 130.932 554.521 130.944 555.336 130.944C559.254 130.944 565.748 130.896 572.697 130.836C572.601 137.426 572.493 145.612 572.445 151.289L572.433 151.301ZM572.853 119.829C572.853 119.829 572.781 124.03 572.697 129.659C566.335 129.635 558.775 129.587 552.425 129.551L552.221 121.221L552.389 107.922C553.503 107.922 554.486 107.922 555.324 107.922C559.278 107.922 565.832 107.97 572.853 108.006V119.829ZM572.853 106.985C566.443 106.973 558.799 106.949 552.401 106.925L552.449 103.24L552.233 86.4476C553.407 86.4476 554.45 86.4476 555.324 86.4476C559.242 86.4476 565.7 86.4476 572.649 86.4236L572.853 97.8748V106.985ZM582.809 195.125C580.568 195.125 577.417 195.137 573.799 195.173C573.787 190.228 573.775 185.643 573.775 182.846V174.444C581.215 174.432 589.063 174.396 594.826 174.384C594.826 181.85 594.826 189.676 594.826 195.341C589.998 195.233 585.529 195.113 582.797 195.125H582.809ZM594.838 155.298C594.838 159.404 594.838 166.305 594.838 173.615C590.01 173.688 585.553 173.748 582.821 173.748C580.58 173.748 577.405 173.748 573.787 173.712V152.406C581.227 152.454 589.075 152.514 594.862 152.574C594.862 153.594 594.862 154.518 594.862 155.298H594.838ZM594.85 151.457C590.01 151.385 585.553 151.289 582.809 151.289C580.568 151.289 577.393 151.289 573.775 151.289V138.926L574.027 130.836C581.419 130.764 589.195 130.68 594.91 130.608C594.898 137.306 594.862 145.696 594.85 151.445V151.457ZM594.922 129.551C590.057 129.623 585.565 129.683 582.809 129.683C580.628 129.683 577.561 129.683 574.063 129.671L574.326 121.233L574.482 108.03C581.731 108.078 589.291 108.138 594.886 108.186L594.946 119.841C594.946 119.841 594.934 123.994 594.91 129.563L594.922 129.551ZM594.838 97.8748L594.886 107.009C590.045 107.009 585.565 106.997 582.809 106.997C580.712 106.997 577.813 106.997 574.506 106.997L574.554 103.252L573.919 86.4356C581.455 86.4236 589.386 86.3876 595.149 86.3756L594.838 97.8868V97.8748Z" fill="#E9F8FF"/>
<path d="M575.141 49.5736L572.553 100.576L561.327 101.488L562.189 49.5736H575.141Z" fill="#52A1FF"/>
<path d="M265.393 119.889C265.393 119.889 256.168 125.554 243.145 124.486C230.121 123.418 197.508 111.21 168.239 130.884C138.969 150.557 120.554 175.86 118.313 194.933C113.138 239.057 139.867 243.691 145.954 244.243C152.04 244.807 238.436 196.878 238.436 196.878L265.405 119.889H265.393Z" fill="#021754"/>
<path d="M422.921 71.6475C422.921 71.6475 425.353 33.4171 429.439 26.2391C433.512 19.0731 466.568 38.6265 466.568 38.6265L464.663 76.1247L422.921 71.6475Z" fill="#A4D6FF"/>
<path d="M417.11 64.2896L477.555 68.6108C477.555 68.6108 493.957 186.279 482.731 224.341C471.504 262.404 446.464 260.183 433.512 257.398C420.561 254.614 413.648 224.341 412.785 200.107C411.922 175.884 417.098 64.2776 417.098 64.2776L417.11 64.2896Z" fill="#0641B7"/>
<path d="M171.929 343.294C171.929 343.294 410.173 321.076 480.49 347.123C532.812 366.508 552.676 390.107 555.037 418.086C557.397 446.066 542.013 482.508 501.086 489.746C460.17 496.984 289.583 491.786 289.583 491.786L162.356 375.163L171.929 343.294Z" fill="#52A1FF"/>
<path d="M211.61 438.252C211.61 438.252 185.587 422.287 169.017 432.418C152.448 442.549 159.876 458.237 159.876 458.237C159.876 458.237 131.421 457.805 119.272 465.415C107.123 473.013 104.859 477.311 104.859 477.311C104.859 477.311 96.1123 476.314 91.6913 479.711C87.2703 483.108 89.4149 485.737 89.4149 485.737C89.4149 485.737 87.2104 486.565 87.1625 490.034C87.1145 493.491 88.1928 494.379 88.1928 494.379C88.1928 494.379 84.8741 496.924 87.0067 500.417C89.1393 503.91 101.204 502.361 106.692 501.581C112.179 500.801 214.006 498.016 214.006 498.016L222.585 437.58L211.634 438.276L211.61 438.252Z" fill="#A4D6FF"/>
<path d="M518.47 393.576C498.258 373.962 465.646 366.424 456.816 364.684C455.354 364.396 454.551 364.264 454.551 364.264L214.21 421.843L208.22 502.217C208.22 502.217 244.522 502.77 363.938 503.706C483.354 504.654 509.305 494.655 524.832 478.451C540.36 462.246 542.013 416.406 518.47 393.564V393.576Z" fill="#52A1FF"/>
<path d="M202.936 429.466C202.936 429.466 178.71 413.525 163.254 423.668C147.811 433.823 151.681 449.451 151.681 449.451C151.681 449.451 128.198 449.091 116.876 456.713C105.553 464.335 103.445 468.62 103.445 468.62C103.445 468.62 95.2977 467.636 91.1762 471.033C87.0427 474.43 89.0435 477.059 89.0435 477.059C89.0435 477.059 86.9947 477.899 86.9348 481.356C86.8869 484.813 87.8933 485.701 87.8933 485.701C87.8933 485.701 84.7902 488.246 86.7791 491.739C88.768 495.232 100.006 493.671 105.11 492.879C110.226 492.087 205.092 489.206 205.092 489.206L213.144 428.757L202.936 429.466Z" fill="#A4D6FF"/>
<path d="M88.2527 494.871L87.6537 493.839C92.2904 491.126 96.2681 492.111 97.9335 492.747C98.5445 487.225 103.696 477.455 103.924 477.01L104.978 477.575C104.918 477.683 99.1436 488.666 99.0717 493.647V494.643L98.1851 494.151C98.0054 494.043 93.6562 491.703 88.2527 494.847V494.871Z" fill="#021754"/>
<path d="M89.355 486.217L88.708 485.209C88.9117 485.077 93.8719 481.992 101.588 482.844L101.456 484.032C94.1834 483.228 89.4029 486.181 89.355 486.217Z" fill="#021754"/>
<path d="M88.7081 479.903L87.6298 479.375C90.5172 473.505 101.672 476.002 103.888 476.566C105.254 475.03 111.999 467.756 120.638 463.999C131.828 459.138 154.796 457.865 159.361 457.649C158.75 455.357 157.204 448.239 159.337 441.877C161.889 434.219 171.054 431.146 171.438 431.026L171.809 432.166C171.725 432.19 162.835 435.179 160.463 442.261C158.055 449.451 160.679 457.961 160.715 458.045L160.954 458.801L160.163 458.825C159.9 458.825 133.086 459.894 121.105 465.103C111.724 469.184 104.607 477.539 104.547 477.623L104.295 477.923L103.924 477.815C103.792 477.779 91.3918 474.394 88.6961 479.891L88.7081 479.903Z" fill="#021754"/>
<path d="M164.608 352.692C164.608 352.692 154.077 417.486 172.851 439.392C191.626 461.31 223.064 467.84 245.241 454.336L267.418 440.833C267.418 440.833 339.688 463.555 398.971 460.998C458.253 458.429 520.363 457.649 520.363 457.649C520.363 457.649 550.759 406.191 481.509 373.134C412.258 340.065 164.608 352.704 164.608 352.704V352.692Z" fill="#52A1FF"/>
<path d="M224.154 462.57C214.953 462.57 208.903 460.974 208.771 460.938L209.082 459.786C209.382 459.87 238.939 467.648 267.011 448.119L267.215 447.974L267.454 448.01C268.353 448.155 358.379 462.799 480.502 451.215L480.61 452.416C361.434 463.711 272.75 450.075 267.49 449.235C251.735 460.122 235.525 462.57 224.143 462.57H224.154Z" fill="#021754"/>
<path d="M517.823 485.365L517.296 484.284C517.488 484.188 536.682 474.37 535.735 440.244C534.789 406.071 529.972 378.632 478.501 362.247C427.845 346.115 316.325 351.276 315.199 351.324L315.139 350.124C316.265 350.076 428.001 344.902 478.861 361.095C531.074 377.719 535.963 405.555 536.921 440.208C537.892 475.15 518.015 485.257 517.811 485.353L517.823 485.365Z" fill="#021754"/>
<path d="M332.583 200.515C332.583 200.515 346.697 223.189 342.048 233.824C337.4 244.459 321.058 246.151 321.058 246.151C321.058 246.151 333.77 324.461 329.025 333.355L173.582 363.639L219.889 177.636L320.578 168.202L332.583 200.515Z" fill="#0641B7"/>
<path d="M287.211 170.291C287.211 170.291 312.263 145.444 334.68 142.611C357.109 139.778 381.179 151.385 401.019 163.437C420.86 175.5 441.276 188.151 441.276 188.151L444.703 258.143C444.703 258.143 437.154 259.991 408.292 251.037C379.43 242.082 322.651 202.555 322.651 202.555L287.199 170.279L287.211 170.291Z" fill="#0641B7"/>
<path d="M241.515 164.049C241.515 164.049 226.083 151.073 198.73 155.358C171.378 159.656 148.218 188.668 123.897 233.524C99.5749 278.38 89.6904 327.426 88.696 355.501C87.3302 394.056 109.16 409.72 119.128 412.121C129.096 414.521 241.515 164.049 241.515 164.049Z" fill="#0641B7"/>
<path d="M304.476 109.47C304.476 109.47 308.801 106.121 312.455 110.034C316.109 113.947 312.407 118.7 308.406 120.213C304.404 121.725 304.476 109.47 304.476 109.47Z" fill="#A4D6FF"/>
<path d="M304.464 109.29C304.464 109.29 303.242 98.907 296.089 94.0697C290.494 90.2887 288.277 93.6016 288.277 93.6016C288.277 93.6016 278.525 88.8963 268.532 96.3383C258.528 103.78 259.403 121.053 261.524 128.747C263.644 136.441 304.476 109.29 304.476 109.29H304.464Z" fill="#021754"/>
<path d="M265.693 125.938C265.693 125.938 275.913 122.818 283.281 114.655C290.65 106.481 288.361 95.342 288.361 95.342C288.361 95.342 290.518 103.9 295.825 106.229C301.133 108.558 303.673 107.561 303.673 107.561C303.673 107.561 313.39 128.723 315.726 140.738C318.062 152.754 311.473 159.152 304.655 161.228C297.838 163.305 287.367 161.228 278.345 153.894C269.323 146.56 265.693 125.95 265.693 125.95V125.938Z" fill="#A4D6FF"/>
<path d="M309.568 182.882C309.664 184.779 309.628 186.807 309.448 188.992C309.268 191.128 309.077 193.673 308.861 196.482C308.861 196.626 308.837 196.782 308.837 196.926C308.525 200.947 308.202 205.496 307.843 210.201C307.819 210.43 307.807 210.658 307.795 210.898C307.531 214.475 307.255 218.136 306.968 221.701C306.824 223.549 306.68 225.386 306.537 227.174C306.213 231.219 305.89 235.024 305.59 238.325C305.566 238.553 305.554 238.769 305.53 238.985C305.243 242.07 304.967 244.687 304.715 246.583C304.392 249.08 304.152 251.157 303.973 252.861C303.949 253.137 303.913 253.413 303.889 253.665C303.41 258.527 303.481 260.027 303.481 260.027C303.481 260.027 300.342 260.183 295.382 260.399C295.011 260.423 294.639 260.435 294.256 260.459C290.59 260.615 286.073 260.807 281.161 260.999C280.933 260.999 280.717 261.011 280.478 261.023C276.356 261.179 271.971 261.335 267.61 261.456C267.298 261.467 266.999 261.48 266.687 261.492C261.979 261.624 257.306 261.732 252.993 261.792C252.765 261.792 252.526 261.792 252.298 261.792C247.158 261.852 242.569 261.84 239.071 261.708C238.831 261.708 238.592 261.684 238.364 261.684C237.418 261.636 236.567 261.588 235.824 261.528C230.397 261.083 227.018 260.807 224.921 260.627C224.622 260.603 224.346 260.591 224.107 260.567L221.459 260.351C221.459 260.351 221.686 259.451 222.106 257.794C222.166 257.554 222.238 257.29 222.309 257.002C222.681 255.514 223.172 253.557 223.771 251.217C224.023 250.196 224.31 249.116 224.598 247.952C224.993 246.427 225.401 244.783 225.868 243.042C225.916 242.814 225.976 242.586 226.036 242.358C227.066 238.373 228.216 233.884 229.486 229.059C229.558 228.771 229.63 228.482 229.714 228.194C230.816 223.921 232.014 219.384 233.236 214.715C233.308 214.487 233.356 214.259 233.416 214.031C234.111 211.438 234.806 208.809 235.513 206.156C235.764 205.244 236.004 204.332 236.243 203.42C236.495 202.459 236.759 201.499 237.01 200.539C237.058 200.359 237.106 200.191 237.154 200.023C238.376 195.521 239.598 190.972 240.832 186.507C240.892 186.267 240.964 186.027 241.024 185.775C242.33 181.058 243.624 176.412 244.882 171.947C244.942 171.743 245.002 171.551 245.05 171.347C245.78 168.778 246.499 166.269 247.218 163.845C247.506 162.849 247.805 161.852 248.093 160.868C248.392 159.86 248.68 158.875 248.967 157.891C249.051 157.615 249.135 157.327 249.219 157.051C250.753 151.938 252.19 147.34 253.46 143.511C253.556 143.235 253.652 142.959 253.736 142.695C255.485 137.534 256.935 133.885 257.929 132.336C258.48 131.496 259.043 130.716 259.619 130.02C260.098 129.431 260.577 128.891 261.08 128.399C266.04 123.37 271.348 122.806 273.565 122.818C273.984 122.818 274.295 122.842 274.463 122.854C274.571 122.878 274.631 122.878 274.631 122.878C274.631 122.878 282.299 122.493 287.355 126.275C287.618 126.467 287.858 126.671 288.098 126.887C288.122 126.923 288.158 126.947 288.193 126.971C288.229 127.007 288.277 127.043 288.301 127.079C288.469 127.223 288.613 127.379 288.745 127.547C291.117 130.224 292.219 135.145 293.645 140.774C293.705 141.027 293.777 141.291 293.837 141.555C294.915 145.696 296.197 150.185 298.33 154.422C298.425 154.638 298.533 154.842 298.641 155.034C298.821 155.37 299 155.707 299.192 156.043C300.666 158.647 302.08 161.048 303.35 163.377C303.697 164.001 304.021 164.613 304.344 165.237C304.919 166.329 305.458 167.422 305.949 168.514C306.057 168.754 306.165 168.994 306.273 169.222C307.998 173.159 309.184 177.228 309.52 182.114C309.532 182.366 309.556 182.618 309.568 182.87V182.882Z" fill="#52A1FF"/>
<path d="M304.955 183.086C306.489 183.014 308.046 182.942 309.568 182.882C309.556 182.63 309.532 182.378 309.52 182.126C308.238 182.186 306.656 182.27 304.919 182.366C304.691 177.877 304.524 174.504 304.524 174.504L304.428 169.342C305.039 169.306 305.662 169.27 306.285 169.234C306.177 168.994 306.069 168.754 305.961 168.526L304.416 168.61L304.356 165.261C304.032 164.649 303.709 164.025 303.361 163.401C303.397 164.493 303.469 166.389 303.553 168.646C299.504 168.838 294.699 169.054 290.662 169.234L290.266 163.941L289.943 155.478L291.8 155.382C293.477 155.298 295.909 155.178 298.653 155.058C298.545 154.854 298.437 154.65 298.341 154.446C295.478 154.578 292.531 154.722 289.907 154.842L289.811 152.49L289.128 141.807L293.848 141.567C293.789 141.303 293.717 141.05 293.657 140.786C292.075 140.87 290.518 140.966 289.068 141.05C288.972 139.574 288.517 133.308 288.145 127.595L288.745 127.559C288.601 127.391 288.457 127.235 288.301 127.091H288.11V126.899C287.87 126.683 287.618 126.479 287.367 126.286C287.379 126.575 287.391 126.863 287.403 127.139C283.125 127.403 279.962 127.607 279.962 127.607L274.667 127.775C274.607 126.01 274.535 124.33 274.475 122.854C274.307 122.854 273.984 122.818 273.576 122.818C273.672 124.63 273.756 126.322 273.816 127.799L268.7 127.967L261.092 128.399C260.601 128.891 260.11 129.431 259.63 130.019C259.69 132.324 259.726 133.777 259.726 133.777L260.086 142.347L257.977 142.431L253.736 142.695C253.652 142.971 253.556 143.235 253.46 143.511L254.634 143.403L260.17 143.211L260.865 150.521L261.116 156.619L258.72 156.799L249.219 157.051C249.135 157.327 249.051 157.603 248.967 157.891L255.353 157.567L261.14 157.243L261.44 164.505C261.44 164.505 261.631 167.038 261.907 170.471L259.427 170.615L248.488 171.095L248.296 166.053L248.105 160.856C247.817 161.828 247.518 162.824 247.23 163.833L247.278 165.237C247.278 165.237 247.434 167.746 247.649 171.155C247.074 171.203 246.176 171.263 245.061 171.335C245.014 171.539 244.954 171.731 244.894 171.935L247.673 171.683C247.937 175.932 248.272 181.394 248.488 185.163C247.326 185.259 244.618 185.571 241.419 185.751L241.036 185.775C240.976 186.015 240.904 186.255 240.844 186.507L248.548 186.171L248.632 187.791C248.752 190.36 248.943 194.633 249.135 199.194C247.326 199.326 242.174 199.699 237.178 200.023C237.13 200.203 237.094 200.371 237.034 200.539C239.334 200.419 240.796 200.335 240.796 200.335L249.159 199.843C249.351 204.596 249.554 209.589 249.698 213.214C248.512 213.322 246.14 213.574 243.336 213.706C241.287 213.802 239.011 213.874 236.806 213.946L236.399 205.976C236.363 205.256 236.315 204.392 236.267 203.42C236.016 204.332 235.776 205.244 235.536 206.156L235.932 213.97C235.081 213.994 234.242 214.018 233.44 214.03C233.38 214.259 233.32 214.487 233.26 214.715C234.219 214.679 235.129 214.643 235.956 214.595C236.112 217.403 236.195 219.24 236.195 219.24L236.83 227.858C234.099 227.99 231.535 228.11 229.726 228.206C229.642 228.494 229.57 228.783 229.498 229.071C232.218 228.915 234.782 228.782 236.902 228.674L237.07 236.008L237.394 241.818C234.302 241.962 231.463 242.106 229.714 242.202C228.743 242.25 227.485 242.31 226.059 242.382C225.999 242.61 225.94 242.838 225.892 243.066C230.049 242.886 234.242 242.706 237.429 242.574L237.849 249.98C237.849 249.98 237.969 252.621 238.136 256.174C235.057 256.378 232.194 256.558 230.444 256.654C229.055 256.726 227.102 256.81 224.885 256.918L224.777 251.541L224.646 247.988C224.346 249.152 224.071 250.232 223.819 251.253C223.855 252.213 223.927 254.35 224.023 256.954C223.483 256.978 222.932 257.002 222.357 257.026C222.285 257.302 222.213 257.566 222.154 257.818C222.777 257.782 223.412 257.746 224.047 257.71C224.071 258.635 224.118 259.607 224.154 260.603C224.394 260.627 224.67 260.651 224.969 260.663L224.909 257.662C229.618 257.386 234.554 257.074 238.196 256.846C238.268 258.371 238.352 260.039 238.424 261.72C238.664 261.72 238.891 261.744 239.131 261.744L239.035 256.798C241.85 256.618 243.684 256.498 243.684 256.498L248.812 256.042L251.975 255.742C252.094 257.626 252.214 259.727 252.346 261.828C252.574 261.828 252.801 261.828 253.041 261.828C253.029 261.551 253.017 261.395 253.017 261.395L252.801 255.694L260.361 255.514L266.256 255.214C266.412 257.158 266.58 259.379 266.735 261.527C267.047 261.515 267.346 261.503 267.658 261.491C267.634 260.951 267.634 260.651 267.634 260.651L267.215 255.166L274.283 254.806C274.283 254.806 276.716 254.746 280.034 254.65C280.19 256.654 280.358 258.875 280.526 261.059C280.753 261.059 280.981 261.047 281.208 261.035C281.161 260.351 281.137 259.979 281.137 259.979L280.897 254.626C285.018 254.518 290.242 254.349 293.944 254.217C294.052 256.174 294.172 258.359 294.292 260.495C294.675 260.471 295.047 260.471 295.418 260.435C295.394 259.679 295.394 259.247 295.394 259.247L295.011 254.169C295.694 254.145 296.305 254.109 296.82 254.097C298.557 254.013 301.061 253.869 303.913 253.701C303.937 253.437 303.961 253.173 303.996 252.897C300.953 253.029 297.754 253.173 294.939 253.305L294.543 248.012L294.22 239.549C294.927 239.513 295.562 239.477 296.077 239.441C298.282 239.333 301.732 239.177 305.542 239.009C305.566 238.793 305.578 238.577 305.602 238.349C301.888 238.541 297.742 238.733 294.196 238.901L294.1 236.549L293.429 225.878L295.394 225.782C297.886 225.65 301.996 225.446 306.417 225.206L306.548 227.198C306.692 225.41 306.836 223.585 306.98 221.725C306.836 219.012 306.608 214.871 306.405 210.982C306.872 210.958 307.339 210.946 307.806 210.922C307.818 210.682 307.83 210.453 307.854 210.225C307.375 210.261 306.884 210.285 306.369 210.321C306.189 207.177 306.045 204.26 305.949 202.471L305.674 197.118C306.728 197.07 307.783 197.01 308.837 196.95C308.837 196.806 308.861 196.65 308.861 196.506C307.89 196.554 306.8 196.614 305.638 196.662L304.955 183.11V183.086ZM236.806 214.571C239.622 214.439 241.479 214.355 241.479 214.355L249.698 213.994C249.806 216.743 249.878 218.544 249.878 218.544L250.453 227.21C248.452 227.306 242.737 227.57 237.477 227.81L236.806 214.559V214.571ZM251.915 255.202C249.926 255.346 244.235 255.742 238.987 256.09L238.879 250.797L238.412 242.502C241.144 242.394 242.929 242.322 242.929 242.322L251.28 242.022L251.531 249.272C251.531 249.272 251.699 251.793 251.903 255.202H251.915ZM251.256 241.158C249.327 241.242 243.648 241.506 238.364 241.758L238.232 239.357L237.549 228.626C240.365 228.47 242.21 228.386 242.21 228.386L250.537 228.158L251.028 235.3L251.232 241.158H251.256ZM248.488 171.635L256.048 171.455L261.943 171.155C262.266 175.356 262.662 180.661 262.889 184.37L260.098 184.43L249.111 185.127C248.871 180.673 248.692 177.348 248.692 177.348L248.476 171.647L248.488 171.635ZM250.645 213.946L258.169 213.634L263.86 213.37C263.932 216.071 263.968 217.812 263.968 217.812L264.327 226.382L262.218 226.466L251.352 227.15C251.268 225.578 250.944 219.528 250.645 213.946ZM251.447 228.098L258.9 227.45L264.435 227.246L265.13 234.568L265.381 240.666L262.985 240.846L252.202 241.11L252.106 238.637L251.435 228.098H251.447ZM263.68 254.65L252.741 255.13L252.55 250.1L252.238 241.986L259.606 241.614L265.393 241.29L265.693 248.54C265.693 248.54 265.885 251.073 266.16 254.506L263.68 254.638V254.65ZM263.836 212.542L261.523 212.662L250.597 213.142C250.429 209.985 250.273 207.057 250.177 205.268C250.105 203.9 250.01 201.979 249.89 199.807L257.462 199.759L263.476 199.362C263.608 204.056 263.74 208.953 263.824 212.53L263.836 212.542ZM263.464 198.666L260.829 198.858L249.866 199.134C249.65 195.089 249.399 190.228 249.171 186.123L256.743 185.463L262.949 185.283C262.985 185.943 263.021 186.555 263.045 187.059C263.165 189.664 263.321 194.033 263.452 198.678L263.464 198.666ZM291.093 175.188L290.709 170.11C291.392 170.074 292.003 170.05 292.519 170.026C295.023 169.894 299.144 169.666 303.565 169.402C303.721 173.603 303.913 178.813 304.056 182.426C300.019 182.642 295.262 182.894 291.261 183.11C291.153 178.597 291.081 175.2 291.081 175.2L291.093 175.188ZM291.285 183.722C292.015 183.686 292.674 183.638 293.213 183.614C295.682 183.494 299.731 183.314 304.104 183.122C304.128 183.818 304.164 184.442 304.188 184.959C304.308 187.587 304.56 191.992 304.835 196.662C300.666 196.842 295.73 197.058 291.656 197.226C291.524 193.037 291.392 187.947 291.297 183.71L291.285 183.722ZM274.667 128.483C278.728 128.195 283.784 127.859 287.415 127.643C287.546 130.5 287.63 132.372 287.63 132.372L288.074 141.111C283.808 141.375 280.657 141.567 280.657 141.567L275.098 141.783C275.062 140.33 274.87 134.173 274.667 128.495V128.483ZM276.692 183.902L271.552 184.202L263.572 184.358C263.44 179.917 263.333 176.604 263.333 176.604L262.925 171.107L269.994 170.747C269.994 170.747 272.426 170.687 275.745 170.591C276.069 174.852 276.476 180.229 276.704 183.902H276.692ZM274.751 155.658L270.126 155.959L262.087 156.559L261.967 153.906L261.152 143.187L268.568 142.923C268.568 142.923 271.06 142.791 274.451 142.599L274.415 149.849L274.739 155.658H274.751ZM262.123 157.195L269.275 156.799C269.275 156.799 271.588 156.643 274.787 156.439L275.206 163.821C275.206 163.821 275.398 166.365 275.673 169.822L270.833 169.978L262.865 170.423L262.482 165.345L262.123 157.195ZM260.493 129.299L267.873 128.963C267.873 128.963 270.413 128.783 273.852 128.543C273.984 131.28 274.068 133.068 274.068 133.068L274.439 141.819L269.407 141.999L261.092 142.323C261.02 140.606 260.745 134.761 260.493 129.311V129.299ZM275.11 254.001L267.131 254.458L266.759 249.38L266.4 241.23L273.553 240.834C273.553 240.834 275.865 240.678 279.064 240.462L279.483 247.844C279.483 247.844 279.687 250.4 279.95 253.845L275.11 254.001ZM278.704 233.884L279.028 239.693L274.403 239.994L266.364 240.606L266.244 237.941L265.441 227.234L272.858 226.97C272.858 226.97 275.35 226.838 278.74 226.646L278.704 233.896V233.884ZM278.309 217.103L278.68 225.842L273.66 226.034L265.345 226.346C265.274 224.641 264.986 218.784 264.734 213.334L272.115 212.998C272.115 212.998 274.655 212.818 278.105 212.578C278.237 215.315 278.321 217.103 278.321 217.103H278.309ZM278.069 211.858L272.953 212.026L264.698 212.494C264.543 209.313 264.411 206.36 264.315 204.56C264.243 203.24 264.171 201.427 264.087 199.326L271.396 198.846C271.396 198.846 273.96 198.714 277.41 198.534C277.638 203.288 277.89 208.257 278.057 211.846L278.069 211.858ZM277.386 197.802L272.247 198.006L264.063 198.618C263.908 194.489 263.74 189.46 263.596 185.259L270.701 185.043C270.701 185.043 273.265 184.874 276.739 184.646C276.775 185.283 276.811 185.859 276.835 186.351C276.967 188.932 277.171 193.229 277.398 197.802H277.386ZM275.134 142.563C279.232 142.335 284.419 142.059 288.134 141.855L288.625 149.129L288.888 154.89C284.563 155.106 281.352 155.25 281.352 155.25L275.529 155.622L275.326 153.234L275.122 142.575L275.134 142.563ZM284.204 211.654L278.908 211.822C278.8 208.617 278.68 205.628 278.597 203.828C278.525 202.483 278.429 200.623 278.297 198.486L291.057 197.838C291.273 202.603 291.5 207.585 291.656 211.186C287.379 211.45 284.204 211.654 284.204 211.654ZM291.68 211.678C291.812 214.535 291.896 216.419 291.896 216.419L292.339 225.158C288.074 225.422 284.911 225.602 284.911 225.602L279.363 225.818C279.315 224.377 279.136 218.22 278.932 212.53C282.994 212.254 288.05 211.906 291.68 211.69V211.678ZM283.497 197.574L278.237 197.778C277.986 193.673 277.674 188.74 277.398 184.598C281.532 184.322 286.708 183.986 290.374 183.77L290.47 185.655C290.602 188.259 290.805 192.617 291.009 197.25C286.696 197.43 283.485 197.562 283.485 197.562L283.497 197.574ZM282.79 183.554L277.362 183.866C277.063 179.329 276.835 175.92 276.835 175.92L276.596 170.567C280.717 170.447 285.941 170.29 289.643 170.146C289.871 174.36 290.158 179.557 290.338 183.146C286.001 183.386 282.778 183.554 282.778 183.554H282.79ZM289.607 169.282C285.294 169.474 282.083 169.606 282.083 169.606L276.56 169.786L276.332 164.649L275.613 156.391C279.771 156.115 285.138 155.767 288.924 155.538L289.272 163.113C289.272 163.113 289.415 165.753 289.607 169.294V169.282ZM293.884 253.305C289.571 253.497 286.36 253.641 286.36 253.641L280.837 253.821L280.609 248.684L279.891 240.414C284.048 240.138 289.415 239.79 293.202 239.573L293.549 247.136C293.549 247.136 293.693 249.776 293.884 253.317V253.305ZM293.166 238.925C288.84 239.129 285.629 239.285 285.629 239.285L279.807 239.645L279.603 237.257L279.399 226.598C283.497 226.37 288.685 226.094 292.399 225.902L292.89 233.176L293.154 238.937L293.166 238.925ZM291.872 203.155C291.8 201.811 291.74 199.951 291.668 197.814C292.543 197.766 293.297 197.742 293.932 197.706C296.412 197.586 300.474 197.37 304.859 197.13C305.135 201.823 305.422 206.732 305.626 210.321C301.456 210.562 296.484 210.886 292.363 211.138C292.159 207.933 291.967 204.956 291.872 203.143V203.155ZM306.309 224.329C302.223 224.557 297.383 224.845 293.321 225.085C293.225 223.609 292.77 217.343 292.387 211.63C293.237 211.582 293.992 211.534 294.615 211.498C297.107 211.378 301.229 211.186 305.662 210.982C305.83 213.826 305.937 215.687 305.937 215.687L306.309 224.317V224.329Z" fill="#83C7FF"/>
<path d="M223.519 198.246C223.519 198.246 240.664 160.988 249.315 144.099C257.977 127.199 263.836 123.442 266.472 124.174C269.108 124.906 268.413 128.411 268.413 128.411C268.413 128.411 271.6 123.058 274.367 126.383C277.135 129.707 269.251 144.832 265.286 151.962C261.32 159.092 259.942 166.089 259.942 166.089C259.942 166.089 267.909 152.694 273.912 151.517C279.902 150.353 281.807 153.714 281.939 156.307C282.071 158.899 278.105 166.029 274.655 166.209C271.204 166.39 271.803 161.156 273.445 159.344L267.334 175.248L268.125 190.804C268.125 190.804 270.893 194.129 269.383 198.534C267.873 202.94 263.692 205.748 261.967 205.844L254.682 215.747L223.531 198.27L223.519 198.246Z" fill="#A4D6FF"/>
<path d="M292.818 115.039L306.273 124.75L296.916 127.823L292.818 115.039Z" fill="#4C83F2"/>
<path d="M288.026 120.345C287.99 120.045 287.93 119.745 287.834 119.469C287.618 118.856 287.247 118.292 286.768 117.848C286.54 117.644 286.205 117.524 285.893 117.536C285.821 117.536 285.749 117.548 285.665 117.572C285.414 117.572 285.162 117.62 284.959 117.764L284.719 117.968C284.575 118.124 284.479 118.304 284.431 118.52C284.24 119.109 284.276 119.721 284.407 120.309C284.467 120.597 284.611 120.873 284.743 121.137C284.791 121.221 284.839 121.305 284.899 121.377C285.007 121.521 285.126 121.677 285.27 121.797C285.402 121.905 285.546 122.013 285.701 122.085C285.977 122.217 286.205 122.265 286.516 122.277C286.612 122.277 286.684 122.265 286.78 122.241C286.959 122.205 286.983 122.205 287.151 122.121C287.451 121.977 287.666 121.773 287.834 121.485C288.026 121.149 288.062 120.729 288.014 120.345H288.026Z" fill="#021754"/>
<path d="M304.009 114.163C303.973 113.863 303.913 113.563 303.817 113.287C303.601 112.675 303.23 112.111 302.751 111.667C302.523 111.462 302.187 111.342 301.876 111.354C301.804 111.354 301.732 111.366 301.648 111.39C301.397 111.39 301.145 111.438 300.941 111.583L300.702 111.787C300.558 111.943 300.462 112.123 300.414 112.339C300.223 112.915 300.258 113.539 300.39 114.127C300.45 114.415 300.594 114.691 300.726 114.955C300.774 115.039 300.822 115.123 300.881 115.196C300.989 115.34 301.109 115.496 301.253 115.616C301.385 115.724 301.528 115.832 301.684 115.904C301.96 116.036 302.187 116.084 302.499 116.096C302.595 116.096 302.667 116.084 302.763 116.06C302.942 116.024 302.966 116.024 303.134 115.94C303.433 115.796 303.649 115.592 303.817 115.304C304.009 114.967 304.044 114.547 303.997 114.163H304.009Z" fill="#021754"/>
<path d="M294.364 136.093L293.345 135.457C299.12 126.238 310.023 129.155 310.143 129.179L309.819 130.332C309.4 130.212 299.659 127.631 294.364 136.081V136.093Z" fill="#021754"/>
<path d="M265.633 176.184C265.633 176.184 277.614 156.523 283.689 157.075C289.775 157.639 290.027 162.812 289.392 167.182C288.745 171.551 285.426 174.312 283.701 174.396C281.975 174.48 280.166 172.847 280.166 172.847L267.37 193.421L265.633 176.184Z" fill="#A4D6FF"/>
<path d="M285.279 163.594L279.674 172.541L280.689 173.179L286.293 164.232L285.279 163.594Z" fill="#021754"/>
<path d="M265.321 177.408L264.303 176.772C264.746 176.052 275.338 159.235 281.58 156.883L281.999 158.011C276.128 160.22 265.417 177.252 265.321 177.42V177.408Z" fill="#021754"/>
<path d="M276.271 157.152L269.938 168.732L270.989 169.308L277.322 157.729L276.271 157.152Z" fill="#021754"/>
<path d="M246.068 172.283L245.014 171.719L247.386 167.266C249.722 162.873 267.778 127.547 267.969 127.187L269.036 127.739C268.856 128.099 250.788 163.425 248.452 167.83L246.08 172.283H246.068Z" fill="#021754"/>
<path d="M260.208 164.551L255.463 172.936L256.505 173.528L261.25 165.143L260.208 164.551Z" fill="#021754"/>
<path d="M268.568 223.477L253.197 259.163C253.197 259.163 218.176 345.839 196.921 373.434C175.667 401.03 140.239 421.111 119.104 412.121C97.9695 403.13 119.559 362.715 135.722 331.723C151.884 300.73 210.34 192.473 213.288 192.329C216.235 192.185 250.992 211.03 268.556 223.477H268.568Z" fill="#0641B7"/>
<path d="M138.765 352.416L137.567 352.368C138.597 329.25 161.937 280.097 171.929 260.027C189.325 225.086 207.561 194.657 212.581 192.197C213.252 191.86 213.719 191.98 214.006 192.149L222.801 196.014L222.321 197.118L213.371 193.181C213.371 193.181 213.12 193.181 212.437 193.733C206.47 198.618 188.223 229.707 171.773 263.04C162.176 282.473 139.76 330.09 138.765 352.428V352.416Z" fill="#021754"/>
<path d="M201.945 209.787L201.378 210.845L259.648 242.16L260.214 241.102L201.945 209.787Z" fill="#021754"/>
<path d="M503.47 73.7961L502.871 84.6111L502.727 87.2038L501.996 100.143L501.852 102.736L501.122 115.76L500.978 118.352L500.235 131.604L500.091 134.197L499.396 146.632L499.253 149.225L498.618 160.676L498.474 163.269L497.659 177.853L497.515 180.445L496.976 190.084L496.832 192.677L496.245 203.119L392.944 204.416C392.944 204.416 393.22 199.651 393.711 191.92C393.771 191.092 393.819 190.228 393.879 189.328C394.094 186.027 394.346 182.306 394.622 178.261C394.681 177.408 394.741 176.544 394.801 175.668C395.101 171.539 395.412 167.134 395.76 162.524C395.82 161.672 395.892 160.808 395.963 159.932C396.239 156.259 396.539 152.478 396.85 148.661C396.922 147.796 396.994 146.932 397.066 146.068C397.353 142.563 397.665 139.022 397.976 135.493C398.024 135.049 398.048 134.581 398.096 134.137C398.132 133.716 398.168 133.308 398.204 132.888C398.671 127.799 399.186 122.926 399.714 118.328C399.821 117.452 399.917 116.588 400.025 115.736C400.612 110.802 401.211 106.205 401.81 102.004C401.93 101.116 402.062 100.263 402.182 99.4111C402.853 94.7538 403.512 90.6367 404.087 87.1798C404.242 86.2675 404.386 85.4033 404.53 84.5871C405.608 78.2973 406.351 74.7324 406.351 74.7324L503.47 73.7721V73.7961Z" fill="#CFEEFF"/>
<path d="M502.859 84.6111L502.715 87.2038H404.075C404.23 86.2915 404.374 85.4273 404.518 84.6111H502.859Z" fill="#83C7FF"/>
<path d="M501.984 100.143L501.84 102.736L401.786 102.028C401.906 101.14 402.038 100.287 402.158 99.4352L501.984 100.131V100.143Z" fill="#83C7FF"/>
<path d="M501.122 115.76L500.978 118.352H399.702C399.809 117.476 399.905 116.612 400.013 115.76H501.122Z" fill="#83C7FF"/>
<path d="M500.223 131.616L500.079 134.209L397.94 135.529C397.988 135.085 398.012 134.617 398.06 134.173C398.096 133.753 398.132 133.344 398.168 132.924L500.211 131.616H500.223Z" fill="#83C7FF"/>
<path d="M499.384 146.644L499.241 149.237L396.826 148.685C396.898 147.82 396.97 146.956 397.042 146.092L499.384 146.644Z" fill="#83C7FF"/>
<path d="M498.606 160.688L498.462 163.281L395.76 162.548C395.82 161.696 395.892 160.832 395.963 159.956L498.618 160.688H498.606Z" fill="#83C7FF"/>
<path d="M497.647 177.877L497.503 180.469L394.622 178.285C394.681 177.432 394.741 176.568 394.801 175.692L497.659 177.865L497.647 177.877Z" fill="#83C7FF"/>
<path d="M496.952 190.108L496.808 192.701L393.687 191.945C393.747 191.116 393.795 190.252 393.855 189.352L496.94 190.108H496.952Z" fill="#83C7FF"/>
<path d="M469.168 104.32L467.898 51.9622L453.269 53.4026L457.223 106.205L469.168 104.32Z" fill="#52A1FF"/>
<path d="M427.366 33.7412C427.366 33.7412 429.738 15.7483 445.985 7.29795C462.243 -1.15236 476.62 -0.816271 484.743 1.16427C492.867 3.14481 496.078 11.115 496.749 19.4933C497.419 27.8716 494.748 31.5566 489.56 31.7246C489.56 31.7246 488.458 37.1141 485.378 38.2544C482.299 39.3947 479.46 37.8823 479.46 37.8823C479.46 37.8823 476.441 45.3604 471.409 45.5884C471.409 45.5884 473.745 61.4568 467.922 62.7891C462.099 64.1215 460.53 57.2076 459.128 50.8939C457.726 44.5801 427.354 33.7292 427.354 33.7292L427.366 33.7412Z" fill="#A4D6FF"/>
<path d="M465.262 64.2295C461.296 64.2295 459.571 55.9592 458.193 49.3094C457.81 47.4729 457.486 45.8885 457.163 44.7722C456.875 43.7759 456.612 42.5516 456.3 41.1472C455.054 35.4936 453.341 27.7515 448.417 25.0388L448.992 23.9825C454.383 26.9713 456.169 35.0135 457.463 40.8831C457.774 42.2755 458.038 43.4758 458.313 44.4361C458.649 45.6004 458.984 47.2088 459.367 49.0573C460.518 54.6269 462.267 63.0292 465.262 63.0292H465.286C466.568 63.0052 467.658 62.489 468.545 61.4687C470.258 59.4882 472.02 54.7109 470.582 43.1877C468.269 24.5346 461.764 18.9771 461.692 18.9171L462.447 17.9808C462.734 18.2089 469.384 23.8144 471.768 43.0317C472.942 52.5023 472.139 59.1401 469.444 62.249C468.329 63.5333 466.94 64.1935 465.298 64.2175H465.25L465.262 64.2295Z" fill="#021754"/>
<path d="M452.538 63.5213C446.644 60.4004 442.81 32.4928 442.654 31.3045L443.84 31.1484C444.906 39.0586 448.656 60.1124 453.101 62.465L452.538 63.5213Z" fill="#021754"/>
<path d="M480.071 37.9304L478.873 37.8583C479.939 20.6096 470.139 13.8038 470.031 13.7317L470.702 12.7355C471.133 13.0236 481.173 19.9975 480.071 37.9304Z" fill="#021754"/>
<path d="M490.171 31.7246H488.973C489.033 12.2072 479.819 8.40219 479.723 8.36618L480.155 7.24988C480.562 7.40592 490.243 11.319 490.183 31.7366L490.171 31.7246Z" fill="#021754"/>
<path d="M209.49 355.297L208.471 354.661C217.876 339.525 249.566 262.368 249.89 261.588L250.992 262.044C250.669 262.824 218.955 340.065 209.49 355.285V355.297Z" fill="#021754"/>
<path d="M197.76 75.5367L197.592 88.1282L197.413 101.104L197.113 122.614L196.933 135.529L196.49 168.55L196.31 181.502L196.035 201.847L151.885 201.079L139.161 200.851L96.7235 200.119L97.6461 186.735L98.5087 174.12L100.809 140.667L101.66 128.351L103.601 100.119L104.463 87.588L105.362 74.6725L114.324 74.7565L126.532 74.8645L167.975 75.2606L180.483 75.3687L197.76 75.5367Z" fill="#CFEEFF"/>
<path d="M197.592 88.1281L197.425 101.092C196.334 101.068 195.328 100.768 194.381 100.215C193.938 99.8793 193.495 99.5433 193.064 99.2072C192.261 98.3909 191.71 97.4427 191.398 96.3384C191.326 95.7622 191.242 95.1861 191.171 94.6099C191.135 93.7217 191.326 92.8934 191.734 92.1132C191.997 91.309 192.441 90.6128 193.076 90.0247C193.663 89.3885 194.357 88.9444 195.16 88.6803C195.927 88.2842 196.742 88.0921 197.616 88.1161L197.592 88.1281Z" fill="#A4D6FF"/>
<path d="M170.731 106.241C167.34 106.241 164.093 109.23 164.249 112.735C164.405 116.252 167.1 119.229 170.731 119.229C174.121 119.229 177.368 116.24 177.212 112.735C177.057 109.218 174.361 106.241 170.731 106.241Z" fill="#A4D6FF"/>
<path d="M197.113 122.614L196.945 135.529C193.675 135.169 191.302 132.372 191.159 129.071C191.015 125.746 193.926 122.89 197.113 122.614Z" fill="#A4D6FF"/>
<path d="M175.583 143.799C172.192 143.799 168.946 146.788 169.101 150.293C169.257 153.81 171.953 156.787 175.583 156.787C178.974 156.787 182.221 153.798 182.065 150.293C181.909 146.776 179.213 143.799 175.583 143.799Z" fill="#A4D6FF"/>
<path d="M196.49 168.55L196.31 181.502C192.908 181.274 190.416 178.393 190.272 175.032C190.116 171.611 193.195 168.694 196.49 168.55Z" fill="#A4D6FF"/>
<path d="M169.413 180.914C166.022 180.914 162.775 183.902 162.931 187.407C163.087 190.924 165.783 193.901 169.413 193.901C172.803 193.901 176.05 190.912 175.895 187.407C175.739 183.89 173.043 180.914 169.413 180.914Z" fill="#A4D6FF"/>
<path d="M151.98 199.771C151.992 200.215 151.968 200.659 151.884 201.079L139.161 200.851C139.089 200.491 139.041 200.143 139.017 199.771C138.861 196.266 142.108 193.277 145.499 193.277C149.129 193.277 151.825 196.242 151.98 199.771Z" fill="#A4D6FF"/>
<path d="M144.217 164.049C140.826 164.049 137.579 167.038 137.735 170.543C137.891 174.06 140.586 177.037 144.217 177.037C147.607 177.037 150.854 174.048 150.698 170.543C150.543 167.026 147.847 164.049 144.217 164.049Z" fill="#A4D6FF"/>
<path d="M142.947 124.798C139.556 124.798 136.309 127.787 136.465 131.292C136.62 134.809 139.316 137.786 142.947 137.786C146.337 137.786 149.584 134.797 149.428 131.292C149.273 127.775 146.577 124.798 142.947 124.798Z" fill="#A4D6FF"/>
<path d="M146.038 88.5723C142.647 88.5723 139.4 91.5611 139.556 95.066C139.712 98.583 142.407 101.56 146.038 101.56C149.428 101.56 152.675 98.571 152.519 95.066C152.364 91.5491 149.668 88.5723 146.038 88.5723Z" fill="#A4D6FF"/>
<path d="M180.735 76.9531C180.891 80.458 177.644 83.4469 174.253 83.4469C170.623 83.4469 167.927 80.47 167.771 76.9531C167.747 76.3769 167.819 75.8008 167.963 75.2606L180.471 75.3686C180.615 75.8848 180.699 76.4129 180.723 76.9531H180.735Z" fill="#A4D6FF"/>
<path d="M126.94 76.9531C127.096 80.458 123.849 83.4468 120.458 83.4468C116.828 83.4468 114.132 80.47 113.976 76.9531C113.94 76.1969 114.072 75.4527 114.324 74.7565L126.521 74.8645C126.748 75.5247 126.892 76.2209 126.928 76.9531H126.94Z" fill="#A4D6FF"/>
<path d="M121.273 108.45C117.882 108.45 114.635 111.439 114.791 114.943C114.947 118.46 117.642 121.437 121.273 121.437C124.663 121.437 127.91 118.448 127.754 114.943C127.599 111.427 124.903 108.45 121.273 108.45Z" fill="#A4D6FF"/>
<path d="M117.762 146.068C114.372 146.068 111.125 149.057 111.281 152.562C111.436 156.079 114.132 159.056 117.762 159.056C121.153 159.056 124.4 156.067 124.244 152.562C124.088 149.045 121.393 146.068 117.762 146.068Z" fill="#A4D6FF"/>
<path d="M105.769 134.377C105.901 137.354 103.589 139.946 100.809 140.666L101.66 128.351C104.044 129.311 105.649 131.688 105.769 134.377Z" fill="#A4D6FF"/>
<path d="M108.848 93.7336C108.884 94.6339 108.705 95.4621 108.297 96.2303C108.034 97.0345 107.59 97.7307 106.955 98.3189C106.368 98.955 105.673 99.3872 104.871 99.6632C104.463 99.8793 104.044 100.023 103.601 100.107L104.463 87.5759C104.871 87.72 105.266 87.9 105.649 88.1161C106.081 88.4522 106.524 88.7883 106.967 89.1244C107.77 89.9406 108.321 90.8888 108.633 91.9931C108.705 92.5693 108.776 93.1455 108.86 93.7096L108.848 93.7336Z" fill="#A4D6FF"/>
<path d="M103.133 180.325C103.277 183.482 100.641 186.219 97.646 186.723L98.5086 174.108C101.156 174.912 102.99 177.433 103.133 180.325Z" fill="#A4D6FF"/>
<path d="M121.237 184.43C117.846 184.43 114.599 187.419 114.755 190.924C114.911 194.441 117.607 197.418 121.237 197.418C124.627 197.418 127.874 194.429 127.719 190.924C127.563 187.407 124.867 184.43 121.237 184.43Z" fill="#A4D6FF"/>
<path d="M159.756 44.3882L157.815 96.3024H146.158L147.128 44.3882H159.756Z" fill="#52A1FF"/>
<path d="M632.447 392.291C635.154 415.41 630.266 469.256 610.773 508.459H527.288C501.265 448.695 507.124 390.923 507.124 390.923C507.124 390.923 592.669 391.703 632.447 392.279V392.291Z" fill="#A4D6FF"/>
<path d="M574.338 391.403C574.338 391.403 589.95 368.333 609.431 377.203C628.9 386.074 619.172 464.995 639.527 488.053C659.883 511.112 690.866 508.447 690.866 508.447C690.866 508.447 673.158 496.924 666.964 473.866C660.77 450.807 666.964 402.038 657.224 378.98C647.483 355.921 614.739 345.286 591.723 354.145C568.707 363.015 566.239 391.307 566.239 391.307L574.338 391.403Z" fill="#3465E0"/>
<path d="M566.059 391.403C566.059 391.403 556.319 364.804 535.963 363.027C515.607 361.251 519.141 408.256 512.947 444.614C506.753 480.972 481.964 505.446 438.592 508.099C438.592 508.099 473.996 496.048 481.964 457.913C486.277 437.28 481.077 385.197 494.352 363.027C507.627 340.857 536.837 345.286 550.999 356.822C565.161 368.345 567.928 382.929 567.928 382.929L566.047 391.403H566.059Z" fill="#3465E0"/>
<path d="M671.313 507.139C644.787 488.798 643.96 453.904 643.242 423.116C642.666 398.437 642.163 377.131 628.613 369.761C598.396 353.329 574.254 376.399 574.015 376.627L573.176 375.775C573.428 375.535 598.169 351.84 629.176 368.705C643.337 376.411 643.841 398.041 644.428 423.08C645.147 453.58 645.961 488.162 671.984 506.142L671.301 507.127L671.313 507.139Z" fill="#021754"/>
<path d="M452.55 506.707L452.095 505.59C452.347 505.482 477.639 494.787 488.038 466.124C491.992 455.237 493.094 439.944 494.256 423.764C496.197 396.841 498.198 368.993 513.965 359.402C538.922 344.23 563.196 375.199 563.435 375.511L562.489 376.243C562.249 375.943 538.634 345.803 514.588 360.423C499.36 369.689 497.372 397.213 495.455 423.836C494.28 440.112 493.178 455.477 489.165 466.52C478.573 495.7 452.802 506.587 452.55 506.683V506.707Z" fill="#021754"/>
<path d="M575.536 390.923C575.536 390.923 581.395 375.259 566.742 367.421C552.077 359.582 526.677 367.421 527.648 401.69C528.63 435.959 536.442 473.169 534.489 496.672C532.536 520.174 523.742 528 523.742 528C523.742 528 535.472 529.957 549.154 519.19C562.836 508.423 570.66 482.964 570.66 458.477C570.66 433.991 555.995 389.939 559.913 379.172C564.262 367.168 566.754 390.923 566.754 390.923H575.548H575.536Z" fill="#3465E0"/>
<path d="M523.886 528.589L523.598 527.424C537.592 523.919 545.44 505.518 547.584 471.177C548.459 457.121 546.195 441.061 544.014 425.516C541.39 406.911 538.922 389.326 542.732 378.968C544.925 373.014 548.327 368.981 552.856 366.988C559.745 363.951 566.682 366.748 566.982 366.868L566.526 367.973C566.467 367.949 559.757 365.248 553.335 368.081C549.118 369.941 545.931 373.734 543.858 379.364C540.156 389.446 542.6 406.875 545.2 425.336C547.393 440.929 549.669 457.061 548.782 471.237C546.602 506.166 538.467 524.928 523.898 528.577L523.886 528.589Z" fill="#021754"/>
<path d="M576.123 391.031L574.949 390.827C574.961 390.743 576.411 382.004 571.858 372.066L572.948 371.562C577.657 381.86 576.195 390.671 576.123 391.031Z" fill="#021754"/>
<path d="M596.683 218.124C596.683 218.124 603.177 227.762 603.752 233.296C604.698 242.526 589.554 241.95 590.633 234.304C592.046 224.245 596.695 218.124 596.695 218.124H596.683Z" fill="#A4D6FF"/>
<path d="M571.439 258.203C571.439 258.203 577.933 267.841 578.508 273.375C579.454 282.605 564.31 282.029 565.388 274.383C566.802 264.324 571.451 258.203 571.451 258.203H571.439Z" fill="#A4D6FF"/>
<path d="M527.396 217.74C527.396 217.74 533.89 227.378 534.465 232.912C535.412 242.142 520.267 241.566 521.346 233.92C522.76 223.861 527.408 217.74 527.408 217.74H527.396Z" fill="#A4D6FF"/>
<path d="M527.396 296.817C527.396 296.817 533.89 306.456 534.465 311.989C535.412 321.22 520.267 320.644 521.346 312.998C522.76 302.939 527.408 296.817 527.408 296.817H527.396Z" fill="#A4D6FF"/>
<path d="M600.805 315.194C600.805 315.194 607.298 324.833 607.873 330.367C608.82 339.597 593.676 339.021 594.754 331.375C596.168 321.316 600.817 315.194 600.817 315.194H600.805Z" fill="#A4D6FF"/>
<path d="M565.939 340.485C565.939 340.485 572.433 350.124 573.008 355.657C573.955 364.888 558.811 364.312 559.889 356.666C561.303 346.607 565.951 340.485 565.951 340.485H565.939Z" fill="#A4D6FF"/>
<path d="M444.799 323.02C444.799 323.02 451.292 332.659 451.867 338.193C452.814 347.423 437.67 346.847 438.748 339.201C440.162 329.142 444.811 323.02 444.811 323.02H444.799Z" fill="#A4D6FF"/>
<path d="M407.178 377.719C407.178 377.719 413.672 387.358 414.247 392.892C415.193 402.122 400.049 401.546 401.127 393.9C402.541 383.841 407.19 377.719 407.19 377.719H407.178Z" fill="#A4D6FF"/>
<path d="M473.254 400.706C473.254 400.706 479.747 410.344 480.322 415.878C481.269 425.108 466.125 424.532 467.203 416.886C468.617 406.827 473.266 400.706 473.266 400.706H473.254Z" fill="#A4D6FF"/>
<path d="M429.654 469.196C429.654 469.196 436.148 478.835 436.723 484.369C437.67 493.599 422.526 493.023 423.604 485.377C425.018 475.318 429.666 469.196 429.666 469.196H429.654Z" fill="#A4D6FF"/>
<path d="M442.965 212.23C442.965 212.23 449.459 221.869 450.034 227.402C450.981 236.633 435.837 236.057 436.915 228.411C438.329 218.352 442.977 212.23 442.977 212.23H442.965Z" fill="#A4D6FF"/>
<path d="M413.6 272.451C413.6 272.451 420.093 282.089 420.669 287.623C421.615 296.853 406.471 296.277 407.549 288.631C408.963 278.572 413.612 272.451 413.612 272.451H413.6Z" fill="#A4D6FF"/>
<path d="M469.12 274.287C469.12 274.287 475.614 283.926 476.189 289.459C477.136 298.69 461.991 298.114 463.07 290.468C464.484 280.409 469.132 274.287 469.132 274.287H469.12Z" fill="#A4D6FF"/>
</g>
<defs>
<clipPath id="clip0_2_3805">
<rect width="766" height="541" fill="white"/>
</clipPath>
</defs>
</svg>
