<svg width="518" height="661" viewBox="0 0 518 661" fill="none" xmlns="http://www.w3.org/2000/svg">
<g clip-path="url(#clip0_5_173)">
<path d="M515.786 543.641C510.011 526.501 496.523 516.267 463.57 502.254C430.632 488.241 407.057 491.194 364.697 484.187C322.337 477.181 199.049 475.429 132.232 486.807C65.4139 498.186 12.8657 502.471 1.56299 543.627C-9.72525 584.783 42.6927 603.081 73.8801 613.779C107.672 625.36 107.296 625.721 143.665 636.318C184.23 648.145 271.526 668.065 327.996 658.438C384.466 648.811 418.258 643.151 453.715 625.417C480.401 612.07 528.926 582.64 515.771 543.627L515.786 543.641Z" fill="#83C7FF"/>
<path d="M444.076 592.846C440.155 592.962 431.587 591.355 421.167 588.85C403.063 584.478 379.343 577.327 364.581 571.537C360.992 570.118 357.186 569.365 353.365 569.365C351.933 569.365 350.485 569.467 349.053 569.684C345.739 570.19 341.701 570.292 338.097 568.917C330.239 565.92 332.656 550.937 332.656 550.937L332.352 547.188L330.34 522.462L378.344 520.088L384.321 546.073C384.321 546.073 410.328 557.336 430.545 566.817C435.697 569.221 440.473 571.522 444.337 573.491C463.44 583.19 456.508 592.527 444.076 592.875V592.846Z" fill="#52A1FF"/>
<path d="M444.076 592.846C440.155 592.962 431.587 591.355 421.167 588.85L430.531 566.789C435.683 569.192 440.458 571.493 444.322 573.462C463.426 583.161 456.494 592.498 444.062 592.846H444.076Z" fill="#3465E0"/>
<path d="M353.365 569.351C351.933 569.351 350.485 569.452 349.053 569.669C345.739 570.176 341.701 570.277 338.097 568.902C330.239 565.906 332.656 550.923 332.656 550.923L332.352 547.173L352.815 546.971L353.365 569.351Z" fill="#3465E0"/>
<path d="M378.228 619.337C375.435 624.592 360.124 621.422 344.595 615.82C337.62 613.301 330.615 610.29 324.682 607.322C314.305 602.14 299.934 594.8 288.936 589.14C284.145 586.693 279.066 584.898 273.841 583.957C270.599 583.364 267.314 583.118 264.015 583.234C262.017 583.306 259.861 583.031 257.719 582.075C250.396 578.847 247.979 570.002 248.197 565.153C248.24 564.255 248.197 562.75 248.124 560.911C247.791 552.776 246.561 537.851 246.561 537.851L291.584 531.032L296.128 555.526C296.128 555.526 339.067 575.851 357.157 588.286C358.3 589.068 359.4 589.849 360.442 590.616C376.101 602.096 381.991 612.201 378.199 619.323L378.228 619.337Z" fill="#52A1FF"/>
<path d="M378.228 619.337C375.435 624.592 360.124 621.422 344.595 615.82L360.471 590.631C376.13 602.111 382.02 612.215 378.228 619.337Z" fill="#3465E0"/>
<path d="M273.841 583.957C270.599 583.364 267.314 583.118 264.015 583.234C262.017 583.306 259.861 583.031 257.719 582.075C250.396 578.847 247.979 570.002 248.197 565.153C248.24 564.255 248.197 562.75 248.124 560.911L268.993 562.113L273.841 583.957Z" fill="#3465E0"/>
<path d="M119.713 351.411C119.713 351.411 109.409 400.239 109.583 417.582L109.756 434.924L162.84 430.813L176.372 349.268L119.728 351.396L119.713 351.411Z" fill="#3465E0"/>
<path d="M265.751 242.709C265.751 242.709 334.566 237.193 372.859 258.908C411.152 280.622 412.976 319.288 361.368 331.665C309.761 344.057 223.883 325.759 223.883 325.759L265.751 242.694V242.709Z" fill="#3465E0"/>
<path d="M401.442 545.986C401.442 545.986 401.34 546.102 401.21 546.145C399.806 546.797 392.353 547.998 381.34 549.475C380.877 549.547 380.399 549.605 379.907 549.678C374.104 550.459 367.418 551.284 360.138 552.182C359.617 552.24 359.096 552.312 358.575 552.37C352.396 553.123 345.825 553.89 339.067 554.672C338.575 554.73 338.068 554.788 337.576 554.831C330.948 555.598 324.146 556.351 317.373 557.104C316.867 557.162 316.375 557.22 315.883 557.263C309.327 557.987 302.785 558.682 296.447 559.348C295.94 559.406 295.448 559.464 294.941 559.507C287.923 560.231 281.164 560.926 274.883 561.534C274.406 561.577 273.928 561.635 273.45 561.664C265.91 562.417 259.109 563.039 253.45 563.517C252.958 563.56 252.48 563.604 252.003 563.647C242.524 564.443 236.633 564.791 236.474 564.443C236.243 563.937 235.287 558.986 233.999 551.994C233.927 551.617 233.869 551.227 233.797 550.836C232.74 545.074 231.496 538.097 230.266 531.163C230.193 530.786 230.135 530.395 230.063 530.019C228.775 522.679 227.516 515.47 226.546 509.911C225.446 503.701 224.737 499.532 224.737 499.532C224.737 499.532 224.607 499.937 224.289 500.632C223.551 502.311 221.771 505.713 218.196 509.564C217.718 510.085 217.197 510.621 216.647 511.156C213.898 513.849 210.28 516.643 205.591 519.162C205.128 519.408 204.65 519.654 204.172 519.9C203.434 520.262 202.667 520.624 201.871 520.986C196.777 523.258 190.771 524.272 184.432 524.069C183.926 524.069 183.419 524.026 182.898 523.997C176.212 523.591 169.208 521.869 162.507 518.887C162.03 518.684 161.567 518.467 161.089 518.235C160.221 517.83 159.352 517.396 158.498 516.932C157.963 516.657 157.428 516.368 156.907 516.064C149.931 512.112 143.52 506.727 138.498 499.995C138.035 499.387 137.601 498.779 137.167 498.142C137.123 498.07 137.065 497.997 137.022 497.925C136.978 497.882 136.964 497.838 136.921 497.78C136.776 497.563 136.631 497.346 136.472 497.114C132.68 491.338 129.453 484.375 126.732 477.209C126.616 476.877 126.486 476.558 126.37 476.225C123.939 469.667 121.942 462.979 120.35 456.885C120.234 456.451 120.133 456.031 120.017 455.611C117.542 445.999 116.11 438.066 115.574 434.852C115.502 434.461 115.444 434.143 115.415 433.897C115.357 433.52 115.328 433.317 115.328 433.317L125.878 432.811L145.488 431.87C145.517 431.493 145.546 431.132 145.575 430.755C146.067 423.966 146.819 417.061 147.731 410.315C147.789 409.88 147.847 409.461 147.905 409.026C148.238 406.623 148.585 404.249 148.947 401.919C149.178 400.384 149.424 398.85 149.67 397.358C150.177 394.232 150.698 391.192 151.233 388.282C151.291 387.978 151.349 387.659 151.393 387.355C152.927 378.945 154.461 371.605 155.633 366.235C155.705 365.931 155.763 365.627 155.836 365.337C157.051 359.908 157.847 356.68 157.847 356.68C157.847 356.68 160.626 356.492 165.488 356.188C165.836 356.174 166.198 356.145 166.574 356.13C171.755 355.797 178.991 355.348 187.558 354.813C187.848 354.798 188.137 354.769 188.441 354.755C194.635 354.379 201.495 353.959 208.789 353.51C209.194 353.495 209.599 353.467 210.005 353.438C216.315 353.061 222.928 352.67 229.687 352.279C230.049 352.265 230.381 352.236 230.743 352.222C237.357 351.845 244.101 351.454 250.802 351.078C251.236 351.049 251.655 351.02 252.09 351.006C259.036 350.615 265.954 350.238 272.64 349.891C273.074 349.876 273.508 349.847 273.942 349.818C280.961 349.457 287.72 349.124 294.015 348.834C294.42 348.82 294.811 348.791 295.202 348.776C303.046 348.414 310.123 348.125 316.085 347.937C316.389 347.937 316.693 347.922 316.997 347.893C318.357 347.85 319.674 347.821 320.904 347.792C325.391 347.676 328.98 347.647 331.411 347.705C331.787 347.705 332.12 347.719 332.439 347.748C334.219 347.821 335.926 347.98 337.591 348.197C338.054 348.255 338.517 348.313 338.951 348.385C347.548 349.703 354.451 352.685 359.313 355.435C359.661 355.638 360.008 355.826 360.326 356.014C364.943 358.75 367.447 361.11 367.447 361.11C367.447 361.11 367.678 362.181 368.141 364.28C368.199 364.541 368.257 364.801 368.33 365.091C369.198 369.014 370.746 375.818 372.946 385.285C373.033 385.691 373.134 386.082 373.236 386.487C374.553 392.133 376.087 398.69 377.852 406.102C377.925 406.421 378.011 406.725 378.084 407.058C378.388 408.303 378.692 409.576 378.995 410.865C380.066 415.352 381.297 421.143 382.628 427.817C382.7 428.222 382.787 428.613 382.859 429.033C384.032 435.011 385.276 441.656 386.535 448.648C386.593 448.995 386.651 449.343 386.724 449.69C387.91 456.306 389.126 463.24 390.298 470.189C390.342 470.435 390.385 470.666 390.414 470.912C391.557 477.615 392.686 484.346 393.743 490.89C393.786 491.223 393.844 491.541 393.902 491.874C395.045 498.967 396.13 505.8 397.086 512.097C397.143 512.532 397.216 512.951 397.274 513.371C397.896 517.439 398.46 521.261 398.981 524.764C400.747 536.967 401.746 545.204 401.471 545.943L401.442 545.986Z" fill="#0641B7"/>
<path d="M398.953 524.793L399.85 533.276C393.627 533.913 386.203 534.68 379.994 535.317L379.661 531.741L377.736 515.485C378.88 515.369 379.893 515.253 380.732 515.166C384.48 514.79 390.617 514.124 397.245 513.4C397.187 512.98 397.115 512.546 397.057 512.126C390.892 512.821 383.627 513.646 377.548 514.355C377.259 512.097 376.058 502.572 375.001 493.857C376.289 493.712 377.447 493.582 378.388 493.481C381.933 493.104 387.635 492.525 393.858 491.888C393.8 491.555 393.743 491.237 393.699 490.904C387.65 491.599 380.703 492.424 374.9 493.104C374.306 488.24 373.771 483.695 373.482 480.944C373.265 478.903 373.004 476.051 372.715 472.809C374.032 472.678 375.204 472.548 376.159 472.447C379.473 472.099 384.654 471.549 390.371 470.927C390.327 470.681 390.298 470.449 390.255 470.203C384.48 470.768 378.055 471.39 372.628 471.911C372.078 465.527 371.455 457.768 370.949 451.297C372.063 451.167 373.062 451.065 373.887 450.978C376.926 450.66 381.528 450.197 386.666 449.69C386.608 449.343 386.55 448.995 386.478 448.648C381.297 449.198 375.71 449.82 370.862 450.342C370.327 443.465 369.936 438.268 369.936 438.268L368.923 430.538C369.965 430.437 370.906 430.35 371.687 430.263C374.393 429.973 378.33 429.539 382.802 429.032C382.715 428.627 382.642 428.222 382.57 427.816C377.925 428.294 373.047 428.772 368.749 429.206L367.707 421.157L366.492 408.259C367.577 408.143 368.532 408.027 369.343 407.955C371.542 407.723 374.567 407.419 378.026 407.072C377.953 406.739 377.867 406.435 377.794 406.117C373.901 406.522 369.95 406.927 366.405 407.289L366.072 403.714L364.147 387.457C365.29 387.341 366.303 387.225 367.143 387.138C368.764 386.979 370.819 386.762 373.192 386.501C373.091 386.096 373.004 385.705 372.903 385.3C369.835 385.662 366.781 385.995 363.988 386.328C363.698 384.069 362.497 374.544 361.441 365.829C362.743 365.684 363.887 365.554 364.842 365.453C365.84 365.351 366.998 365.221 368.286 365.091C368.228 364.801 368.156 364.541 368.098 364.28C365.753 364.555 363.481 364.816 361.339 365.076C360.934 361.747 360.558 358.577 360.269 356.029C359.95 355.841 359.603 355.652 359.256 355.45C359.617 359.04 359.95 362.398 360.24 365.207C353.713 365.974 348.894 366.553 348.894 366.553L340.804 367.262C340.355 362.369 339.935 357.824 339.646 355.073C339.458 353.336 339.197 351.034 338.893 348.4C338.445 348.327 337.996 348.269 337.533 348.212C338.256 355.088 338.966 362.167 339.516 367.378L331.715 368.059L319.124 369.477C318.618 364.628 318.155 360.126 317.865 357.39C317.663 355.377 317.388 352.598 317.084 349.428L328.227 348.081C328.227 348.081 329.4 347.951 331.339 347.748C328.908 347.69 325.318 347.734 320.832 347.835L316.968 348.342C316.968 348.212 316.939 348.081 316.925 347.937C316.621 347.951 316.317 347.965 316.013 347.98C316.013 348.139 316.027 348.298 316.056 348.458L312.062 348.993L295.303 350.34C295.245 349.833 295.188 349.341 295.144 348.82C294.753 348.834 294.348 348.863 293.957 348.877C294.015 349.428 294.059 349.978 294.117 350.542C291.164 350.919 282.351 352.033 274.232 353.018C274.116 352.004 274 350.948 273.885 349.876C273.45 349.905 273.016 349.934 272.582 349.949C272.698 351.006 272.814 352.091 272.929 353.191C268.24 353.756 263.928 354.263 261.265 354.552C259.08 354.784 256.012 355.088 252.495 355.45C252.35 354.046 252.191 352.583 252.032 351.078C251.598 351.092 251.178 351.121 250.744 351.15C250.903 352.583 251.077 354.074 251.25 355.566C244.897 356.202 237.357 356.926 231.134 357.534C230.989 355.87 230.83 354.103 230.685 352.279C230.324 352.294 229.991 352.323 229.629 352.337C229.803 354.046 229.991 355.826 230.164 357.621C223.565 358.258 218.688 358.721 218.688 358.721L210.656 359.474C210.439 357.578 210.207 355.566 209.961 353.51C209.556 353.539 209.136 353.568 208.746 353.582C208.948 355.508 209.151 357.534 209.368 359.604L201.524 360.328L189.064 361.964C188.861 359.72 188.629 357.303 188.412 354.827C188.108 354.842 187.819 354.871 187.53 354.885C187.732 357.158 187.935 359.604 188.152 362.08L184.143 362.601L167.384 363.947C167.124 361.515 166.834 358.866 166.545 356.188C166.169 356.217 165.807 356.231 165.46 356.246C165.706 358.707 165.966 361.356 166.227 364.092C164.432 364.324 160.452 364.816 155.807 365.409C155.749 365.699 155.676 366.003 155.604 366.307L166.328 365.091C167.023 372.343 167.746 379.929 168.282 385.459C166.473 385.72 162.855 386.313 158.571 386.747C156.299 386.979 153.838 387.196 151.364 387.428C151.306 387.732 151.248 388.05 151.205 388.354C154.07 388.065 155.85 387.891 155.85 387.891L168.397 386.661C168.788 390.859 169.049 393.595 169.049 393.595L170.641 406.782C167.587 407.086 158.875 407.97 150.843 408.795C150.684 407.159 150.206 402.686 149.656 397.431C149.41 398.922 149.178 400.442 148.932 401.976L149.83 408.896C149.178 408.954 148.542 409.026 147.905 409.099C147.847 409.533 147.789 409.953 147.731 410.387C148.513 410.3 149.265 410.228 149.989 410.141L150.872 421.331L151.841 430.176C149.627 430.408 147.5 430.625 145.575 430.828C145.546 431.204 145.517 431.566 145.488 431.942C147.818 431.711 150.018 431.508 151.957 431.32L153.202 442.611C153.202 442.611 153.607 446.636 154.157 452.035C149.453 452.614 145.097 453.121 142.42 453.396C140.307 453.628 137.326 453.932 133.939 454.265L133.331 446.071L132.145 433.26C136.66 432.811 141.306 432.362 145.503 431.942L125.893 432.883C122.463 433.245 118.859 433.607 115.43 433.954C115.473 434.2 115.516 434.519 115.589 434.91C119.453 434.504 124.836 433.969 130.553 433.404L131.769 444.869C131.769 444.869 132.13 448.952 132.622 454.409C128.7 454.815 124.301 455.263 120.032 455.683C120.147 456.103 120.249 456.537 120.364 456.957C123.867 456.581 128.208 456.089 132.738 455.567C133.317 461.98 134.055 469.913 134.591 475.414C132 475.704 129.207 475.993 126.399 476.297C126.515 476.63 126.645 476.949 126.761 477.282C129.221 477.036 131.913 476.775 134.692 476.5C134.808 477.557 134.894 478.512 134.981 479.309C135.401 483.304 136.154 490.021 136.95 497.143C136.805 497.158 136.66 497.172 136.501 497.187C136.66 497.418 136.805 497.635 136.95 497.853C136.978 497.853 137.007 497.853 137.036 497.853C137.036 497.91 137.036 497.954 137.051 498.012C137.094 498.084 137.152 498.157 137.196 498.229C137.63 498.851 138.064 499.474 138.527 500.067C138.44 499.315 138.353 498.533 138.266 497.722C145.488 496.941 153.1 496.115 158.701 495.493C159.468 502.746 160.264 510.317 160.857 515.818C159.512 515.933 158.195 516.049 156.936 516.151C157.471 516.455 157.992 516.759 158.527 517.019C159.381 516.932 160.177 516.86 160.959 516.787C161.017 517.323 161.075 517.83 161.118 518.322C161.596 518.554 162.059 518.771 162.536 518.973C162.449 518.192 162.377 517.424 162.29 516.643C166.603 516.208 169.41 515.933 169.41 515.933L181.958 514.703C182.363 518.901 182.609 521.637 182.609 521.637L182.913 524.084C183.434 524.127 183.94 524.141 184.447 524.156C184.114 521.13 183.752 517.786 183.405 514.544L194.896 513.429L203.579 512.56C203.912 516.672 204.129 519.35 204.129 519.35L204.187 519.972C204.664 519.726 205.142 519.48 205.605 519.234C205.388 517.005 205.157 514.688 204.911 512.43L216.17 511.301C216.17 511.301 216.343 511.287 216.676 511.243C217.226 510.707 217.747 510.172 218.225 509.651L217.371 509.723L204.78 511.127C204.274 506.292 203.811 501.79 203.521 499.04C203.319 497.027 203.044 494.248 202.74 491.078L213.898 489.731C213.898 489.731 217.805 489.312 223.073 488.761C223.493 492.786 223.912 496.912 224.303 500.719C224.622 500.024 224.752 499.619 224.752 499.619C224.752 499.619 225.475 503.773 226.561 509.998C232.755 509.231 240.44 508.29 245.968 507.653C246.402 512.01 246.691 514.862 246.691 514.862L248.095 528.195C241.583 528.933 236.793 529.483 236.793 529.483L230.078 530.106C230.15 530.482 230.208 530.873 230.28 531.249C236.199 530.598 243.16 529.845 248.283 529.295L249.658 540.355L250.527 549.127C243.927 549.808 239.036 550.3 239.036 550.3L233.811 550.923C233.884 551.313 233.942 551.704 234.014 552.081C239.615 551.4 245.91 550.647 250.613 550.112L251.786 561.649C251.786 561.649 251.872 562.417 252.017 563.734C252.495 563.691 252.972 563.647 253.464 563.604L253.363 562.851L252.162 549.938C253.233 549.822 254.188 549.721 254.998 549.634C258.834 549.229 265.201 548.592 272.018 547.926L273.233 559.377C273.233 559.377 273.32 560.245 273.45 561.751C273.928 561.707 274.391 561.664 274.883 561.62L274.811 560.593L273.61 547.781C280.658 547.086 287.995 546.362 293.436 545.841L294.681 557.133C294.681 557.133 294.768 558.045 294.941 559.594C295.448 559.536 295.94 559.478 296.447 559.435L296.36 558.32L294.941 545.697C299.124 545.291 301.845 545.031 301.845 545.031L314.609 543.873L315.608 554.918C315.608 554.918 315.709 555.815 315.897 557.35C316.389 557.307 316.881 557.249 317.388 557.191L317.286 556.062L316.129 543.684L327.388 542.497L336.216 541.513L337.272 552.573C337.272 552.573 337.388 553.441 337.591 554.918C338.083 554.86 338.589 554.802 339.081 554.759L338.951 553.774L337.721 541.354L348.647 540.138C348.647 540.138 352.179 539.703 357.056 539.11L358.3 550.343C358.3 550.343 358.416 551.125 358.59 552.442C359.125 552.385 359.632 552.312 360.153 552.254L360.08 551.53L358.286 538.951C364.639 538.183 372.816 537.199 378.59 536.548L379.748 548.085C379.748 548.085 379.806 548.693 379.936 549.764C380.414 549.706 380.906 549.634 381.369 549.562L381.325 549.272L380.124 536.374C381.195 536.258 382.15 536.142 382.961 536.07C386.81 535.665 393.164 535.028 399.98 534.362L401.196 545.827C401.196 545.827 401.196 545.972 401.239 546.247C401.369 546.189 401.456 546.131 401.471 546.087C401.76 545.335 400.747 537.112 398.981 524.909L398.953 524.793ZM374.61 501.211L376.014 514.529C369.516 515.282 364.712 515.832 364.712 515.832L356.231 516.628C356.043 514.413 355.247 505.018 354.465 496.362C360.659 495.58 368.358 494.639 373.901 494.002C374.335 498.359 374.625 501.226 374.625 501.226L374.61 501.211ZM257.386 410.011L258.327 418.841C252.104 419.493 244.68 420.245 238.471 420.882L238.138 417.307L236.214 401.05C237.357 400.934 238.37 400.818 239.209 400.746C243.016 400.341 249.282 399.675 256.026 398.951L257.386 410.025V410.011ZM257.242 398.792C264.55 397.995 272.264 397.17 277.85 396.562L278.718 407.752L279.688 416.597C274.984 417.075 270.643 417.538 267.965 417.813C265.939 418.031 263.117 418.32 259.905 418.667L259.557 415.034L257.227 398.792H257.242ZM236.923 421.042C230.324 421.722 225.417 422.214 225.417 422.214L216.546 423.256L216.025 419.623L214.824 403.352C221.09 402.671 228.992 401.803 234.665 401.195L236.026 412.255L236.908 421.027L236.923 421.042ZM215.345 423.416L208.297 424.241L196.054 425.848L195.648 421.794L193.521 405.494L204.853 404.466C204.853 404.466 208.659 404.046 213.811 403.482L214.39 414.556L215.359 423.401L215.345 423.416ZM207.067 425.602C207.067 425.602 210.598 425.167 215.475 424.574L216.72 435.822C216.72 435.822 217.255 439.701 217.935 444.942L210.54 445.579L198.369 446.94L197.371 439.224L196.126 426.803L207.052 425.587L207.067 425.602ZM216.72 424.429C223.073 423.647 231.25 422.677 237.024 422.026L238.182 433.564C238.182 433.564 238.631 437.588 239.224 442.973C232.639 443.625 227.747 444.117 227.747 444.117L219.31 444.841L218.529 437.009L216.72 424.444V424.429ZM238.558 421.852C239.629 421.736 240.599 421.635 241.395 421.548C245.244 421.143 251.598 420.506 258.414 419.84L259.63 431.291C259.63 431.291 259.991 435.373 260.498 440.831C254.304 441.453 246.966 442.191 240.816 442.799L239.759 434.765L238.558 421.852ZM260.006 419.681C267.054 418.986 274.391 418.262 279.833 417.741L281.077 429.032C281.077 429.032 281.482 433.057 282.047 438.457C277.329 439.021 272.973 439.542 270.31 439.817C268.183 440.049 265.216 440.353 261.815 440.686L261.207 432.478L260.02 419.666L260.006 419.681ZM323.307 455.003L306.563 456.986C305.839 450.197 305.275 445.13 305.275 445.13L304.464 436.43L315.998 435.518L325 434.577C325.854 440.961 326.896 449.039 327.576 454.684L323.307 455.003ZM327.735 456.06C327.851 457.087 327.952 457.985 328.039 458.767C328.444 462.719 329.038 469.392 329.646 476.457L325.637 476.992L308.878 478.339C308.212 472.172 307.416 464.76 306.736 458.521L318.271 456.885L327.75 456.074L327.735 456.06ZM321.093 433.969L304.392 435.634L303.683 427.961L302.525 415.584L313.77 414.397L322.598 413.413L323.654 424.472C323.654 424.472 324.19 428.323 324.87 433.549L321.093 433.983V433.969ZM303.06 435.851C300.036 436.227 291.367 437.313 283.364 438.297L282.756 430.22L281.338 417.596C285.506 417.191 288.241 416.93 288.241 416.93L300.991 415.772L301.989 426.818C301.989 426.818 302.438 430.639 303.046 435.851H303.06ZM282.148 439.47C282.814 445.955 283.639 454.105 284.218 459.664C279.529 460.099 275.173 460.446 272.51 460.735C270.339 460.967 267.256 461.3 263.74 461.676C263.016 454.829 262.466 449.69 262.466 449.69L261.887 441.829C269.065 441.004 276.591 440.121 282.134 439.47H282.148ZM284.044 447.417L283.436 439.311C287.72 438.804 290.513 438.485 290.513 438.485L298.328 437.342L303.162 436.633C303.914 443.103 304.884 451.413 305.521 457.16C303.741 457.42 299.63 458.13 294.753 458.651C291.787 458.984 288.545 459.288 285.39 459.577C284.623 452.643 284.03 447.432 284.03 447.432L284.044 447.417ZM292.8 459.954L305.694 458.68C305.796 459.606 305.882 460.446 305.955 461.17C306.36 465.078 306.997 471.593 307.662 478.541C304.71 478.918 295.897 480.032 287.778 481.017C287.083 474.72 286.244 467.076 285.52 460.663C289.905 460.229 292.785 459.968 292.785 459.968L292.8 459.954ZM295.014 480.973L307.764 479.526C308.458 486.778 309.182 494.378 309.703 499.894C307.894 500.154 304.276 500.748 300.007 501.182C296.866 501.501 293.393 501.805 290.035 502.094C289.514 497.23 289.037 492.699 288.747 489.963C288.53 487.893 288.212 485.027 287.85 481.755C292.163 481.292 294.999 480.973 294.999 480.973H295.014ZM308.979 479.352L320.557 478.657L329.732 477.542C330.34 484.723 330.948 492.178 331.382 497.635L327.851 498.026L311.165 499.691C310.644 494.87 310.166 490.397 309.877 487.69C309.66 485.606 309.341 482.681 308.979 479.366V479.352ZM330.644 477.427L341.788 476.08C341.788 476.08 345.695 475.675 350.977 475.11C351.73 482.349 352.512 489.92 353.076 495.406L345.275 496.086L332.685 497.491C332.193 492.656 331.73 488.153 331.44 485.417C331.223 483.405 330.963 480.626 330.659 477.456L330.644 477.427ZM343.018 474.72L330.557 476.341C329.964 470.044 329.284 462.386 328.719 455.973L339.573 455.046C339.573 455.046 343.481 454.569 348.763 453.932C348.879 454.916 348.966 455.785 349.053 456.552C349.458 460.475 350.138 467.018 350.862 473.996L343.018 474.734V474.72ZM340.789 453.686L328.589 454.612C327.996 447.837 327.562 442.77 327.562 442.77L326.462 434.418L337.258 433.274C337.258 433.274 340.963 432.97 346.042 432.55C346.896 439.036 347.953 447.215 348.619 452.817L340.775 453.686H340.789ZM338.502 432.015L326.346 433.375L325.333 425.66L324.088 413.239L335.029 412.023C335.029 412.023 338.56 411.589 343.437 410.995L344.682 422.229C344.682 422.229 345.218 426.108 345.898 431.363L338.502 432V432.015ZM336.259 410.662L324.016 412.255L323.611 408.201L321.469 391.915L332.801 390.888C332.801 390.888 336.607 390.468 341.773 389.903L342.338 400.978L343.322 409.823L336.274 410.662H336.259ZM321.614 403.163L322.496 412.457L318.864 412.935L302.38 414.252L302.033 410.474L300.123 394.42L311.469 392.813L319.92 392.046L321.614 403.163ZM300.89 414.44C297.937 414.73 289.283 415.613 281.236 416.453L280.831 412.79L278.906 396.446C283.205 395.983 286.027 395.665 286.027 395.665L298.762 394.622L300.108 405.494L300.918 414.44H300.89ZM278.733 395.23C278.472 392.712 277.488 383.505 276.605 375.036C280.918 374.602 283.726 374.312 283.726 374.312L296.273 373.082C296.678 377.28 296.924 380.016 296.924 380.016L298.516 393.204C295.462 393.508 286.75 394.391 278.718 395.23H278.733ZM277.705 395.317C272.9 395.809 268.443 396.273 265.722 396.562C263.566 396.794 260.527 397.127 257.068 397.518C256.793 394.999 255.78 385.705 254.839 377.208C262.061 376.484 269.673 375.716 275.259 375.152C275.708 379.422 276.012 382.231 276.012 382.231L277.705 395.332V395.317ZM255.852 397.662C249.615 398.357 242.22 399.197 236.04 399.906C235.751 397.648 234.549 388.123 233.493 379.422C234.795 379.263 235.939 379.147 236.879 379.046C240.686 378.641 246.981 378.004 253.725 377.323C254.217 381.652 254.55 384.504 254.55 384.504L255.838 397.662H255.852ZM234.52 400.08C228.008 400.833 223.218 401.383 223.218 401.383L214.737 402.165C214.549 399.964 213.753 390.555 212.971 381.898C219.166 381.116 226.85 380.175 232.393 379.538C232.827 383.896 233.117 386.747 233.117 386.747L234.535 400.08H234.52ZM213.695 402.266L206.025 402.975L193.333 404.162C193.072 401.571 192.161 392.639 191.321 384.33L202.581 383.201C202.581 383.201 206.459 382.709 211.698 382.057C212.132 386.226 212.407 388.933 212.407 388.933L213.71 402.266H213.695ZM193.666 416.742L194.548 426.036L190.902 426.514L174.432 427.831L174.07 424.067L172.175 407.998L183.521 406.392L191.972 405.624L193.651 416.742H193.666ZM185.807 427.961L194.635 426.991L195.692 438.051C195.692 438.051 196.213 441.902 196.907 447.128L193.13 447.548L176.429 449.212L175.72 441.54L174.563 429.163L185.822 427.976L185.807 427.961ZM177.616 470.695C175.836 470.941 171.726 471.651 166.849 472.186C163.868 472.505 160.626 472.809 157.485 473.098C156.704 466.179 156.125 460.953 156.125 460.953L155.517 452.86C159.801 452.354 162.594 452.021 162.594 452.021L170.409 450.892L175.228 450.168C175.995 456.639 176.965 464.948 177.602 470.695H177.616ZM177.312 458.694L176.516 449.994L188.051 449.097L197.052 448.156C197.906 454.54 198.948 462.617 199.614 468.263L195.359 468.582L178.615 470.565C177.877 463.775 177.327 458.709 177.327 458.709L177.312 458.694ZM190.294 470.449L199.773 469.653C199.889 470.666 199.99 471.578 200.077 472.345C200.497 476.312 201.075 482.971 201.683 490.05L197.689 490.571L180.93 491.917C180.265 485.75 179.469 478.339 178.774 472.085L190.308 470.449H190.294ZM199.614 456.349L198.514 447.996L209.31 446.853C209.31 446.853 213.015 446.549 218.095 446.129C218.948 452.614 220.019 460.793 220.671 466.396L212.827 467.264L200.627 468.176C200.048 461.416 199.599 456.349 199.599 456.349H199.614ZM220.222 454.163L219.412 446.013C225.721 445.478 233.696 444.812 239.354 444.276C240.049 450.674 240.917 458.593 241.51 464.079C234.897 464.803 229.976 465.324 229.976 465.324L221.698 466.251C220.873 459.346 220.236 454.149 220.236 454.149L220.222 454.163ZM240.989 444.131C242.031 444.03 242.972 443.943 243.754 443.856C247.56 443.465 253.855 442.756 260.599 441.974C261.178 448.373 261.916 456.32 262.452 461.821C256.287 462.487 249.021 463.269 242.929 463.935C242.393 457.044 242.003 451.862 242.003 451.862L240.989 444.117V444.131ZM245.939 464.572C249.702 464.181 255.896 463.558 262.553 462.907C262.654 463.978 262.756 464.919 262.842 465.73C263.248 469.725 264 476.442 264.796 483.55C258.443 484.173 250.903 484.911 244.68 485.519C244.13 479.135 243.508 471.361 243.001 464.905C244.115 464.789 245.114 464.673 245.939 464.586V464.572ZM263.87 462.777C271.091 462.067 278.718 461.315 284.333 460.764C284.435 461.763 284.522 462.646 284.608 463.414C285.014 467.395 285.723 474.083 286.475 481.176C281.786 481.741 277.474 482.247 274.825 482.537C272.64 482.768 269.572 483.072 266.055 483.434C265.375 477.065 264.565 469.262 263.884 462.791L263.87 462.777ZM286.548 481.9C287.315 489.138 288.111 496.709 288.704 502.21C284.015 502.615 279.673 502.963 277.011 503.238C274.825 503.469 271.772 503.817 268.269 504.208C267.748 499.416 267.271 494.972 266.981 492.265C266.764 490.209 266.46 487.372 266.113 484.115C273.335 483.333 280.947 482.508 286.548 481.9ZM288.805 503.18C289.254 507.45 289.558 510.259 289.558 510.259L291.237 523.36C286.432 523.852 281.974 524.301 279.254 524.605C277.097 524.836 274.058 525.169 270.599 525.546C270.324 523.027 269.311 513.747 268.371 505.25C275.592 504.526 283.205 503.759 288.791 503.194L288.805 503.18ZM290.137 503.05C294.449 502.615 297.257 502.326 297.257 502.326L309.804 501.095C310.21 505.293 310.456 508.029 310.456 508.029L312.062 521.217C308.994 521.521 300.282 522.404 292.264 523.229C292.004 520.711 291.02 511.504 290.137 503.035V503.05ZM311.309 500.907L322.786 499.792L331.484 498.924C331.816 503.035 332.019 505.713 332.019 505.713L333.293 518.771L330.08 519.075L313.509 521.029C313.249 518.64 312.236 509.419 311.309 500.922V500.907ZM332.815 498.779L344.074 497.65C344.074 497.65 347.953 497.158 353.192 496.506C353.626 500.675 353.901 503.397 353.901 503.397L355.203 516.715L347.533 517.424L334.841 518.612C334.581 516.02 333.669 507.088 332.829 498.779H332.815ZM373.814 493.235C367.288 494.002 362.454 494.581 362.454 494.581L354.364 495.276C353.93 490.383 353.496 485.837 353.206 483.087C352.989 481.046 352.671 478.208 352.294 474.966C358.517 474.314 366.231 473.489 371.759 472.91C372.497 480.163 373.25 487.748 373.814 493.235ZM369.878 454.337C370.283 458.303 370.963 464.963 371.673 472.012C365.088 472.649 360.196 473.113 360.196 473.113L352.179 473.865C351.455 467.626 350.558 460.113 349.791 453.816C356.086 453.049 363.973 452.108 369.574 451.471C369.69 452.556 369.791 453.526 369.878 454.337ZM369.458 450.515C362.845 451.239 357.924 451.775 357.924 451.775L349.632 452.701C348.807 445.796 348.17 440.585 348.17 440.585L347.359 432.449C353.669 431.913 361.643 431.233 367.302 430.712C367.997 437.11 368.865 445.029 369.458 450.515ZM366.13 419.985C366.13 419.985 366.578 423.995 367.172 429.38C360.587 430.031 355.695 430.524 355.695 430.524L347.244 431.262L346.462 423.43L344.668 410.85C351.021 410.083 359.198 409.099 364.958 408.447L366.115 419.985H366.13ZM364.002 398.69L364.871 407.463C358.271 408.143 353.38 408.635 353.38 408.635L344.508 409.678L344.002 406.044L342.801 389.787C349.053 389.093 356.969 388.224 362.628 387.63L364.002 398.69ZM360.326 365.959C360.761 370.317 361.05 373.183 361.05 373.183L362.454 386.501C355.941 387.254 351.151 387.804 351.151 387.804L342.67 388.6C342.482 386.385 341.686 376.99 340.905 368.319C347.099 367.537 354.798 366.596 360.326 365.959ZM330.528 369.622C330.528 369.622 334.407 369.13 339.646 368.478C340.08 372.647 340.355 375.369 340.355 375.369L341.657 388.687L333.987 389.411L321.295 390.584C321.035 387.992 320.123 379.075 319.269 370.751L330.528 369.622ZM317.938 370.896C318.271 375.022 318.473 377.685 318.473 377.685L319.747 390.743L316.519 391.047L299.949 393.016C299.688 390.613 298.675 381.406 297.749 372.894L309.24 371.779L317.938 370.91V370.896ZM307.011 350.629L316.187 349.529C316.794 356.695 317.402 364.164 317.836 369.607L314.32 369.998L297.633 371.663C297.098 366.843 296.62 362.384 296.345 359.662C296.114 357.578 295.81 354.668 295.448 351.338L307.026 350.644L307.011 350.629ZM281.468 352.945L294.218 351.498C294.913 358.75 295.636 366.35 296.157 371.866C294.348 372.126 290.73 372.72 286.461 373.154C283.32 373.473 279.847 373.777 276.49 374.052C275.969 369.188 275.491 364.657 275.202 361.921C274.984 359.85 274.666 356.984 274.304 353.713C278.617 353.235 281.453 352.931 281.453 352.931L281.468 352.945ZM273.002 353.872C273.769 361.11 274.565 368.695 275.158 374.196C270.455 374.587 266.113 374.935 263.45 375.224C261.279 375.456 258.226 375.803 254.723 376.194C254.203 371.403 253.725 366.973 253.435 364.251C253.233 362.196 252.929 359.358 252.582 356.116C259.803 355.334 267.416 354.509 273.016 353.886L273.002 353.872ZM234.665 358.012C238.442 357.607 244.651 356.941 251.337 356.231C252.133 363.383 253.001 370.852 253.609 376.31C247.241 377.034 239.658 377.931 233.392 378.655C232.798 373.791 232.263 369.26 231.973 366.51C231.771 364.454 231.496 361.617 231.206 358.374C232.523 358.244 233.696 358.113 234.651 358.012H234.665ZM230.266 358.461C230.989 365.713 231.756 373.299 232.306 378.785C225.779 379.553 220.946 380.132 220.946 380.132L212.856 380.827C212.422 375.934 211.987 371.388 211.698 368.638C211.481 366.582 211.162 363.759 210.786 360.516C217.009 359.865 224.737 359.04 230.266 358.461ZM200.294 361.646C200.294 361.646 204.201 361.24 209.484 360.676C210.236 367.914 211.018 375.485 211.582 380.957L203.782 381.637L191.191 383.041C190.699 378.206 190.236 373.704 189.946 370.968C189.744 368.956 189.469 366.177 189.165 363.006L200.308 361.66L200.294 361.646ZM168.368 373.241C168.151 371.142 167.833 368.232 167.471 364.903L179.049 364.208L188.224 363.093C188.832 370.259 189.44 377.729 189.874 383.172L186.343 383.577L169.656 385.227C169.135 380.421 168.658 375.948 168.368 373.227V373.241ZM169.801 386.458L181.278 385.358L189.975 384.489C190.308 388.6 190.511 391.278 190.511 391.278L191.784 404.336L188.572 404.64L172.001 406.594C171.74 404.191 170.727 394.984 169.801 386.472V386.458ZM152.898 426.325L150.973 409.996C155.271 409.519 158.093 409.214 158.093 409.214L170.814 408.172L172.16 419.029L172.971 427.976C170.018 428.265 161.349 429.148 153.317 429.988L152.912 426.325H152.898ZM153.448 431.117C157.616 430.712 160.336 430.437 160.336 430.437L173.101 429.293L174.099 440.338C174.099 440.338 174.548 444.16 175.17 449.357C172.146 449.734 163.477 450.834 155.474 451.804L154.88 443.726L153.462 431.103L153.448 431.117ZM134.562 463.225L133.983 455.365C141.161 454.54 148.686 453.657 154.229 453.005C154.895 459.49 155.72 467.641 156.299 473.214C151.595 473.634 147.254 473.996 144.591 474.285C142.42 474.517 139.337 474.835 135.821 475.226C135.097 468.379 134.547 463.24 134.547 463.24L134.562 463.225ZM146.892 496.058C144.707 496.289 141.638 496.608 138.122 496.955C137.442 490.586 136.631 482.797 135.951 476.312C143.173 475.603 150.799 474.85 156.415 474.3C156.516 475.299 156.603 476.182 156.689 476.949C157.095 480.93 157.804 487.618 158.556 494.711C153.867 495.276 149.555 495.782 146.892 496.072V496.058ZM157.601 474.184C162.001 473.75 164.881 473.475 164.881 473.475L177.775 472.201C177.877 473.127 177.963 473.967 178.036 474.676C178.441 478.585 179.078 485.099 179.744 492.048C176.791 492.424 167.978 493.539 159.859 494.523C159.164 488.226 158.325 480.582 157.601 474.169V474.184ZM172.102 514.732C168.962 515.05 165.489 515.354 162.131 515.629C161.61 510.765 161.132 506.234 160.843 503.498C160.626 501.443 160.307 498.562 159.946 495.29C164.258 494.813 167.095 494.509 167.095 494.509L179.845 493.061C180.539 500.314 181.263 507.914 181.784 513.443C179.975 513.704 176.357 514.298 172.088 514.732H172.102ZM203.42 511.2L199.903 511.591L183.217 513.255C182.681 508.435 182.204 503.976 181.929 501.255C181.697 499.17 181.393 496.26 181.032 492.931L192.609 492.236L201.77 491.121C202.378 498.287 202.986 505.757 203.42 511.2ZM215.07 488.298L202.595 489.934C202.016 483.622 201.321 475.964 200.771 469.566L211.626 468.64C211.626 468.64 215.533 468.162 220.815 467.525C220.931 468.495 221.018 469.378 221.105 470.131C221.51 474.054 222.205 480.611 222.914 487.574L215.07 488.298ZM224.202 487.444C223.478 481.205 222.581 473.692 221.828 467.38C228.109 466.627 236.011 465.672 241.612 465.035C241.728 466.135 241.829 467.105 241.916 467.916C242.335 471.882 243.016 478.527 243.725 485.591C237.14 486.228 232.248 486.691 232.248 486.691L224.216 487.444H224.202ZM234.506 508.16L226.402 508.855C225.967 503.962 225.533 499.416 225.244 496.666C225.041 494.61 224.708 491.773 224.332 488.544C230.555 487.878 238.283 487.068 243.812 486.489C244.535 493.741 245.302 501.327 245.852 506.813C239.325 507.595 234.506 508.16 234.506 508.16ZM245.534 494.538C245.317 492.482 245.056 489.645 244.767 486.402C246.084 486.272 247.256 486.141 248.211 486.04C251.988 485.649 258.197 484.983 264.883 484.259C265.679 491.411 266.547 498.88 267.17 504.338C260.802 505.062 253.204 505.945 246.952 506.683C246.359 501.819 245.838 497.288 245.534 494.538ZM249.586 527.92C249.296 525.661 248.095 516.136 247.039 507.436C248.341 507.277 249.485 507.146 250.425 507.059C254.231 506.654 260.527 506.017 267.271 505.337C267.777 509.665 268.096 512.503 268.096 512.503L269.384 525.661C263.146 526.356 255.751 527.21 249.586 527.92ZM252.032 548.896L251.699 545.32L249.774 529.063C250.917 528.948 251.93 528.832 252.77 528.759C256.576 528.354 262.842 527.688 269.586 526.964L270.961 538.039L271.887 546.869C265.679 547.521 258.255 548.288 252.032 548.91V548.896ZM281.555 545.841C279.529 546.058 276.707 546.348 273.494 546.695L273.161 543.062L270.816 526.82C278.139 526.038 285.839 525.198 291.425 524.59L292.293 535.78L293.277 544.625C288.559 545.103 284.218 545.566 281.555 545.841ZM294.797 544.466L294.392 540.804L292.452 524.46C296.765 523.997 299.573 523.678 299.573 523.678L312.294 522.636L313.639 533.508L314.435 542.454C311.498 542.743 302.829 543.626 294.782 544.466H294.797ZM332.439 540.948L315.969 542.266L315.608 538.487L313.712 522.433L325.058 520.826L333.51 520.059L335.188 531.177L336.086 540.471L332.439 540.948ZM349.82 538.676L337.576 540.268L337.171 536.215L335.044 519.929L346.375 518.901C346.375 518.901 350.181 518.481 355.334 517.917L355.912 528.991L356.882 537.836L349.834 538.676H349.82ZM366.955 536.649L358.083 537.706L357.562 534.072L356.361 517.815C362.613 517.12 370.529 516.266 376.202 515.658L377.563 526.718L378.446 535.491C371.846 536.171 366.94 536.663 366.94 536.663L366.955 536.649Z" fill="#3465E0"/>
<path d="M146.11 442.047C146.067 441.424 142.159 378.8 161.48 352.352L162.652 353.206C143.65 379.234 147.514 441.337 147.558 441.96L146.11 442.061V442.047Z" fill="#0B0342"/>
<path d="M225.056 505.279L222.074 489.645C219.122 474.169 201.307 362.109 201.133 360.98L202.566 360.748C202.74 361.877 220.555 473.909 223.493 489.37L226.474 505.004L225.056 505.279Z" fill="#0B0342"/>
<path d="M324.247 553.268C324.219 553.022 321.585 527.978 314.624 479.888C307.677 431.797 292.771 355.652 292.626 354.885L294.044 354.61C294.189 355.377 309.095 431.566 316.056 479.685C323.017 527.804 325.651 552.877 325.68 553.123L324.247 553.268Z" fill="#0B0342"/>
<path d="M232.711 247.674C232.711 247.674 161.538 248.268 119.511 271.097C77.4836 293.926 60.9131 332.331 90.3493 358.273C128.628 392.002 329.226 351.382 329.226 351.382L323.915 311.804L232.711 247.674Z" fill="#3465E0"/>
<path d="M270.02 256.23C270.02 256.23 276.215 254.102 279.181 248.76C282.148 243.418 279.688 236.918 274.261 235.775C274.261 235.775 274.579 228.493 269.196 226.437C263.812 224.382 257.285 227.755 255.302 231.316C255.302 231.316 254.622 225.815 248.211 226.452C241.8 227.089 240.686 231.605 240.686 231.605C240.686 231.605 236.329 226.857 230.671 231.171C225.012 235.485 227.429 242.897 227.429 242.897C227.429 242.897 224.694 242.781 223.478 250.034C222.263 257.286 229.224 264.886 229.224 264.886L270.02 256.258V256.23Z" fill="#021754"/>
<path d="M269.586 260.109C269.586 260.109 271.468 258.459 278.747 258.777C286.027 259.096 286.75 263.685 282.944 267.174C279.152 270.662 268.964 268.65 267.763 267.564C266.562 266.479 269.586 260.124 269.586 260.124V260.109Z" fill="#B6E2FF"/>
<path d="M232.075 262.252C232.075 262.252 225.823 259.241 219.412 259.878C213 260.514 210.945 265.9 213.565 268.751C216.184 271.603 222.552 271.878 226.228 271.126C229.904 270.373 232.639 270.489 232.639 270.489L232.075 262.252Z" fill="#B6E2FF"/>
<path d="M229.976 258.054C229.976 258.054 236.387 257.417 238.602 248.383C238.602 248.383 242.089 252.176 248.5 251.539C254.912 250.902 255.939 248.21 255.939 248.21C255.939 248.21 257.603 251.93 262.191 251.221C266.779 250.511 269.586 248.803 269.586 248.803L270.107 257.952L266.793 271.502L229.224 275.367L229.962 258.068L229.976 258.054Z" fill="#B6E2FF"/>
<path d="M251.12 256.678L257.3 269.721L249.456 269.388L251.12 256.678Z" fill="#4C83F2"/>
<path d="M242.422 265.321C241.771 265.321 241.178 265.103 240.686 264.684C238.905 263.164 238.79 259.255 238.877 257.069L240.324 257.127C240.193 260.312 240.686 262.773 241.626 263.583C241.945 263.859 242.321 263.931 242.784 263.83C245.346 263.308 246.127 258.343 246.199 256.461L247.647 256.519C247.647 256.838 247.256 264.38 243.073 265.234C242.856 265.277 242.625 265.306 242.422 265.306V265.321Z" fill="#0B0342"/>
<path d="M261.728 264.698C261.728 264.698 261.67 264.698 261.627 264.698C258.848 264.582 257.386 261.586 257.603 256.505L259.051 256.563C258.978 258.097 258.978 263.135 261.685 263.251H261.713C263.132 263.251 264.449 259.371 264.897 256.722L266.33 256.968C266.113 258.271 264.868 264.698 261.728 264.698Z" fill="#0B0342"/>
<path d="M229.614 266.276C229.643 266.175 229.672 266.088 229.687 265.986C229.687 265.9 229.687 265.827 229.687 265.74C229.672 265.263 229.441 264.785 228.978 264.582C226.691 263.54 224.115 263.352 221.698 264.061C221.148 264.22 220.714 264.857 220.772 265.436C220.844 266.073 221.25 266.508 221.857 266.696C222.914 267.014 224.057 266.985 225.143 267.043C226.228 267.101 227.313 267.145 228.399 267.202C228.688 267.202 228.978 267.087 229.195 266.884C229.238 266.855 229.267 266.826 229.296 266.783C229.354 266.725 229.397 266.652 229.455 266.58C229.484 266.522 229.542 266.493 229.571 266.435C229.585 266.392 229.585 266.348 229.6 266.29L229.614 266.276Z" fill="#4C83F2"/>
<path d="M277.676 263.728C277.618 263.12 277.199 262.599 276.605 262.425C276.272 262.324 275.867 262.31 275.52 262.266C274.97 262.208 274.42 262.194 273.87 262.194C272.654 262.194 271.424 262.324 270.223 262.556C269.528 262.701 269.007 263.497 269.196 264.192C269.326 264.655 269.644 265.002 270.049 265.161C270.18 265.292 270.353 265.393 270.556 265.422C271.743 265.668 272.929 265.798 274.145 265.726C275.433 265.654 277.864 265.596 277.691 263.714L277.676 263.728Z" fill="#4C83F2"/>
<path d="M198.398 277.22C198.398 277.22 160.365 283.257 145.401 290.784C130.437 298.312 123.78 307.012 118.932 316.74C114.098 326.468 113.085 330.377 114.836 334.343C116.602 338.31 120.408 333.489 120.408 333.489C120.408 333.489 117.571 336.37 119.351 339.366C121.132 342.349 125.835 338.527 125.835 338.527C125.835 338.527 123.881 343.405 126.602 345.432C129.323 347.459 133.114 343.608 133.114 343.608C133.114 343.608 130.206 349.442 134.808 350.528C139.41 351.613 140.51 343.767 146.226 336.037C151.943 328.307 160.409 321.604 170.641 318.883C180.872 316.161 199.397 314.612 199.397 314.612L198.384 277.234L198.398 277.22Z" fill="#B6E2FF"/>
<path d="M133.78 343.898L132.463 343.29C132.521 343.159 138.469 330.391 148.846 320.808C159.338 311.109 164.172 311.109 164.36 311.123L164.331 312.571C164.331 312.571 159.758 312.701 149.83 321.879C139.685 331.26 133.838 343.782 133.78 343.898Z" fill="#0B0342"/>
<path d="M126.949 339.323L125.632 338.715C125.69 338.585 131.638 325.817 142.015 316.234C152.435 306.607 157.196 305.608 157.399 305.579L157.674 306.998C157.674 306.998 153.014 308.04 142.999 317.29C132.854 326.671 127.007 339.193 126.949 339.309V339.323Z" fill="#0B0342"/>
<path d="M118.802 335.805L117.513 335.154C117.904 334.372 127.268 315.886 136.689 308.228C146.11 300.57 152.608 298.688 152.883 298.616L153.274 300.006C153.274 300.006 146.776 301.902 137.615 309.343C128.425 316.813 118.917 335.603 118.816 335.791L118.802 335.805Z" fill="#0B0342"/>
<path d="M371.152 362.963C371.152 362.963 376.55 360.603 374.885 356.883C373.221 353.162 370.862 352.265 370.862 352.265C370.862 352.265 374.133 353.206 374.292 349.558C374.451 345.91 369.748 341.364 369.748 341.364C369.748 341.364 374.046 334.039 367.114 325.527C363.018 320.49 354.349 317.247 347.953 315.423C347.649 315.307 347.345 315.191 347.041 315.09C332.67 309.907 323.973 311.992 323.973 311.992L324.276 314.12L326.317 351.613C326.317 351.613 343.727 349.63 355.334 355.594C366.94 361.573 370.978 373.603 370.978 373.603C370.978 373.603 370.992 373.154 371.021 372.343L371.456 373.169C371.456 373.169 375.059 374.24 375.247 369.68C375.435 365.12 371.152 362.977 371.152 362.977V362.963Z" fill="#B6E2FF"/>
<path d="M197.559 275.425C197.559 275.425 282.365 265.335 311.787 262.758C341.209 260.182 347.056 258.14 347.229 259.168C348.199 265.002 364.118 319.071 364.118 319.071C364.118 319.071 291.541 315.38 264.145 315.003C236.749 314.612 196.647 315.003 196.647 315.003L197.559 275.411V275.425Z" fill="#3465E0"/>
<path d="M197.909 313.991L197.885 315.438L323.644 317.524L323.668 316.077L197.909 313.991Z" fill="#0B0342"/>
<path d="M199.353 276.496L199.136 275.063C309.139 258.821 363.756 265.871 364.292 265.943L364.104 267.376C363.568 267.304 309.139 260.297 199.353 276.496Z" fill="#0B0342"/>
<path d="M154.302 372.373C141.103 370.288 116.515 369.361 116.269 369.361L116.327 367.914C116.573 367.914 141.262 368.855 154.533 370.939L154.302 372.373Z" fill="#0B0342"/>
<path d="M311.894 316.557L310.857 354.659L312.303 354.699L313.341 316.597L311.894 316.557Z" fill="#0B0342"/>
<path d="M214.973 273.466L214.444 314.995L215.891 315.013L216.42 273.484L214.973 273.466Z" fill="#0B0342"/>
<path d="M57.9463 456.465C57.9463 456.465 59.4948 438.833 74.3577 429.843C89.2205 420.853 111.247 422.359 122.897 438.949C134.533 455.539 132.029 467.018 132.029 467.018L64.2127 465.18L57.9463 456.451V456.465Z" fill="#83C7FF"/>
<path d="M36.2382 482.262C36.2382 482.262 47.0343 576.372 47.9461 578.123C48.8434 579.875 81.4345 581.25 101.695 581.004C121.942 580.758 135.141 579.73 136.892 578.818C138.643 577.921 145.995 529.396 148.469 516.151C150.959 502.905 156.197 480.061 156.197 480.061C156.197 480.061 136.718 490.745 104.141 491.136C71.5646 491.526 36.2382 482.247 36.2382 482.247V482.262Z" fill="#B6E2FF"/>
<path d="M98.5261 463.037C98.5261 463.037 45.7029 463.66 35.2106 469.074C24.7039 474.488 30.9993 484.983 46.0068 488.327C61.0144 491.671 98.0485 496.521 122.666 492.699C147.268 488.877 163.954 485.157 162.088 476.384C160.221 467.597 107.34 462.936 98.5406 463.052L98.5261 463.037Z" fill="#021754"/>
<path d="M35.4132 477.933C36.2237 481.277 41.6362 484.694 49.9866 486.156C57.7582 487.531 71.9408 489.239 86.8905 489.949C93.7648 490.282 100.784 490.397 107.441 490.18C112.014 490.036 116.399 489.717 120.422 489.21C138.889 486.865 152.507 484.593 155.951 480.322C156.733 479.367 157.008 478.295 156.689 477.108C156.574 476.703 156.284 476.298 155.807 475.892C150.322 471.274 121.71 468.017 106.573 466.931C102.766 466.656 99.8141 466.526 98.2945 466.541C98.2945 466.541 94.4594 466.656 88.7574 466.903C74.1116 467.554 47.0488 469.117 40.1022 471.998C37.7432 472.983 36.3105 474.17 35.6737 475.458C35.6737 475.458 35.6593 475.472 35.6737 475.487C35.283 476.269 35.2106 477.079 35.4132 477.905V477.933Z" fill="#83C7FF"/>
<path d="M48.5829 456.856L24.7762 406.971L33.2858 402.628L57.353 458.318L48.5829 456.856Z" fill="#3465E0"/>
<path d="M35.4132 477.933C36.2237 481.277 41.6362 484.694 49.9866 486.156C61.3183 488.168 86.3261 490.875 107.441 490.18C109.829 483.912 109.351 474.995 106.587 466.946C104.648 461.286 101.565 456.06 97.5275 452.484C87.7444 443.798 70.1173 443.118 55.24 450.342C40.5943 457.449 35.8329 474.937 35.6882 475.487V475.516C35.5724 476.312 35.4856 477.123 35.4277 477.933H35.4132Z" fill="#B6E2FF"/>
<path d="M86.8905 489.949C93.7648 490.282 100.784 490.397 107.441 490.18C112.014 490.036 116.399 489.717 120.422 489.21C138.889 486.865 152.507 484.593 155.951 480.322C155.995 479.323 155.98 478.324 155.922 477.311C155.893 476.833 155.865 476.356 155.807 475.892C154.084 458.304 140.018 448.46 117.731 449.574C95.5593 450.689 89.1337 465.947 88.7429 466.903C88.7429 466.932 88.7285 466.946 88.7285 466.946C85.4288 472.997 84.6907 481.784 86.876 489.934L86.8905 489.949Z" fill="#3465E0"/>
<g opacity="0.54">
<path d="M392.006 226.09C392.006 226.09 410.226 250.7 400.212 255.26C390.182 259.82 390.182 242.492 392.006 226.09Z" fill="#B6E2FF"/>
<path d="M353.727 272.588C353.727 272.588 371.948 297.198 361.933 301.758C351.904 306.318 351.904 288.989 353.727 272.588Z" fill="#B6E2FF"/>
<path d="M308.154 216.073C308.154 216.073 326.375 240.682 316.36 245.242C306.331 249.802 306.331 232.474 308.154 216.073Z" fill="#B6E2FF"/>
<path d="M281.728 289.901C281.728 289.901 299.949 314.511 289.934 319.071C279.905 323.631 279.905 306.303 281.728 289.901Z" fill="#B6E2FF"/>
<path d="M184.215 228.826C184.215 228.826 202.436 253.436 192.421 257.996C182.392 262.556 182.392 245.228 184.215 228.826Z" fill="#B6E2FF"/>
<path d="M113.128 226.09C113.128 226.09 131.349 250.7 121.334 255.26C111.305 259.82 111.305 242.492 113.128 226.09Z" fill="#B6E2FF"/>
<path d="M175.098 319.071C175.098 319.071 193.318 343.681 183.304 348.241C173.274 352.801 173.274 335.473 175.098 319.071Z" fill="#B6E2FF"/>
<path d="M248.92 345.519C248.92 345.519 267.141 370.129 257.126 374.689C247.097 379.249 247.097 361.921 248.92 345.519Z" fill="#B6E2FF"/>
<path d="M333.683 374.689C333.683 374.689 351.904 399.298 341.889 403.858C331.86 408.418 331.86 391.09 333.683 374.689Z" fill="#B6E2FF"/>
<path d="M291.758 419.348C291.758 419.348 309.978 443.958 299.963 448.518C289.934 453.078 289.934 435.749 291.758 419.348Z" fill="#B6E2FF"/>
<path d="M209.73 392.914C209.73 392.914 227.95 417.524 217.935 422.084C207.906 426.644 207.906 409.316 209.73 392.914Z" fill="#B6E2FF"/>
<path d="M252.567 474.966C252.567 474.966 270.788 499.575 260.773 504.135C250.744 508.695 250.744 491.367 252.567 474.966Z" fill="#B6E2FF"/>
<path d="M381.065 419.348C381.065 419.348 399.285 443.958 389.271 448.518C379.241 453.078 379.241 435.749 381.065 419.348Z" fill="#B6E2FF"/>
<path d="M176.921 446.708C176.921 446.708 195.142 471.318 185.127 475.878C175.098 480.438 175.098 463.11 176.921 446.708Z" fill="#B6E2FF"/>
<path d="M103.114 366.481C103.114 366.481 121.334 391.09 111.319 395.65C101.29 400.21 101.29 382.882 103.114 366.481Z" fill="#B6E2FF"/>
<path d="M104.937 278.972C104.937 278.972 123.158 303.582 113.143 308.142C103.114 312.702 103.114 295.374 104.937 278.972Z" fill="#B6E2FF"/>
<path d="M398.388 347.343C398.388 347.343 416.608 371.953 406.594 376.513C396.565 381.073 396.565 363.745 398.388 347.343Z" fill="#B6E2FF"/>
<path d="M354.639 483.159C354.639 483.159 372.859 507.769 362.845 512.329C352.815 516.889 352.815 499.561 354.639 483.159Z" fill="#B6E2FF"/>
<path d="M204.259 538.777C204.259 538.777 222.48 563.387 212.465 567.947C202.436 572.507 202.436 555.179 204.259 538.777Z" fill="#B6E2FF"/>
<path d="M156.878 516.889C156.878 516.889 175.098 541.499 165.083 546.059C155.054 550.619 155.054 533.291 156.878 516.889Z" fill="#B6E2FF"/>
<path d="M299.963 536.953C299.963 536.953 318.184 561.563 308.169 566.123C298.14 570.683 298.14 553.355 299.963 536.953Z" fill="#B6E2FF"/>
<path d="M422.991 491.367C422.991 491.367 441.211 515.977 431.196 520.537C421.167 525.097 421.167 507.769 422.991 491.367Z" fill="#B6E2FF"/>
</g>
<path d="M166.588 74.7987C166.588 74.7987 155.763 15.6632 219.006 2.11342C267.473 -8.26605 310.846 21.251 308.661 53.6489C308.661 53.6489 334.624 35.2496 374.48 44.4999C414.322 53.7502 415.668 92.3728 403.641 111.438C403.641 111.438 455.582 119.212 459.359 149.597C463.136 179.983 425.697 200.033 387.896 199.193C350.095 198.353 324.957 190.493 317.359 181.966C317.359 181.966 302.25 210.89 244.361 212.743C186.473 214.581 167.963 196.414 162.666 184.789C162.666 184.789 142.536 209.37 96.7894 211.643C70.0305 212.974 28.5245 213.626 22.5186 183.182C16.5272 152.739 28.1193 131.632 55.0374 121.789C81.9555 111.945 88.0483 115.622 88.0483 115.622C88.0483 115.622 74.5458 95.0509 89.5389 71.3533C104.532 47.6557 146.776 42.7772 166.588 74.8131V74.7987Z" fill="#83C7FF"/>
<path d="M69.524 186.859C69.524 186.859 64.1404 221.327 65.6165 243.331C67.0927 265.335 73.0697 281.809 77.1363 288.454C81.203 295.098 98.0051 295.547 96.0079 299.644C94.0108 303.741 86.3406 302.452 86.3406 302.452C86.3406 302.452 90.3349 308.127 93.9819 311.775C98.5406 316.335 102.101 318.955 98.5406 321.807C93.9819 325.455 83.6054 312.267 83.6054 312.267C83.6054 312.267 88.1496 320.533 91.2466 323.631C95.8053 328.191 92.1584 331.839 87.5997 329.103C83.3883 326.584 76.4127 318.304 76.4127 318.304C76.4127 318.304 77.5705 322.719 83.041 330.001C86.4998 334.618 81.2175 337.297 76.6588 333.649C74.0972 331.593 61.9117 320.171 51.0287 287.933C40.1456 255.679 41.1153 212.786 43.5611 191.883L69.5095 186.859H69.524Z" fill="#83C7FF"/>
<path d="M414.553 172.282C414.553 172.282 417.708 207.025 414.828 228.884C411.948 250.743 404.915 266.812 400.429 273.167C395.942 279.536 379.14 278.899 380.862 283.126C382.585 287.353 390.327 286.543 390.327 286.543C390.327 286.543 385.971 291.957 382.107 295.359C377.273 299.615 373.554 302.003 376.911 305.072C381.224 309.01 392.44 296.517 392.44 296.517C392.44 296.517 387.36 304.464 384.075 307.36C379.242 311.616 382.642 315.495 387.36 313.049C391.716 310.805 399.213 303.002 399.213 303.002C399.213 303.002 397.766 307.331 391.847 314.25C388.098 318.637 393.193 321.648 397.983 318.304C400.675 316.422 413.555 305.811 426.507 274.339C439.445 242.868 441.24 199.989 440.14 178.97L414.568 172.282H414.553Z" fill="#83C7FF"/>
<path d="M224.043 173.02L222.682 172.528C222.755 172.325 230.266 152.015 247.82 154.476C265.418 156.951 265.389 172.528 265.389 172.687H263.942C263.942 172.079 263.942 158.196 247.618 155.909C231.25 153.622 224.115 172.817 224.043 173.005V173.02Z" fill="#0B0342"/>
<path d="M285.925 152.102C286.012 151.378 286.085 150.625 286.056 149.902C286.027 149.134 285.853 148.353 285.679 147.614C285.578 147.194 285.448 146.789 285.274 146.398C285.115 145.834 284.825 145.342 284.42 144.936C284.276 144.734 284.116 144.56 283.943 144.401C283.61 143.966 283.205 143.633 282.713 143.387L281.584 142.982C280.802 142.808 280.021 142.852 279.254 143.098C278.906 143.257 278.574 143.431 278.226 143.59C277.575 144.01 277.054 144.574 276.692 145.269C276.417 145.993 276.128 146.717 275.954 147.484C275.795 148.222 275.751 149.004 275.708 149.757C275.679 150.148 275.694 150.538 275.723 150.929C275.78 151.479 275.882 152.015 275.997 152.551C276.012 152.623 276.026 152.71 276.055 152.782C276.2 153.188 276.417 153.593 276.62 153.984C276.649 154.042 276.692 154.114 276.736 154.172C276.967 154.519 277.271 154.867 277.56 155.156C277.604 155.2 277.647 155.243 277.705 155.287C277.879 155.431 278.472 155.851 278.675 155.967C278.718 155.996 278.747 156.011 278.791 156.025C279.514 156.43 280.513 156.619 281.338 156.561C281.772 156.532 282.192 156.459 282.582 156.315C282.756 156.228 282.93 156.155 283.103 156.068C283.291 155.996 283.48 155.895 283.668 155.793C283.682 155.793 283.697 155.764 283.711 155.764C284.001 155.518 284.29 155.272 284.579 155.026C284.608 154.997 284.637 154.954 284.666 154.925C284.782 154.766 284.883 154.606 284.999 154.447C285.144 154.273 285.26 154.1 285.361 153.911C285.462 153.723 285.578 153.332 285.592 153.289C285.636 153.188 285.766 152.869 285.824 152.666C285.882 152.478 285.896 152.276 285.925 152.087V152.102Z" fill="#0B0342"/>
<path d="M213.985 149.757C214.274 149.091 214.549 148.396 214.723 147.672C214.911 146.919 214.969 146.138 215.012 145.37C215.041 144.951 215.012 144.516 214.969 144.097C214.969 143.503 214.838 142.953 214.563 142.446C214.491 142.215 214.375 142.012 214.26 141.809C214.071 141.303 213.767 140.868 213.362 140.492L212.393 139.783C211.683 139.406 210.931 139.218 210.135 139.247C209.759 139.305 209.382 139.363 209.006 139.421C208.254 139.638 207.602 140.043 207.067 140.593C206.604 141.201 206.112 141.824 205.735 142.504C205.374 143.17 205.113 143.908 204.853 144.618C204.722 144.98 204.621 145.37 204.534 145.747C204.433 146.282 204.39 146.833 204.346 147.383C204.346 147.47 204.346 147.542 204.346 147.614C204.375 148.049 204.462 148.497 204.549 148.932C204.549 149.004 204.578 149.076 204.607 149.149C204.737 149.54 204.925 149.959 205.113 150.336C205.142 150.394 205.171 150.452 205.214 150.51C205.345 150.698 205.793 151.262 205.953 151.436C205.981 151.465 206.01 151.494 206.039 151.523C206.618 152.116 207.53 152.58 208.326 152.753C208.746 152.855 209.165 152.884 209.6 152.869C209.788 152.84 209.976 152.811 210.164 152.782C210.367 152.768 210.569 152.724 210.772 152.681C210.786 152.681 210.801 152.681 210.83 152.667C211.177 152.507 211.524 152.363 211.872 152.203C211.915 152.174 211.944 152.16 211.987 152.131C212.132 152.015 212.291 151.885 212.436 151.769C212.61 151.653 212.783 151.508 212.943 151.364C213.087 151.219 213.304 150.871 213.333 150.828C213.406 150.741 213.608 150.466 213.724 150.292C213.825 150.133 213.912 149.945 213.985 149.771V149.757Z" fill="#0B0342"/>
<path d="M222.365 117.51L198.663 123.889L199.039 125.287L222.741 118.908L222.365 117.51Z" fill="#0B0342"/>
<path d="M278.901 118.939L278.254 120.233L296.48 129.347L297.127 128.052L278.901 118.939Z" fill="#0B0342"/>
</g>
<defs>
<clipPath id="clip0_5_173">
<rect width="518" height="661" fill="white"/>
</clipPath>
</defs>
</svg>
