<svg width="1013" height="624" viewBox="0 0 1013 624" fill="none" xmlns="http://www.w3.org/2000/svg">
<g clip-path="url(#clip0_2_3680)">
<path d="M1013 442.851H0V624.013H1013V442.851Z" fill="#A4D6FF"/>
<path d="M1013 463.662V461.501C1004.09 461.447 997.818 461.406 997.818 461.406L983.947 461.15L984.028 448.267L983.826 442.851H981.3V446.038C981.3 446.038 981.502 452.44 981.732 461.109L969.576 460.893L949.532 461.015L949.208 448.28L949.235 442.865H946.696L946.669 446.052C946.669 446.052 946.858 452.412 947.087 461.042L940.847 461.082L913.348 460.907L913.51 448.28L913.577 442.865H911.025L910.971 446.146C910.971 446.146 911.052 452.467 911.16 461.028C906.149 461.136 891.859 461.42 878.636 461.623L879.054 448.361L879.027 442.851H876.502V446.133C876.502 446.133 876.502 452.764 876.461 461.663C868.695 461.785 861.509 461.866 857.106 461.866C853.608 461.866 848.705 461.866 843.113 461.839L843.532 448.375L843.599 442.865H841.168V446.146C841.168 446.146 841.06 452.858 840.925 461.839C830.754 461.785 818.666 461.717 808.509 461.663L808.185 448.375L808.252 442.865H805.848V446.146C805.848 446.146 805.848 452.764 805.902 461.636C795.056 461.569 787.006 461.514 787.006 461.514L773.122 461.258L773.203 448.361L773 442.851H770.461V446.133C770.461 446.133 770.677 452.548 770.906 461.217L758.75 460.988L738.707 461.109L738.382 448.361L738.423 442.851H735.87L735.843 446.133C735.843 446.133 736.032 452.494 736.262 461.123L730.022 461.163L702.522 460.988L702.671 448.361L702.738 442.851H700.267L700.213 446.146C700.213 446.146 700.294 452.467 700.402 461.028C695.391 461.136 681.101 461.42 667.878 461.623L668.296 448.361L668.269 442.838H665.744V446.133C665.744 446.133 665.744 452.764 665.703 461.663C657.937 461.785 650.751 461.866 646.348 461.866C642.85 461.866 637.947 461.866 632.369 461.839L632.787 448.375L632.855 442.851H630.424V446.146C630.424 446.146 630.316 452.858 630.18 461.839C620.01 461.785 607.921 461.717 597.778 461.663L597.44 448.375L597.508 442.851H595.104V446.146C595.104 446.146 595.104 452.777 595.158 461.636C584.312 461.582 576.262 461.514 576.262 461.514L562.391 461.258L562.472 448.361L562.269 442.838H559.73V446.133C559.73 446.133 559.946 452.548 560.175 461.217L548.019 460.988L527.976 461.109L527.651 448.361L527.692 442.838H525.153L525.126 446.133C525.126 446.133 525.315 452.494 525.544 461.123L519.304 461.163L491.805 460.988L491.967 448.361L492.034 442.838H489.495L489.441 446.227C489.441 446.227 489.522 452.548 489.63 461.109C484.619 461.204 470.329 461.501 457.106 461.704L457.525 448.442L457.484 442.824H454.972V446.214C454.972 446.214 454.972 452.845 454.931 461.731C447.165 461.852 439.98 461.947 435.563 461.947C432.078 461.947 427.175 461.947 421.584 461.906L422.002 448.442L422.07 442.824H419.639V446.214C419.639 446.214 419.531 452.926 419.395 461.893C409.225 461.852 397.136 461.785 386.979 461.731L386.655 448.442L386.723 442.824H384.319V446.214C384.319 446.214 384.319 452.831 384.373 461.704C373.527 461.636 365.477 461.582 365.477 461.582L351.592 461.325L351.673 448.442L351.47 442.824H348.931V446.214C348.931 446.214 349.147 452.615 349.377 461.285L337.221 461.069L317.177 461.19L316.853 448.456L316.893 442.838H314.354L314.314 446.227C314.314 446.227 314.503 452.588 314.732 461.217L308.492 461.258L280.993 461.082L281.141 448.456L281.209 442.838H279.791V602.636H279.872V624H281.492L281.236 604.081L299.997 603.406L313.895 603.622L314.719 622.015V624.013H316.92L316.394 603.662L335.033 603.946C335.033 603.946 341.286 603.919 349.809 603.878L348.823 622.015V624.013H350.863L351.497 603.865C361.803 603.824 374.864 603.784 384.184 603.77L384.508 622.015V624.013H386.952L386.696 603.77H391.639C397.906 603.77 408.252 603.77 419.341 603.743L419.666 622.028V624.027H422.124L421.367 603.743C433.415 603.716 446.112 603.676 455.337 603.649L454.837 622.028V624.027H457.295L457.039 603.649C464.143 603.635 468.776 603.608 468.776 603.608L489.684 604.108L490.008 622.028L489.981 624.027H492.264L492.007 604.013L510.768 603.338L524.666 603.541L525.49 621.934V624.027H527.692L527.179 603.581L545.804 603.865C545.804 603.865 552.058 603.838 560.581 603.811L559.595 621.934V624.027H561.634L562.282 603.797C572.588 603.757 585.635 603.716 594.969 603.689L595.293 621.934V624.027H597.764L597.508 603.689H602.438C608.705 603.689 619.051 603.689 630.14 603.662L630.464 621.934V624.027H632.936L632.166 603.649C644.214 603.622 656.91 603.581 666.135 603.554L665.635 621.934V624.027H668.107L667.851 603.554C674.942 603.527 679.574 603.514 679.574 603.514L700.496 604.013L700.82 621.934L700.793 624.027H703.008L702.752 603.986L721.513 603.311L735.411 603.527L736.235 621.92V624.027H738.436L737.91 603.568L756.549 603.851C756.549 603.851 762.802 603.824 771.325 603.797L770.339 621.92V624.027H772.379L773.027 603.784C783.333 603.743 796.38 603.703 805.713 603.676L806.037 621.92V624.027H808.496L808.239 603.676H813.182C819.449 603.676 829.796 603.676 840.884 603.649L841.209 621.92V624.027H843.68L842.91 603.635C854.958 603.608 867.655 603.568 876.88 603.541L876.38 621.92V624.027H878.838L878.582 603.541C885.673 603.514 890.319 603.5 890.319 603.5L911.227 603.986L911.551 621.907L911.524 624.013H913.82L913.564 603.892L932.325 603.217L946.223 603.433L947.047 621.826V624.027H949.248L948.735 603.473L967.361 603.757C967.361 603.757 973.615 603.73 982.137 603.689L981.151 621.826V624.027H983.191L983.839 603.676C992.888 603.635 1004.05 603.595 1012.95 603.595V601.758C1004.03 601.839 997.764 601.893 997.764 601.893L983.812 601.718C983.893 598.098 984.204 582.649 984.433 568.402C993.388 568.227 1004.26 568.051 1012.95 567.943V566.728C1004.03 566.822 997.764 566.917 997.764 566.917L984.46 566.66C984.582 558.625 984.676 551.144 984.676 546.62C984.676 543.243 984.636 538.584 984.595 533.237C993.51 533.237 1004.32 533.237 1012.96 533.237V531.724C1004.04 531.643 997.778 531.576 997.778 531.576L984.582 531.414C984.474 521.137 984.298 508.74 984.15 498.341C993.145 498.193 1004.17 498.058 1012.96 497.95V496.383C1004.04 496.396 997.778 496.423 997.778 496.423L984.109 496.505C983.947 485.12 983.798 476.531 983.798 476.531L983.88 463.122C992.929 463.324 1004.09 463.554 1012.96 463.689L1013 463.662ZM317.218 462.919H334.992C334.992 462.919 341.084 463.068 349.431 463.257C349.715 473.966 350.039 487.47 350.16 496.694L337.234 496.775L317.204 496.153C317.407 485.026 317.582 476.707 317.582 476.707L317.231 462.919H317.218ZM280.817 476.707L280.993 462.406L299.956 462.919H314.786C315.07 473.452 315.381 486.808 315.516 496.113L308.519 495.897L280.885 496.248C280.858 485.08 280.831 476.707 280.831 476.707H280.817ZM313.976 579.976L313.814 601.448L308.506 601.38L281.168 601.731C281.155 597.788 281.087 582.622 281.047 568.591L299.956 568.767L314.273 568.848C314.097 575.6 313.989 579.989 313.989 579.989L313.976 579.976ZM314.314 566.714L308.506 566.755L281.047 566.579C281.02 558.638 280.993 551.292 280.993 546.809C280.993 543.365 280.993 538.571 280.979 533.102L299.956 533.966L315.083 533.736C314.84 545.526 314.543 557.788 314.314 566.728V566.714ZM315.124 531.954L308.506 532.116L280.979 531.427C280.952 521.258 280.925 509.064 280.898 498.773L299.969 498.085L315.556 498.409C315.556 500.083 315.57 501.596 315.57 502.865C315.57 509.388 315.381 520.34 315.137 531.967L315.124 531.954ZM350.025 579.976L349.85 601.893L337.221 601.745L316.34 601.488C316.34 597.221 316.421 582.528 316.461 568.861L334.992 568.942C334.992 568.942 341.381 568.807 350.052 568.645C350.039 575.506 350.025 579.989 350.025 579.989V579.976ZM350.052 566.809L337.221 566.566L316.461 566.701C316.475 558.72 316.502 551.306 316.502 546.795C316.502 543.486 316.542 538.922 316.596 533.696L334.992 533.412H350.12C350.106 545.323 350.066 557.774 350.039 566.809H350.052ZM350.133 531.562L337.221 531.414L316.623 531.913C316.758 521.542 316.961 508.969 317.15 498.422L334.992 498.773C334.992 498.773 341.448 498.665 350.174 498.53C350.174 500.151 350.187 501.609 350.187 502.838C350.187 509.293 350.16 520.07 350.133 531.549V531.562ZM351.578 463.297C361.952 463.527 375.067 463.797 384.373 463.918C384.413 474.465 384.454 487.511 384.467 496.545C373.567 496.572 365.463 496.599 365.463 496.599L351.795 496.68C351.619 485.296 351.47 476.707 351.47 476.707L351.551 463.297H351.578ZM384.13 579.976V601.907C373.405 602.001 365.477 602.082 365.477 602.082L351.524 601.907C351.605 598.288 351.916 582.838 352.146 568.591C362.357 568.402 375.067 568.186 384.197 568.092C384.157 575.262 384.13 579.976 384.13 579.976ZM384.197 566.863C373.432 566.984 365.477 567.092 365.477 567.092L352.173 566.836C352.294 558.801 352.389 551.319 352.389 546.795C352.389 543.419 352.348 538.76 352.308 533.412C362.559 533.412 375.283 533.412 384.386 533.412C384.332 545.35 384.265 557.828 384.211 566.863H384.197ZM384.481 502.852C384.481 509.374 384.427 520.326 384.373 531.94C373.527 531.846 365.477 531.751 365.477 531.751L352.281 531.589C352.173 521.312 351.997 508.915 351.849 498.517C362.222 498.355 375.242 498.179 384.481 498.112C384.481 499.908 384.481 501.501 384.481 502.852ZM387.371 476.707L387.047 463.945C388.776 463.959 390.302 463.972 391.612 463.972C397.893 463.972 408.252 463.918 419.382 463.81C419.233 474.344 419.058 487.389 418.99 496.45C408.833 496.464 396.853 496.505 386.817 496.532C387.115 485.215 387.371 476.707 387.371 476.707ZM386.763 498.098C388.6 498.098 390.248 498.085 391.612 498.085C397.812 498.085 407.996 498.152 418.963 498.233C418.963 499.975 418.95 501.542 418.95 502.865C418.95 509.442 419.004 520.515 419.071 532.237C408.617 532.17 396.205 532.062 385.966 531.967C386.156 521.488 386.48 508.726 386.763 498.112V498.098ZM385.791 546.795C385.791 543.419 385.845 538.76 385.939 533.412H391.612C397.839 533.412 408.077 533.412 419.071 533.385C419.152 545.175 419.26 557.477 419.341 566.485C408.833 566.566 396.326 566.714 386.007 566.836C385.885 558.814 385.791 551.333 385.791 546.795ZM419.301 601.623C409.036 601.691 396.826 601.785 386.642 601.88C386.561 598.152 386.25 582.433 386.02 568.078C388.168 568.065 390.045 568.051 391.599 568.051C397.879 568.051 408.239 568.105 419.341 568.159C419.409 575.289 419.463 579.976 419.463 579.976L419.287 601.637L419.301 601.623ZM421.138 476.707L421.529 463.783C433.361 463.675 445.787 463.54 454.931 463.432C454.904 474.114 454.85 487.524 454.837 496.694C447.098 496.572 439.966 496.41 435.576 496.41C431.984 496.41 426.919 496.41 421.138 496.437V476.693V476.707ZM421.138 498.247C433.024 498.328 445.598 498.422 454.823 498.503C454.823 500.137 454.823 501.609 454.823 502.865C454.823 509.415 454.823 520.421 454.823 532.089C447.111 532.21 439.98 532.305 435.59 532.305C431.997 532.305 426.932 532.291 421.151 532.251C421.151 521.758 421.151 508.942 421.151 498.26L421.138 498.247ZM421.138 546.795V533.385C433.024 533.358 445.571 533.318 454.81 533.291C454.81 545.215 454.81 557.68 454.81 566.741C447.084 566.579 439.953 566.39 435.576 566.39C431.997 566.39 426.946 566.417 421.178 566.471C421.165 558.584 421.138 551.265 421.138 546.795ZM435.576 601.556C432.024 601.556 427.027 601.569 421.313 601.61C421.3 597.45 421.232 582.177 421.192 568.146C433.078 568.2 445.598 568.267 454.823 568.321V579.962L455.337 601.596C447.422 601.569 440.074 601.542 435.59 601.556H435.576ZM456.647 476.707L457.066 463.405C464.13 463.324 468.749 463.257 468.749 463.257L481.675 462.757L489.657 462.419C489.779 473.101 489.914 486.808 489.968 496.248C487.05 496.356 480.202 496.802 472.179 496.842C467.277 496.842 461.941 496.802 456.782 496.721C456.714 485.309 456.66 476.707 456.66 476.707H456.647ZM457.011 601.596V568.335C464.102 568.375 468.749 568.402 468.749 568.402L489.4 568.551C489.333 575.452 489.279 579.962 489.279 579.962L489.617 601.718C484.579 601.704 470.235 601.637 457.011 601.596ZM489.427 566.593C486.429 566.701 480.446 567.052 473.395 567.011C468.249 566.998 462.522 566.89 456.998 566.782C456.998 558.774 456.998 551.319 456.998 546.795C456.998 543.392 456.998 538.679 456.957 533.277C464.089 533.264 468.735 533.237 468.735 533.237L489.765 533.075C489.657 544.985 489.522 557.504 489.427 566.593ZM489.792 531.441C484.916 531.549 470.356 531.832 456.971 532.048C456.917 521.677 456.849 509.077 456.795 498.517C464.021 498.571 468.749 498.611 468.749 498.611L489.981 498.76C489.981 500.299 489.981 501.677 489.981 502.852C489.981 509.28 489.9 520.002 489.792 531.441ZM528.03 462.824H545.804C545.804 462.824 551.896 462.973 560.243 463.162C560.527 473.871 560.851 487.376 560.972 496.599L548.046 496.68L528.016 496.072C528.219 484.945 528.394 476.626 528.394 476.626L528.043 462.824H528.03ZM491.616 476.626L491.805 462.311L510.755 462.824H525.585C525.868 473.371 526.179 486.714 526.314 496.018L519.318 495.802L491.683 496.153C491.656 484.985 491.629 476.626 491.629 476.626H491.616ZM524.774 579.867L524.612 601.353L519.304 601.286L491.967 601.637C491.967 597.68 491.886 582.514 491.845 568.497L510.741 568.672L525.058 568.74C524.882 575.506 524.774 579.881 524.774 579.881V579.867ZM525.126 566.62L519.304 566.66L491.845 566.485C491.818 558.557 491.791 551.198 491.791 546.714C491.791 543.27 491.791 538.476 491.778 533.007L510.755 533.871L525.882 533.642C525.639 545.418 525.342 557.693 525.126 566.633V566.62ZM525.923 531.859L519.304 532.021L491.778 531.333C491.764 521.177 491.724 508.983 491.697 498.679L510.768 497.99L526.355 498.301C526.368 499.989 526.368 501.488 526.368 502.757C526.368 509.28 526.179 520.232 525.936 531.859H525.923ZM560.824 579.867L560.648 601.799L548.019 601.637L527.138 601.38C527.152 597.113 527.219 582.42 527.26 568.74L545.791 568.834C545.791 568.834 552.193 568.699 560.851 568.537C560.837 575.398 560.824 579.867 560.824 579.867ZM560.851 566.714L548.019 566.471L527.26 566.593C527.287 558.625 527.314 551.198 527.3 546.701C527.3 543.378 527.341 538.814 527.395 533.601L545.791 533.318C545.791 533.318 552.233 533.318 560.932 533.318C560.905 545.229 560.878 557.68 560.851 566.714ZM560.945 531.481L548.033 531.319L527.449 531.832C527.57 521.461 527.786 508.875 527.976 498.341L545.818 498.692C545.818 498.692 552.274 498.584 560.999 498.449C560.999 500.07 561.013 501.515 561.013 502.744C561.013 509.199 560.986 519.989 560.959 531.468L560.945 531.481ZM562.391 463.216C572.764 463.446 585.879 463.702 595.185 463.837C595.225 474.371 595.266 487.416 595.279 496.45C584.379 496.478 576.275 496.505 576.275 496.505L562.607 496.586C562.431 485.201 562.296 476.612 562.296 476.612L562.377 463.203L562.391 463.216ZM594.928 579.867V601.812C584.204 601.907 576.275 601.988 576.275 601.988L562.323 601.812C562.404 598.18 562.715 582.744 562.944 568.497C573.155 568.308 585.865 568.078 594.996 567.997C594.955 575.168 594.928 579.867 594.928 579.867ZM594.996 566.768C584.244 566.903 576.275 567.011 576.275 567.011L562.971 566.755C563.093 558.719 563.187 551.238 563.187 546.714C563.187 543.338 563.147 538.665 563.106 533.318H595.185C595.131 545.256 595.063 557.747 595.009 566.768H594.996ZM595.293 502.757C595.293 509.28 595.239 520.232 595.185 531.846C584.339 531.751 576.289 531.67 576.289 531.67L563.093 531.508C562.985 521.231 562.809 508.834 562.661 498.422C573.034 498.274 586.068 498.085 595.306 498.017V502.757H595.293ZM598.17 476.626L597.846 463.864C599.574 463.878 601.114 463.891 602.411 463.891C608.691 463.891 619.051 463.824 630.18 463.729C630.032 474.263 629.856 487.308 629.789 496.369C619.632 496.383 607.651 496.423 597.616 496.45C597.927 485.134 598.17 476.639 598.17 476.639V476.626ZM597.562 498.003C599.399 498.003 601.047 498.003 602.411 498.003C608.61 498.003 618.794 498.071 629.762 498.152C629.762 499.894 629.748 501.461 629.748 502.771C629.748 509.361 629.802 520.421 629.883 532.143C619.416 532.075 607.017 531.981 596.778 531.886C596.968 521.407 597.292 508.645 597.575 498.017L597.562 498.003ZM596.589 546.714C596.589 543.338 596.643 538.665 596.738 533.318C598.913 533.318 600.831 533.318 602.411 533.318C608.637 533.318 618.875 533.318 629.87 533.291C629.951 545.067 630.059 557.383 630.14 566.377C619.632 566.471 607.125 566.606 596.805 566.728C596.684 558.693 596.589 551.225 596.589 546.687V546.714ZM630.099 601.542C619.834 601.596 607.624 601.704 597.454 601.799C597.373 598.071 597.049 582.352 596.833 567.997C598.98 567.984 600.858 567.97 602.411 567.984C608.691 567.984 619.051 568.038 630.167 568.078C630.221 575.208 630.275 579.894 630.275 579.894L630.099 601.556V601.542ZM631.936 476.626L632.342 463.702C644.16 463.594 656.6 463.446 665.744 463.351C665.703 474.047 665.663 487.443 665.635 496.613C657.896 496.491 650.765 496.329 646.388 496.329C642.796 496.329 637.731 496.329 631.936 496.342V476.612V476.626ZM631.936 498.152C643.836 498.233 656.397 498.341 665.635 498.409C665.635 500.043 665.635 501.515 665.635 502.757C665.635 509.32 665.622 520.313 665.622 531.994C657.91 532.116 650.778 532.197 646.402 532.197C642.809 532.197 637.744 532.183 631.95 532.143V498.139L631.936 498.152ZM631.936 533.291C643.822 533.264 656.37 533.223 665.608 533.196C665.608 545.121 665.608 557.599 665.608 566.647C657.883 566.485 650.751 566.296 646.375 566.309C642.782 566.309 637.731 566.336 631.977 566.39C631.95 558.49 631.923 551.184 631.923 546.714V533.291H631.936ZM646.388 601.461C642.836 601.461 637.825 601.488 632.112 601.515C632.098 597.369 632.031 582.082 631.99 568.065C643.876 568.119 656.397 568.186 665.622 568.227C665.622 575.262 665.622 579.867 665.622 579.867L666.122 601.502C658.207 601.488 650.859 601.461 646.375 601.461H646.388ZM667.459 476.626L667.878 463.324C674.942 463.243 679.561 463.176 679.561 463.176L692.473 462.676L700.456 462.338C700.577 473.007 700.712 486.714 700.766 496.167C697.849 496.261 691.001 496.721 682.978 496.748C678.075 496.761 672.74 496.707 667.58 496.626C667.513 485.215 667.459 476.612 667.459 476.612V476.626ZM667.81 601.515V568.254C674.915 568.294 679.561 568.321 679.561 568.321L700.213 568.47C700.131 575.384 700.077 579.881 700.077 579.881L700.415 601.65C695.377 601.623 681.033 601.569 667.81 601.529V601.515ZM700.24 566.512C697.241 566.62 691.258 566.971 684.207 566.93C679.061 566.917 673.334 566.809 667.81 566.687C667.81 558.679 667.81 551.225 667.81 546.714C667.81 543.311 667.81 538.598 667.783 533.196C674.901 533.169 679.574 533.156 679.574 533.156L700.591 532.994C700.483 544.918 700.348 557.423 700.253 566.512H700.24ZM700.78 502.757C700.78 509.199 700.699 519.921 700.591 531.359C695.715 531.454 681.155 531.751 667.77 531.954C667.729 521.582 667.648 508.983 667.594 498.422C674.82 498.49 679.561 498.53 679.561 498.53L700.793 498.679V502.771L700.78 502.757ZM738.761 462.811H756.535C756.535 462.811 762.627 462.959 770.974 463.149C771.258 473.858 771.582 487.362 771.703 496.586L758.777 496.667L738.747 496.059C738.95 484.931 739.125 476.612 739.125 476.612L738.774 462.811H738.761ZM702.36 476.599L702.536 462.284L721.499 462.797H736.329C736.613 473.344 736.924 486.687 737.059 495.991L730.062 495.775L702.428 496.126C702.401 484.958 702.374 476.599 702.374 476.599H702.36ZM735.505 579.854L735.343 601.34L730.035 601.272L702.698 601.623C702.684 597.666 702.617 582.501 702.576 568.483L721.486 568.645L735.803 568.726C735.627 575.492 735.519 579.867 735.519 579.867L735.505 579.854ZM735.857 566.593L730.035 566.633L702.576 566.458C702.549 558.53 702.522 551.171 702.522 546.687C702.522 543.257 702.522 538.463 702.509 532.98L721.486 533.831L736.613 533.615C736.37 545.391 736.073 557.666 735.857 566.606V566.593ZM736.654 531.832L730.035 531.994L702.509 531.305C702.495 521.15 702.455 508.956 702.428 498.652L721.499 497.963L737.086 498.274C737.086 499.948 737.099 501.461 737.099 502.73C737.099 509.253 736.91 520.205 736.667 531.832H736.654ZM771.555 579.854L771.379 601.785L758.75 601.623L737.869 601.367C737.869 597.099 737.95 582.406 737.991 568.726L756.522 568.821C756.522 568.821 762.91 568.686 771.582 568.524C771.568 575.384 771.555 579.854 771.555 579.854ZM771.582 566.701L758.75 566.458L737.991 566.579C738.018 558.611 738.031 551.184 738.031 546.674C738.031 543.365 738.072 538.8 738.126 533.574L756.522 533.304C756.522 533.304 762.965 533.304 771.649 533.304C771.636 545.215 771.595 557.666 771.568 566.701H771.582ZM771.676 531.454L758.764 531.292L738.18 531.805C738.301 521.434 738.504 508.848 738.707 498.314L756.549 498.665C756.549 498.665 763.005 498.544 771.73 498.422C771.73 500.043 771.744 501.488 771.744 502.717C771.744 509.172 771.717 519.962 771.69 531.441L771.676 531.454ZM773.122 463.189C783.495 463.419 796.61 463.675 805.916 463.797C805.956 474.344 805.997 487.389 806.01 496.423C795.11 496.451 787.006 496.478 787.006 496.478L773.338 496.559C773.162 485.174 773.027 476.585 773.027 476.585L773.108 463.176L773.122 463.189ZM805.673 579.854V601.799C794.948 601.893 787.02 601.974 787.02 601.974L773.067 601.799C773.149 598.166 773.459 582.73 773.689 568.483C783.9 568.294 796.61 568.065 805.74 567.984C805.7 575.154 805.673 579.854 805.673 579.854ZM805.74 566.755C794.975 566.876 787.02 566.984 787.02 566.984L773.716 566.741C773.837 558.706 773.932 551.225 773.932 546.687C773.932 543.324 773.891 538.652 773.851 533.304H805.929C805.875 545.242 805.808 557.72 805.754 566.755H805.74ZM806.01 502.73C806.01 509.253 805.956 520.205 805.902 531.819C795.056 531.724 787.006 531.643 787.006 531.643L773.81 531.481C773.702 521.204 773.527 508.807 773.378 498.395C783.751 498.247 796.772 498.058 806.01 497.99C806.01 499.786 806.01 501.38 806.01 502.73ZM808.914 476.599L808.59 463.837C810.319 463.837 811.859 463.864 813.155 463.864C819.436 463.864 829.795 463.797 840.925 463.702C840.776 474.222 840.601 487.281 840.533 496.342C830.376 496.356 818.396 496.396 808.36 496.423C808.658 485.107 808.914 476.612 808.914 476.612V476.599ZM808.306 497.977C810.143 497.977 811.791 497.977 813.155 497.977C819.355 497.977 829.539 498.044 840.506 498.125C840.506 499.867 840.493 501.434 840.493 502.744C840.493 509.334 840.547 520.394 840.614 532.116C830.16 532.048 817.761 531.954 807.509 531.859C807.699 521.38 808.036 508.618 808.306 497.99V497.977ZM807.334 546.687C807.334 543.324 807.388 538.652 807.483 533.304C809.657 533.304 811.575 533.304 813.155 533.304C819.382 533.304 829.62 533.304 840.614 533.277C840.695 545.053 840.803 557.369 840.884 566.363C830.376 566.458 817.869 566.593 807.55 566.714C807.428 558.679 807.334 551.211 807.334 546.674V546.687ZM840.844 601.515C830.579 601.583 818.369 601.691 808.185 601.772C808.104 598.044 807.793 582.325 807.564 567.97C809.698 567.957 811.589 567.943 813.142 567.957C819.422 567.957 829.782 568.011 840.884 568.051C840.952 575.181 841.006 579.867 841.006 579.867L840.831 601.529L840.844 601.515ZM842.667 476.599L843.059 463.675C854.891 463.554 867.317 463.419 876.461 463.324C876.434 474.006 876.38 487.416 876.367 496.586C868.627 496.464 861.496 496.302 857.12 496.302C853.527 496.302 848.448 496.302 842.667 496.315V476.585V476.599ZM842.667 498.125C854.553 498.206 867.128 498.314 876.353 498.382V502.73C876.353 509.293 876.339 520.286 876.339 531.967C868.627 532.089 861.496 532.17 857.12 532.17C853.527 532.17 848.448 532.156 842.667 532.116C842.667 521.623 842.667 508.807 842.667 498.112V498.125ZM842.667 533.277C854.553 533.25 867.101 533.21 876.339 533.183C876.339 545.107 876.339 557.585 876.339 566.633C868.614 566.471 861.482 566.282 857.106 566.296C853.513 566.296 848.462 566.323 842.708 566.377C842.681 558.476 842.654 551.157 842.654 546.701V533.291L842.667 533.277ZM857.12 601.448C853.567 601.448 848.556 601.475 842.843 601.502C842.829 597.356 842.762 582.069 842.721 568.051C854.607 568.105 867.128 568.173 876.353 568.213C876.353 575.249 876.353 579.854 876.353 579.854L876.853 601.488C868.938 601.475 861.59 601.448 857.106 601.448H857.12ZM878.19 476.599L878.609 463.297C885.673 463.216 890.292 463.149 890.292 463.149L903.218 462.649L911.2 462.311C911.322 472.98 911.457 486.687 911.511 496.14C908.593 496.234 901.746 496.694 893.723 496.721C888.82 496.734 883.484 496.68 878.325 496.599C878.257 485.188 878.203 476.585 878.203 476.585L878.19 476.599ZM878.541 601.488V568.227C885.646 568.267 890.278 568.294 890.278 568.294L910.944 568.443C910.862 575.357 910.809 579.854 910.809 579.854L911.146 601.61C906.108 601.596 891.764 601.529 878.541 601.488ZM910.971 566.485C907.972 566.593 901.989 566.944 894.938 566.903C889.792 566.89 884.065 566.782 878.541 566.66C878.541 558.652 878.541 551.198 878.541 546.674C878.541 543.284 878.541 538.557 878.5 533.169C885.632 533.142 890.292 533.115 890.292 533.115L911.322 532.967C911.214 544.891 911.079 557.383 910.984 566.485H910.971ZM911.322 531.333C906.446 531.427 891.886 531.724 878.5 531.927C878.446 521.555 878.379 508.956 878.325 498.395C885.551 498.449 890.278 498.503 890.278 498.503L911.511 498.652C911.511 500.191 911.511 501.569 911.511 502.744C911.511 509.172 911.43 519.908 911.322 531.346V531.333ZM949.559 462.716H967.347C967.347 462.716 973.439 462.865 981.772 463.054C982.056 473.763 982.38 487.267 982.502 496.491L969.576 496.572L949.532 495.951C949.735 484.823 949.91 476.504 949.91 476.504L949.559 462.716ZM913.159 476.504L913.348 462.203L932.298 462.716H947.141C947.412 473.25 947.736 486.606 947.857 495.91L940.861 495.694L913.226 496.045C913.199 484.877 913.172 476.504 913.172 476.504H913.159ZM946.318 579.773L946.155 601.245L940.847 601.178L913.51 601.529C913.51 597.585 913.429 582.406 913.388 568.389L932.284 568.564L946.601 568.632C946.426 575.398 946.318 579.773 946.318 579.773ZM946.655 566.512L940.834 566.552L913.375 566.377C913.348 558.436 913.334 551.09 913.321 546.606C913.321 543.162 913.321 538.368 913.307 532.899L932.284 533.763L947.425 533.534C947.168 545.323 946.871 557.585 946.655 566.525V566.512ZM947.898 502.649C947.898 509.172 947.709 520.124 947.466 531.751L940.847 531.913L913.321 531.224C913.307 521.056 913.267 508.861 913.24 498.571L932.311 497.882L947.898 498.206C947.911 499.881 947.925 501.393 947.911 502.663L947.898 502.649ZM982.367 579.773L982.191 601.691L969.576 601.542L948.681 601.286C948.695 597.018 948.762 582.325 948.803 568.659L967.347 568.74C967.347 568.74 973.736 568.605 982.394 568.443C982.38 575.303 982.367 579.786 982.367 579.786V579.773ZM982.394 566.606L969.576 566.363L948.816 566.485C948.843 558.517 948.87 551.089 948.857 546.593C948.857 543.27 948.897 538.719 948.951 533.493L967.347 533.21H982.475C982.448 545.121 982.421 557.572 982.394 566.606ZM982.475 531.359L969.576 531.211L948.978 531.711C949.1 521.339 949.316 508.767 949.505 498.22L967.361 498.571C967.361 498.571 973.817 498.463 982.529 498.328C982.542 499.948 982.542 501.407 982.542 502.636C982.542 509.091 982.515 519.867 982.488 531.346L982.475 531.359Z" fill="#83C7FF"/>
<path d="M279.548 602.285V442.838H278.251L278.197 446.025C278.197 446.025 278.278 452.345 278.372 460.907C273.361 461.001 259.071 461.298 245.848 461.501L246.267 448.24L246.24 442.824H243.714V446.011C243.714 446.011 243.714 452.642 243.674 461.528C235.907 461.65 228.722 461.744 224.319 461.744C220.821 461.744 215.931 461.744 210.339 461.704L210.758 448.24L210.826 442.824H208.394V446.011C208.394 446.011 208.286 452.723 208.151 461.69C197.981 461.65 185.892 461.582 175.749 461.528L175.411 448.24L175.479 442.824H173.074V446.011C173.074 446.011 173.074 452.629 173.128 461.501C162.283 461.433 154.233 461.379 154.233 461.379L140.361 461.123L140.442 448.24L140.24 442.824H137.7V446.011C137.7 446.011 137.917 452.412 138.146 461.082L125.99 460.866L105.946 460.988L105.622 448.253L105.649 442.838H103.11L103.083 446.025C103.083 446.025 103.272 452.385 103.502 461.015L97.2615 461.055L69.7619 460.88L69.924 448.253L69.9916 442.838H67.4523L67.3983 446.119C67.3983 446.119 67.4793 452.439 67.5874 461.001C62.5764 461.109 48.2863 461.393 35.0633 461.596L35.482 448.334L35.455 442.824H32.9293V446.106C32.9293 446.106 32.9293 452.737 32.8887 461.636C25.1224 461.758 17.9369 461.839 13.5202 461.839C10.13 461.839 5.41617 461.839 0.0135067 461.812V463.675C11.6833 463.554 23.8798 463.419 32.8752 463.324C32.8482 474.006 32.7942 487.416 32.7807 496.586C25.0414 496.464 17.9098 496.302 13.5202 496.302C10.13 496.302 5.40267 496.302 0.0135067 496.315V498.125C11.6292 498.206 23.7852 498.301 32.7672 498.382C32.7672 500.016 32.7672 501.488 32.7672 502.73C32.7672 509.293 32.7672 520.286 32.7672 531.967C25.0549 532.089 17.9233 532.17 13.5337 532.17C10.1435 532.17 5.41617 532.156 0.0270133 532.116V533.264C11.6292 533.237 23.7852 533.196 32.7672 533.169C32.7672 545.094 32.7672 557.572 32.7672 566.62C25.0414 566.458 17.9098 566.268 13.5337 566.282C10.1435 566.282 5.42968 566.309 0.0270133 566.35V568.051C11.6427 568.105 23.7852 568.173 32.7807 568.213V579.854L33.2939 601.488C25.379 601.475 18.0314 601.448 13.5472 601.448C10.157 601.448 5.44319 601.475 0.04052 601.502V603.608C11.8994 603.581 24.312 603.541 33.375 603.514L32.8752 621.893V624H35.3334L35.0768 603.514C42.1813 603.487 46.8141 603.473 46.8141 603.473L67.7224 603.959L68.0466 621.88L68.0196 623.986H70.3157L70.0591 603.865L88.8198 603.19L102.718 603.406L103.542 621.799V624H105.744L105.23 603.446L123.856 603.73C123.856 603.73 130.11 603.703 138.632 603.662L137.646 621.799V624H139.686L140.334 603.649C150.64 603.608 163.687 603.568 173.02 603.554L173.345 621.799V624H175.816L175.56 603.554H180.49C186.757 603.554 197.089 603.554 208.192 603.527L208.516 621.812V624.013H210.988L210.218 603.527C222.266 603.5 234.962 603.46 244.187 603.433L243.701 621.812V624.013H246.159L245.902 603.433C252.993 603.419 257.626 603.392 257.626 603.392L278.548 603.892L278.872 621.812L278.845 624.013H279.71V602.298H279.629L279.548 602.285ZM34.5906 476.599L35.0093 463.297C42.0733 463.216 46.6926 463.149 46.6926 463.149L59.6184 462.649L67.6009 462.311C67.7224 472.98 67.8575 486.687 67.9115 496.14C64.9941 496.234 58.1462 496.694 50.1232 496.721C45.2203 496.734 39.8852 496.68 34.7256 496.599C34.6581 485.188 34.6041 476.585 34.6041 476.585L34.5906 476.599ZM34.9553 601.488V568.227C42.0463 568.267 46.6926 568.294 46.6926 568.294L67.3442 568.443C67.2767 575.357 67.2227 579.854 67.2227 579.854L67.5603 601.61C62.5224 601.596 48.1783 601.529 34.9553 601.488ZM67.3713 566.485C64.3728 566.593 58.3893 566.944 51.3388 566.903C46.1928 566.89 40.466 566.782 34.9417 566.66C34.9417 558.652 34.9417 551.198 34.9417 546.674C34.9417 543.284 34.9417 538.557 34.9012 533.169C42.0327 533.142 46.6926 533.115 46.6926 533.115L67.7224 532.967C67.6144 544.891 67.4793 557.383 67.3848 566.485H67.3713ZM67.7224 531.333C62.8465 531.427 48.2863 531.724 34.9012 531.927C34.8472 521.555 34.7797 508.956 34.7256 498.395C41.9517 498.449 46.679 498.503 46.679 498.503L67.9115 498.652C67.9115 500.191 67.9115 501.569 67.9115 502.744C67.9115 509.172 67.8305 519.908 67.7224 531.346V531.333ZM105.96 462.716H123.735C123.735 462.716 129.826 462.865 138.173 463.054C138.457 473.763 138.781 487.267 138.903 496.491L125.977 496.572L105.946 495.951C106.149 484.823 106.324 476.504 106.324 476.504L105.973 462.716H105.96ZM69.5593 476.504L69.7484 462.203L88.6983 462.716H103.529C103.812 473.25 104.123 486.606 104.258 495.91L97.2615 495.694L69.6269 496.045C69.5999 484.877 69.5728 476.504 69.5728 476.504H69.5593ZM102.718 579.773L102.556 601.245L97.248 601.178L69.9105 601.529C69.9105 597.585 69.8295 582.406 69.7889 568.389L88.6848 568.564L103.002 568.632C102.826 575.398 102.718 579.773 102.718 579.773ZM103.069 566.512L97.248 566.552L69.7889 566.377C69.7619 558.436 69.7484 551.09 69.7349 546.606C69.7349 543.162 69.7349 538.368 69.7214 532.899L88.6983 533.763L103.826 533.534C103.583 545.323 103.285 557.585 103.069 566.525V566.512ZM103.866 531.751L97.248 531.913L69.7214 531.224C69.7079 521.056 69.6674 508.861 69.6404 498.571L88.7118 497.882L104.298 498.206C104.312 499.881 104.312 501.393 104.312 502.663C104.312 509.185 104.123 520.137 103.88 531.765L103.866 531.751ZM138.768 579.773L138.592 601.691L125.963 601.542L105.082 601.286C105.095 597.018 105.163 582.325 105.203 568.659L123.735 568.74C123.735 568.74 130.137 568.605 138.795 568.443C138.781 575.303 138.768 579.786 138.768 579.786V579.773ZM138.795 566.606L125.963 566.363L105.203 566.485C105.23 558.517 105.257 551.089 105.244 546.593C105.244 543.27 105.284 538.719 105.339 533.493L123.735 533.21H138.876C138.849 545.121 138.822 557.572 138.795 566.606ZM138.876 531.359L125.963 531.211L105.379 531.711C105.501 521.339 105.717 508.767 105.906 498.22L123.748 498.571C123.748 498.571 130.204 498.463 138.93 498.328C138.943 499.948 138.943 501.407 138.943 502.636C138.943 509.091 138.916 519.867 138.889 531.346L138.876 531.359ZM140.321 463.095C150.694 463.324 163.809 463.594 173.115 463.716C173.155 474.249 173.196 487.308 173.21 496.342C162.31 496.369 154.206 496.396 154.206 496.396L140.537 496.478C140.375 485.093 140.226 476.504 140.226 476.504L140.307 463.095H140.321ZM172.872 579.773V601.704C162.148 601.799 154.219 601.88 154.219 601.88L140.267 601.704C140.348 598.085 140.658 582.636 140.888 568.389C151.099 568.2 163.809 567.984 172.939 567.889C172.899 575.06 172.872 579.773 172.872 579.773ZM172.939 566.66C162.188 566.782 154.219 566.89 154.219 566.89L140.915 566.633C141.037 558.598 141.131 551.117 141.131 546.593C141.131 543.216 141.091 538.557 141.05 533.21C151.302 533.21 164.025 533.21 173.128 533.21C173.074 545.148 173.007 557.626 172.953 566.66H172.939ZM173.237 502.649C173.237 509.172 173.182 520.124 173.128 531.738C162.283 531.643 154.233 531.549 154.233 531.549L141.037 531.386C140.929 521.11 140.753 508.713 140.604 498.314C150.978 498.152 164.011 497.977 173.25 497.895V502.636L173.237 502.649ZM176.113 476.504L175.789 463.743C177.518 463.756 179.058 463.77 180.355 463.77C186.635 463.77 196.995 463.716 208.124 463.608C207.976 474.141 207.8 487.186 207.733 496.248C197.576 496.261 185.595 496.302 175.56 496.329C175.87 485.012 176.113 476.504 176.113 476.504ZM175.506 497.895C177.343 497.895 178.99 497.882 180.355 497.882C186.554 497.882 196.738 497.95 207.706 498.031C207.706 499.773 207.692 501.339 207.692 502.663C207.692 509.239 207.746 520.313 207.827 532.035C197.359 531.967 184.96 531.859 174.722 531.765C174.911 521.285 175.236 508.523 175.519 497.909L175.506 497.895ZM174.533 546.593C174.533 543.216 174.587 538.557 174.682 533.21H180.355C186.581 533.21 196.819 533.21 207.814 533.183C207.895 544.972 208.003 557.275 208.084 566.282C197.576 566.363 185.068 566.512 174.749 566.633C174.628 558.598 174.533 551.13 174.533 546.593ZM208.043 601.421C197.778 601.488 185.568 601.583 175.398 601.677C175.317 597.95 175.006 582.231 174.776 567.876C176.91 567.862 178.801 567.849 180.355 567.849C186.635 567.849 196.995 567.903 208.111 567.943C208.165 575.087 208.219 579.759 208.219 579.759L208.043 601.421ZM209.88 476.504L210.285 463.581C222.104 463.473 234.543 463.338 243.687 463.23C243.647 473.912 243.606 487.321 243.579 496.491C235.84 496.369 228.708 496.207 224.332 496.207C220.739 496.207 215.674 496.207 209.88 496.234V476.491V476.504ZM209.88 498.044C221.779 498.125 234.341 498.22 243.579 498.301C243.579 499.935 243.579 501.407 243.579 502.663C243.579 509.212 243.566 520.218 243.566 531.886C235.853 532.008 228.722 532.102 224.346 532.102C220.753 532.102 215.688 532.089 209.894 532.048V498.058L209.88 498.044ZM209.88 533.183C221.766 533.156 234.314 533.115 243.552 533.088C243.552 545.012 243.552 557.477 243.552 566.539C235.826 566.363 228.695 566.187 224.319 566.187C220.726 566.187 215.688 566.214 209.921 566.269C209.894 558.382 209.867 551.062 209.867 546.593V533.183H209.88ZM224.319 601.353C220.766 601.353 215.756 601.367 210.042 601.407C210.029 597.248 209.961 581.961 209.921 567.943C221.806 567.997 234.327 568.065 243.552 568.119C243.552 575.154 243.552 579.759 243.552 579.759L244.052 601.38C236.137 601.353 228.789 601.326 224.305 601.34L224.319 601.353ZM245.389 476.504L245.808 463.203C252.872 463.122 257.491 463.054 257.491 463.054L270.403 462.554L278.386 462.217C278.507 472.899 278.643 486.606 278.697 496.045C275.779 496.153 268.931 496.599 260.908 496.64C256.005 496.64 250.67 496.586 245.511 496.518C245.443 485.107 245.389 476.504 245.389 476.504ZM245.754 601.394V568.132C252.845 568.173 257.505 568.2 257.505 568.2L278.156 568.348C278.075 575.249 278.021 579.759 278.021 579.759L278.359 601.515C273.321 601.502 258.977 601.434 245.754 601.394ZM278.17 566.39C275.171 566.498 269.188 566.849 262.137 566.809C256.991 566.795 251.265 566.687 245.74 566.579C245.74 558.571 245.74 551.117 245.74 546.593C245.74 543.189 245.74 538.476 245.713 533.075C252.831 533.061 257.505 533.034 257.505 533.034L278.521 532.872C278.413 544.796 278.278 557.302 278.183 566.39H278.17ZM278.724 502.649C278.724 509.077 278.643 519.8 278.535 531.238C273.659 531.346 259.098 531.63 245.713 531.846C245.673 521.474 245.592 508.875 245.538 498.314C252.764 498.368 257.505 498.409 257.505 498.409L278.737 498.557V502.649H278.724ZM0 624H0.148573L0 620.219V624Z" fill="#83C7FF"/>
<path d="M617.944 138.151C617.944 138.151 636.272 196.962 673.213 215.558C702.023 230.048 764.666 214.599 793.908 213.195C823.137 211.79 820.314 229.292 820.314 229.292L811.305 254.194C811.305 254.194 781.658 250.264 742.218 259.528C702.792 268.793 632.274 255.126 613.594 230.548C594.915 205.97 617.944 138.164 617.944 138.164V138.151Z" fill="#52A1FF"/>
<path d="M745.082 443.81H105.865C109.701 395.316 145.615 309.981 174.033 270.251C239.905 178.097 276.454 186.213 315.165 134.302C353.861 82.3906 409.319 -16.4214 500.787 2.33627C592.254 21.0804 605.693 85.9423 624.845 163.08C643.984 240.231 708.452 293.155 736.883 406.308C740.287 419.84 742.975 432.331 745.082 443.81Z" fill="#52A1FF"/>
<path d="M775.134 258.678C775.134 258.678 773.203 301.109 766.449 354.141C759.696 407.173 749.093 441.879 749.093 441.879L576.465 443.81L616.971 261.568L680.615 203.715L735.587 204.673L775.121 258.664L775.134 258.678Z" fill="#3465E0"/>
<path d="M679.183 209.022C679.183 209.022 645.43 197.449 612.635 209.981C579.841 222.513 542.239 248.549 515.239 295.801C488.239 343.053 463.157 415.37 458.335 451.035C453.513 486.7 459.294 500.205 465.089 510.819C470.883 521.434 484.376 525.282 489.198 526.241C494.02 527.2 595.279 310.251 595.279 310.251L616.971 269.265L679.169 209.008L679.183 209.022Z" fill="#3465E0"/>
<path d="M715.34 205.646C715.34 205.646 737.518 198.894 766.449 203.715C795.381 208.536 819.49 231.682 836.846 259.637C854.202 287.591 881.202 377.274 886.024 412.952C890.846 448.631 892.777 479.489 886.024 498.773C879.27 518.058 865.264 536.788 845.747 535.613C826.23 534.452 808.874 444.769 803.093 410.063C797.312 375.356 773.203 276.031 773.203 276.031L715.34 205.646Z" fill="#3465E0"/>
<path d="M666.162 210.467C666.162 210.467 664.231 207.577 674.847 197.935C685.463 188.293 704.737 187.334 713.422 194.072C722.107 200.811 726.929 212.398 724.025 223.958C721.121 235.518 718.244 238.421 718.244 238.421L664.244 217.206L666.176 210.453L666.162 210.467Z" fill="#021754"/>
<path d="M719.689 224.457C719.689 224.457 712.936 226.389 706.183 218.678C699.429 210.966 703.292 195.531 703.292 195.531C703.292 195.531 695.58 205.173 685.936 209.994C676.292 214.815 671.471 212.884 671.471 212.884C671.471 212.884 652.183 248.563 657.964 263.026C663.745 277.489 682.073 279.421 693.648 270.737C705.224 262.054 716.799 240.852 719.689 224.457Z" fill="#B6E2FF"/>
<path d="M700.159 236.503C699.645 236.503 699.132 236.395 698.646 236.152C697.836 235.747 697.268 235.072 696.985 234.154C695.931 230.75 699.173 224.863 699.321 224.606L700.496 225.268C699.632 226.834 697.538 231.399 698.268 233.762C698.443 234.316 698.754 234.707 699.24 234.95C701.955 236.314 706.507 230.71 708.02 228.428L709.141 229.17C708.587 230.008 704.116 236.503 700.145 236.503H700.159Z" fill="#021754"/>
<path d="M680.142 227.05C678.872 227.05 678.21 226.429 677.873 225.916C676.117 223.188 679.169 216.274 679.534 215.49L680.763 216.044C679.547 218.732 677.994 223.593 679.021 225.173C679.169 225.389 679.439 225.686 680.155 225.686C684.477 225.686 687.219 219.407 687.246 219.339L688.489 219.866C688.367 220.163 685.355 227.023 680.155 227.023L680.142 227.05Z" fill="#021754"/>
<path d="M690.083 250.494C690.083 250.494 690.029 246.834 687.084 244.376C684.383 242.121 680.142 241.487 674.482 242.486L674.253 241.162C680.331 240.082 684.95 240.825 687.976 243.364C691.406 246.24 691.447 250.332 691.447 250.507H690.096L690.083 250.494Z" fill="#021754"/>
<path d="M696.539 221.554L680.142 235.058L689.786 237.948L696.539 221.554Z" fill="#52A1FF"/>
<path d="M694.513 314.613C694.513 314.613 681.911 292.56 678.764 285.214C675.617 277.868 682.965 269.468 688.219 266.321C693.473 263.175 699.767 261.068 705.021 253.722C710.275 246.375 716.569 216.976 719.716 212.776C722.863 208.576 726.01 210.683 726.01 214.869C726.01 214.869 728.104 206.469 732.304 208.576C736.505 210.669 735.452 214.869 735.452 214.869C735.452 214.869 735.452 207.523 739.652 210.669C743.853 213.816 740.706 233.762 737.559 247.415C734.412 261.068 727.064 273.668 727.064 273.668L736.519 284.161L694.513 314.613Z" fill="#B6E2FF"/>
<path d="M611.19 300.15L631.085 278.732C631.085 278.732 621.617 277.786 621.617 269.265C621.617 260.744 641.513 226.645 650.981 215.288C660.449 203.931 665.19 205.821 665.19 208.657C665.19 208.657 667.081 204.862 669.931 205.821C672.781 206.78 670.876 210.561 670.876 210.561C670.876 210.561 674.658 207.725 675.617 211.507C676.576 215.288 670.876 227.604 667.094 236.125C663.312 244.647 657.626 258.853 658.572 260.744C659.517 262.635 671.835 265.484 675.617 269.265C679.412 273.06 678.453 283.472 676.562 288.212C674.672 292.952 656.667 320.407 656.667 320.407L611.204 300.163L611.19 300.15Z" fill="#B6E2FF"/>
<path d="M650.67 268.914C650.495 268.833 646.456 266.726 647.469 259.691C648.428 253.019 669.377 211.979 670.268 210.237L671.47 210.858C671.254 211.277 649.725 253.451 648.806 259.893C647.942 265.903 651.143 267.645 651.291 267.726L650.684 268.928L650.67 268.914Z" fill="#021754"/>
<path d="M634.03 270.292C633.895 270.197 630.775 268.009 633.773 260.028C636.61 252.479 663.015 209.643 664.136 207.82L665.284 208.536C665.014 208.981 637.812 253.073 635.029 260.501C632.463 267.361 634.759 269.171 634.786 269.184L634.03 270.305V270.292Z" fill="#021754"/>
<path d="M630.69 277.59L630.568 278.935L640.992 279.883L641.115 278.538L630.69 277.59Z" fill="#021754"/>
<path d="M703.738 271.237L702.846 270.224C702.927 270.143 711.477 262.499 715.232 255.004C719 247.469 724.984 212.979 725.038 212.628L726.375 212.857C726.132 214.289 720.297 247.901 716.448 255.612C712.571 263.35 704.116 270.926 703.751 271.237H703.738Z" fill="#021754"/>
<path d="M716.205 272.263L715.462 271.142C717.974 269.468 723.755 263.161 727.726 251.237C731.521 239.866 734.56 211.979 734.587 211.696L735.924 211.844C735.897 212.128 732.831 240.163 729.009 251.669C724.916 263.944 718.852 270.508 716.205 272.263Z" fill="#021754"/>
<path d="M678.872 284.404L677.535 284.242C677.535 284.093 677.616 283.04 677.886 281.473C678.264 275.977 676.711 270.629 674.01 268.806C672.065 267.496 667.5 265.443 663.826 263.796C659.76 261.973 658.058 261.19 657.599 260.717C655.978 259.096 664.42 239.542 666.959 234.694C670.687 227.59 674.955 213.357 674.996 213.222L676.292 213.613C676.117 214.208 671.943 228.117 668.161 235.328C664.258 242.783 658.585 257.813 658.653 259.853C659.287 260.298 661.989 261.5 664.379 262.567C668.296 264.323 672.727 266.308 674.766 267.685C677.197 269.333 678.615 272.884 679.088 276.774C680.398 272.979 682.776 268.684 687.111 266.281C697.201 260.676 699.2 258.894 704.008 254.086C708.56 249.535 716.758 217.26 716.839 216.935L718.15 217.273C717.812 218.61 709.775 250.224 704.953 255.045C700.037 259.961 697.998 261.784 687.76 267.469C681.898 270.724 679.872 278.03 679.183 281.851C679.115 282.716 679.007 283.58 678.845 284.39L678.872 284.404Z" fill="#021754"/>
<path d="M703.886 192.155C703.886 192.155 699.821 181.527 711.896 169.953C723.971 158.38 741.84 157.232 766.652 158.056C791.464 158.893 812.804 158.731 826.378 155.099C839.953 151.466 860.793 148.657 865.413 167.509C870.045 186.361 851.096 211.682 825.284 214.316C799.473 216.949 779.389 210.305 759.709 204.673C740.03 199.042 728.306 190.021 719.203 191.169C710.099 192.33 707.398 195.369 707.398 195.369L703.886 192.141V192.155Z" fill="#021754"/>
<path d="M160.743 386.268L331.508 392.021L344.717 219.123L167.321 208.752L160.743 386.268Z" fill="#83C7FF"/>
<path d="M327.861 308.847C327.861 308.847 321.985 364.593 271.889 367.416C221.78 370.238 190.444 329.333 194.591 295.369C198.737 261.406 220.983 225.74 261.3 228.239C301.617 230.737 332.966 271.642 327.874 308.847H327.861Z" fill="#3465E0"/>
<path d="M177.545 235.45C175.654 235.423 174.195 234.788 173.196 233.532C172.196 232.277 171.71 230.453 171.737 228.036C171.737 226.983 171.859 226.024 172.061 225.146C172.264 224.268 172.494 223.499 172.737 222.85C173.02 222.094 173.345 221.405 173.709 220.771L177.005 221.865L176.87 222.189C176.775 222.405 176.654 222.688 176.519 223.039C176.384 223.391 176.235 223.796 176.073 224.255C175.911 224.714 175.762 225.187 175.627 225.659C175.492 226.132 175.371 226.605 175.276 227.064C175.181 227.523 175.141 227.942 175.127 228.32C175.127 229.184 175.235 229.832 175.479 230.251C175.722 230.669 176.14 230.886 176.762 230.899C177.005 230.899 177.221 230.872 177.424 230.818C177.626 230.764 177.829 230.669 178.004 230.534C178.193 230.399 178.356 230.224 178.504 229.994C178.653 229.765 178.801 229.481 178.936 229.13L181.084 224.214C181.597 223.012 182.299 222.121 183.191 221.527C184.082 220.933 185.136 220.636 186.379 220.649C187.013 220.649 187.594 220.771 188.107 220.973C188.621 221.189 189.093 221.473 189.499 221.838C189.904 222.202 190.255 222.621 190.552 223.107C190.849 223.593 191.092 224.106 191.281 224.66C191.471 225.214 191.619 225.794 191.7 226.389C191.795 226.983 191.835 227.577 191.822 228.171C191.822 228.779 191.768 229.346 191.687 229.9C191.606 230.44 191.484 230.967 191.335 231.453C191.187 231.952 191.038 232.398 190.917 232.803C190.795 233.208 190.66 233.586 190.539 233.938C190.403 234.289 190.309 234.545 190.214 234.734L190.093 235.004L187.013 233.721L187.108 233.478C187.175 233.33 187.256 233.114 187.364 232.844C187.473 232.574 187.567 232.277 187.675 231.939C187.783 231.601 187.891 231.25 188.013 230.872C188.134 230.494 188.229 230.102 188.296 229.697C188.364 229.292 188.405 228.887 188.405 228.482C188.405 228.144 188.405 227.766 188.364 227.388C188.337 226.996 188.269 226.645 188.148 226.321C188.026 225.997 187.864 225.727 187.635 225.511C187.405 225.295 187.094 225.187 186.689 225.173C186.595 225.173 186.487 225.173 186.379 225.173C186.257 225.173 186.135 225.227 186 225.295C185.865 225.362 185.73 225.484 185.582 225.646C185.433 225.808 185.284 226.037 185.149 226.335L183.312 230.751C183.029 231.493 182.691 232.155 182.327 232.736C181.948 233.316 181.53 233.803 181.057 234.208C180.584 234.613 180.057 234.91 179.463 235.112C178.869 235.315 178.22 235.41 177.491 235.41L177.545 235.45Z" fill="#021754"/>
<path d="M191.322 247.861L171.791 254.127L171.845 249.387L176.14 248.09L176.208 242.337L171.953 240.946L172.007 236.193L191.403 242.823L191.349 247.861H191.322ZM178.369 242.972L178.315 247.712L185.514 245.416L178.369 242.986V242.972Z" fill="#021754"/>
<path d="M181.205 272.547C179.639 272.533 178.261 272.304 177.059 271.885C175.87 271.466 174.871 270.832 174.06 269.981C173.264 269.144 172.656 268.077 172.251 266.794C171.845 265.511 171.656 264.012 171.683 262.297L171.751 256.328L191.214 256.544L191.146 262.526C191.106 265.889 190.255 268.401 188.594 270.075C186.932 271.737 184.461 272.56 181.192 272.52L181.205 272.547ZM181.314 267.793C182.002 267.793 182.637 267.793 183.245 267.726C183.839 267.672 184.393 267.577 184.906 267.429C185.406 267.28 185.865 267.077 186.257 266.807C186.649 266.537 186.986 266.186 187.27 265.754C187.554 265.322 187.77 264.795 187.918 264.174C188.067 263.553 188.148 262.81 188.161 261.946V261.298L174.695 261.149V261.824C174.668 262.999 174.83 263.958 175.141 264.728C175.465 265.484 175.911 266.105 176.492 266.551C177.072 266.996 177.775 267.321 178.585 267.51C179.409 267.699 180.314 267.793 181.3 267.807L181.314 267.793Z" fill="#021754"/>
<path d="M176.87 295.869C174.965 295.842 173.52 295.207 172.521 293.951C171.521 292.695 171.035 290.872 171.062 288.455C171.062 287.415 171.184 286.443 171.386 285.565C171.589 284.687 171.818 283.918 172.061 283.269C172.345 282.513 172.669 281.824 173.034 281.19L176.33 282.283L176.195 282.608C176.1 282.824 175.978 283.107 175.843 283.458C175.708 283.809 175.56 284.215 175.398 284.674C175.236 285.133 175.087 285.606 174.952 286.078C174.817 286.551 174.695 287.024 174.601 287.483C174.506 287.942 174.466 288.36 174.452 288.739C174.452 289.603 174.56 290.251 174.803 290.67C175.046 291.088 175.465 291.304 176.086 291.318C176.33 291.318 176.546 291.291 176.748 291.237C176.951 291.183 177.153 291.088 177.329 290.953C177.518 290.818 177.68 290.643 177.829 290.413C177.977 290.184 178.126 289.9 178.261 289.549L180.409 284.633C180.922 283.445 181.624 282.54 182.516 281.946C183.407 281.352 184.461 281.055 185.703 281.082C186.338 281.082 186.919 281.203 187.432 281.406C187.945 281.622 188.418 281.905 188.823 282.256C189.228 282.621 189.58 283.04 189.877 283.526C190.174 284.012 190.417 284.525 190.606 285.079C190.795 285.633 190.944 286.213 191.025 286.807C191.119 287.402 191.16 287.996 191.146 288.59C191.146 289.198 191.092 289.765 191.011 290.319C190.93 290.859 190.809 291.385 190.66 291.872C190.512 292.371 190.363 292.817 190.241 293.222C190.12 293.627 189.985 294.005 189.863 294.356C189.728 294.708 189.62 294.964 189.539 295.153L189.418 295.423L186.338 294.14L186.433 293.897C186.5 293.749 186.581 293.533 186.689 293.263C186.797 292.993 186.892 292.695 187 292.358C187.108 292.02 187.216 291.669 187.338 291.291C187.459 290.913 187.554 290.521 187.621 290.116C187.689 289.711 187.729 289.306 187.729 288.901C187.729 288.55 187.729 288.185 187.689 287.807C187.662 287.415 187.594 287.064 187.473 286.74C187.351 286.416 187.189 286.146 186.959 285.93C186.73 285.714 186.419 285.606 186.014 285.592C185.919 285.592 185.811 285.592 185.703 285.592C185.582 285.592 185.46 285.646 185.325 285.714C185.19 285.781 185.055 285.903 184.906 286.065C184.758 286.227 184.609 286.456 184.474 286.753L182.637 291.169C182.354 291.912 182.016 292.574 181.651 293.155C181.273 293.735 180.854 294.221 180.382 294.627C179.909 295.032 179.382 295.329 178.788 295.531C178.207 295.734 177.545 295.828 176.829 295.828L176.87 295.869Z" fill="#021754"/>
<path d="M180.814 315.329C179.247 315.315 177.842 315.113 176.6 314.748C175.357 314.37 174.317 313.816 173.466 313.074C172.615 312.331 171.953 311.413 171.508 310.292C171.062 309.184 170.846 307.874 170.859 306.375C170.873 304.876 171.116 303.58 171.589 302.486C172.061 301.392 172.723 300.474 173.601 299.758C174.479 299.042 175.533 298.502 176.775 298.151C178.018 297.814 179.423 297.638 180.976 297.665C182.556 297.679 183.974 297.881 185.23 298.259C186.473 298.637 187.527 299.191 188.391 299.934C189.255 300.677 189.89 301.608 190.336 302.716C190.782 303.823 190.998 305.119 190.984 306.605C190.971 308.09 190.728 309.387 190.241 310.494C189.769 311.602 189.093 312.506 188.215 313.222C187.338 313.938 186.284 314.478 185.028 314.829C183.772 315.18 182.367 315.342 180.8 315.329H180.814ZM181.003 302.419C180.098 302.419 179.247 302.459 178.437 302.554C177.626 302.662 176.91 302.851 176.303 303.148C175.695 303.445 175.195 303.85 174.844 304.377C174.479 304.903 174.29 305.579 174.29 306.402C174.29 307.24 174.452 307.928 174.817 308.469C175.181 309.009 175.668 309.427 176.289 309.724C176.897 310.035 177.613 310.238 178.41 310.359C179.206 310.481 180.044 310.535 180.908 310.548C181.8 310.548 182.651 310.508 183.448 310.4C184.244 310.292 184.947 310.089 185.568 309.792C186.176 309.495 186.662 309.076 187.027 308.563C187.392 308.036 187.567 307.361 187.581 306.537C187.581 305.7 187.419 305.025 187.067 304.498C186.716 303.972 186.243 303.553 185.636 303.242C185.028 302.932 184.326 302.729 183.529 302.608C182.732 302.486 181.894 302.419 181.016 302.419H181.003Z" fill="#021754"/>
<path d="M170.927 329.968L183.34 322.999L171.008 322.864L171.062 318.354L190.525 318.57L190.471 323.594L177.248 330.994L190.377 331.143L190.322 335.653L170.859 335.437L170.927 329.968Z" fill="#021754"/>
<path d="M178.693 350.022L178.734 346.011L181.651 346.038L181.557 354.559L170.643 354.438L170.684 351.075L172.142 350.454C171.832 350.292 171.562 350.062 171.346 349.765C171.13 349.468 170.94 349.13 170.805 348.752C170.657 348.374 170.562 347.956 170.495 347.51C170.427 347.064 170.4 346.605 170.4 346.146C170.414 344.89 170.63 343.756 171.048 342.756C171.467 341.757 172.088 340.906 172.899 340.204C173.723 339.502 174.749 338.975 175.978 338.611C177.207 338.246 178.639 338.07 180.274 338.084C181.854 338.097 183.272 338.327 184.542 338.746C185.811 339.178 186.892 339.785 187.783 340.596C188.675 341.406 189.35 342.392 189.823 343.567C190.295 344.742 190.525 346.078 190.498 347.591C190.498 348.496 190.417 349.293 190.309 349.981C190.187 350.67 190.025 351.251 189.809 351.696C189.593 352.155 189.418 352.547 189.269 352.871C189.12 353.195 188.999 353.465 188.891 353.654L185.744 352.264C185.892 351.899 186.041 351.534 186.176 351.156C186.324 350.778 186.473 350.413 186.608 350.049C186.757 349.684 186.865 349.32 186.946 348.968C187.027 348.604 187.067 348.253 187.067 347.888C187.067 347.105 186.932 346.403 186.635 345.781C186.338 345.16 185.906 344.634 185.311 344.201C184.731 343.769 184.001 343.445 183.15 343.202C182.286 342.972 181.3 342.851 180.165 342.837C179.301 342.837 178.477 342.891 177.721 343.026C176.951 343.162 176.276 343.391 175.695 343.688C175.114 343.999 174.655 344.377 174.317 344.85C173.979 345.322 173.804 345.889 173.79 346.538C173.79 347.186 173.831 347.794 173.925 348.347C174.02 348.901 174.141 349.428 174.29 349.954L178.653 350.008L178.693 350.022Z" fill="#021754"/>
<path d="M176.005 372.264C174.101 372.237 172.656 371.602 171.656 370.359C170.657 369.104 170.171 367.28 170.198 364.863C170.198 363.81 170.319 362.851 170.522 361.973C170.724 361.095 170.954 360.326 171.197 359.677C171.481 358.921 171.805 358.232 172.17 357.598L175.465 358.692L175.33 359.016C175.236 359.232 175.114 359.515 174.979 359.88C174.844 360.231 174.695 360.636 174.533 361.095C174.371 361.555 174.223 362.027 174.087 362.5C173.952 362.986 173.831 363.445 173.736 363.904C173.642 364.363 173.601 364.782 173.588 365.16C173.588 366.024 173.696 366.673 173.939 367.091C174.182 367.51 174.601 367.726 175.222 367.74C175.465 367.74 175.681 367.713 175.884 367.659C176.086 367.605 176.289 367.51 176.465 367.375C176.654 367.24 176.816 367.064 176.964 366.835C177.113 366.605 177.262 366.322 177.397 365.97L179.544 361.055C180.057 359.853 180.76 358.962 181.651 358.367C182.543 357.773 183.596 357.476 184.839 357.49C185.474 357.49 186.054 357.611 186.568 357.814C187.081 358.03 187.554 358.313 187.959 358.665C188.364 359.029 188.715 359.448 189.012 359.934C189.309 360.42 189.553 360.933 189.742 361.487C189.931 362.041 190.079 362.621 190.16 363.216C190.255 363.81 190.295 364.404 190.282 364.998C190.282 365.606 190.228 366.173 190.147 366.727C190.066 367.267 189.944 367.794 189.796 368.28C189.647 368.779 189.499 369.225 189.377 369.63C189.255 370.035 189.12 370.413 188.999 370.765C188.864 371.116 188.769 371.372 188.675 371.561L188.553 371.818L185.474 370.535L185.568 370.292C185.636 370.143 185.717 369.927 185.825 369.657C185.933 369.387 186.027 369.09 186.135 368.752C186.243 368.415 186.352 368.064 186.473 367.686C186.595 367.307 186.689 366.916 186.757 366.511C186.824 366.106 186.865 365.7 186.865 365.295C186.865 364.958 186.865 364.58 186.824 364.201C186.797 363.81 186.73 363.459 186.608 363.135C186.487 362.81 186.324 362.54 186.095 362.324C185.865 362.108 185.555 362 185.149 361.987C185.055 361.987 184.947 361.987 184.839 361.987C184.717 361.987 184.596 362.041 184.461 362.108C184.326 362.176 184.19 362.297 184.042 362.459C183.893 362.621 183.745 362.851 183.61 363.148L181.773 367.578C181.489 368.32 181.151 368.982 180.787 369.563C180.409 370.143 179.99 370.63 179.517 371.035C179.044 371.44 178.518 371.737 177.923 371.939C177.343 372.142 176.681 372.237 175.965 372.237L176.005 372.264Z" fill="#021754"/>
<path d="M656.518 320.393C656.518 320.393 663.272 324.255 664.231 328.104C665.19 331.953 662.299 337.746 657.477 336.787C652.656 335.829 647.834 333.897 647.834 333.897C647.834 333.897 580.327 460.205 559.108 484.31C537.889 508.415 511.849 529.631 489.671 526.741C467.493 523.851 477.136 482.392 477.136 482.392C477.136 482.392 527.287 386.929 549.465 356.085C571.643 325.241 593.821 301.122 593.821 301.122C593.821 301.122 590.93 301.122 590.93 295.342C590.93 289.562 594.793 287.631 597.683 288.59C600.574 289.549 656.505 320.407 656.505 320.407L656.518 320.393Z" fill="#3465E0"/>
<path d="M686.409 318.462C686.409 318.462 732.696 280.852 741.381 278.934C750.066 277.017 752.956 284.714 751.984 287.618C751.011 290.521 748.121 293.398 748.121 293.398C748.121 293.398 798.271 366.673 824.312 409.104C850.353 451.535 873.49 489.131 873.49 489.131C873.49 489.131 879.271 539.273 841.668 535.411C804.065 531.549 733.655 414.884 719.189 392.709C704.724 370.535 688.327 332.925 688.327 332.925C688.327 332.925 684.464 334.856 682.546 329.063C680.628 323.269 686.409 318.462 686.409 318.462Z" fill="#3465E0"/>
<path d="M700.334 241.324C700.334 241.324 705.48 262.945 700.294 265.025C695.107 267.104 691.947 261.581 700.334 241.324Z" fill="#83C7FF"/>
<path d="M669.471 283.755C669.471 283.755 674.617 305.376 669.431 307.456C664.244 309.535 661.084 304.012 669.471 283.755Z" fill="#83C7FF"/>
<path d="M682.006 351.251C682.006 351.251 687.152 372.871 681.965 374.951C676.779 377.031 673.618 371.507 682.006 351.251Z" fill="#83C7FF"/>
<path d="M696.471 388.847C696.471 388.847 701.617 410.468 696.431 412.547C691.244 414.627 688.084 409.104 696.471 388.847Z" fill="#83C7FF"/>
<path d="M662.718 406.214C662.718 406.214 667.864 427.834 662.678 429.914C657.491 431.994 654.33 426.47 662.718 406.214Z" fill="#83C7FF"/>
<path d="M685.031 455.397C685.031 455.397 689.948 477.072 684.721 479.097C679.507 481.109 676.414 475.559 685.031 455.397Z" fill="#83C7FF"/>
<path d="M675.59 233.559C675.59 233.559 681.857 254.883 676.778 257.233C671.7 259.582 668.269 254.221 675.59 233.559Z" fill="#83C7FF"/>
<path d="M867.574 480.772L792.22 360.285L746.743 293.735L747.229 293.344C747.229 293.344 751.592 289.832 751.714 286.024C751.768 284.458 751.065 283.013 749.647 281.743C743.826 276.504 735.249 282.716 735.168 282.77L734.371 281.689C734.466 281.622 743.907 274.748 750.552 280.744C752.281 282.297 753.118 284.093 753.064 286.078C752.956 289.724 749.782 292.898 748.553 294.005L793.355 359.569L868.722 480.083L867.574 480.799V480.772Z" fill="#021754"/>
<path d="M482.998 472.764L481.796 472.156C482.445 470.887 546.777 345.052 592.578 301.365C591.97 301.055 591.227 300.528 590.687 299.623C589.688 298.003 589.634 295.788 590.498 293.02C591.119 291.034 592.267 289.684 593.888 289.009C597.4 287.564 601.898 289.886 602.087 289.981L614.31 296.517L613.675 297.706L601.452 291.169C601.452 291.169 597.319 289.036 594.388 290.251C593.145 290.764 592.267 291.831 591.781 293.411C591.038 295.774 591.052 297.625 591.822 298.88C592.605 300.163 593.902 300.406 593.956 300.42L595.279 300.663L594.307 301.581C548.627 344.39 483.66 471.467 483.012 472.75L482.998 472.764Z" fill="#021754"/>
<path d="M752.281 444.148C751.565 444.148 749.62 441.974 733.047 415.64C715.3 387.429 690.123 339.232 687.489 334.154C685.544 334.37 683.762 333.614 682.559 332.02C680.777 329.657 680.669 326.105 682.276 322.986C685.045 317.638 692.838 311.305 693.162 311.048L694.013 312.101C693.932 312.169 686.112 318.516 683.478 323.621C682.127 326.24 682.181 329.292 683.64 331.224C684.639 332.547 686.071 333.087 687.732 332.763L688.232 332.669L688.462 333.114C688.732 333.627 715.556 385.322 734.182 414.938C750.12 440.272 752.294 442.703 752.578 442.932L752.186 443.405L752.227 443.486L752.916 443.405L752.47 444.148C752.47 444.148 752.348 444.188 752.281 444.188V444.148Z" fill="#021754"/>
<path d="M587.04 443.5L585.865 442.824C586.365 441.974 635.313 356.936 646.753 334.073L647.05 333.479L647.645 333.762C651.224 335.491 657.599 337.665 659.463 336.166C660.463 335.369 663.704 332.466 663.448 328.941C663.258 326.416 661.313 324.053 657.667 321.919L658.355 320.758C662.407 323.134 664.582 325.862 664.798 328.847C665.109 333.033 661.435 336.315 660.314 337.22C657.518 339.461 649.995 336.315 647.672 335.261C635.705 358.989 587.54 442.649 587.04 443.5Z" fill="#021754"/>
<path d="M593.68 300.98L592.979 302.134L646.99 334.917L647.691 333.762L593.68 300.98Z" fill="#021754"/>
<path d="M747.283 293.352L687.468 332.846L688.213 333.973L748.027 294.479L747.283 293.352Z" fill="#021754"/>
<path d="M694.54 301.109C694.54 301.109 699.686 322.729 694.499 324.809C689.313 326.889 686.152 321.365 694.54 301.109Z" fill="#83C7FF"/>
<path d="M394.327 333.033L380.888 373.317L359.561 385.714C352.267 378.584 339.733 366.524 329.779 358.003C333.534 354.168 342.678 345.781 356.414 339.691C374.756 331.534 394.327 333.047 394.327 333.047V333.033Z" fill="#52A1FF"/>
<path d="M252.413 583.986L251.481 540.461L291.46 497.018L564.916 497.828L562.823 584.027L252.413 583.986Z" fill="#0641B7"/>
<path d="M253.464 544.688L253.45 546.038L551.635 549.108L551.649 547.758L253.464 544.688Z" fill="#021754"/>
<path d="M554.935 503.729L554.746 494.681C554.746 494.681 544.548 490.373 530.758 494.29L530.974 504.243C530.974 504.243 535.742 506.039 544.265 505.85C548.992 505.755 554.948 503.729 554.948 503.729H554.935Z" fill="#020823"/>
<path d="M550.099 513.993C549.897 512.278 549.235 509.874 542.968 509.28C536.701 508.699 533.405 513.088 534.513 515.762C535.607 518.436 540.321 519.597 544.481 518.976C548.641 518.341 550.289 515.613 550.099 513.993Z" fill="#020823"/>
<path d="M523.154 492.993L522.83 522.46C522.83 522.46 488.185 540.88 418.193 544.324C348.202 547.781 312.855 532.818 311.869 530.873C310.883 528.929 308.924 501.609 308.924 501.609L523.154 492.993Z" fill="#01082D"/>
<path d="M389.694 450.724C389.694 450.724 444.491 445.053 491.143 457.585C537.808 470.13 530.123 509.752 497.261 522.852C464.4 535.951 403.903 540.624 365.936 535.789C327.955 530.954 303.049 516.829 307.29 494.182C311.545 471.535 327.361 458.8 389.681 450.711L389.694 450.724Z" fill="#091670"/>
<path d="M373.554 492.926C373.554 492.926 374.283 482.973 398.811 478.827C423.339 474.695 448.989 478.665 454.877 488.483C460.766 498.301 444.815 504.972 415.492 506.498C386.169 508.024 372.73 499.273 373.54 492.926H373.554Z" fill="#01082D"/>
<path d="M388.668 491.008C388.587 487.078 393.773 481.082 415.911 480.61C438.048 480.137 444.369 485.903 444.45 489.82C444.531 493.75 437.589 500.448 418.112 500.853C398.636 501.258 388.789 496.599 388.668 491.008Z" fill="#83C7FF"/>
<path d="M409.428 488.064C409.428 485.769 410.265 483.189 416.897 483.041C423.515 482.906 425.919 489.968 418.031 491.764C413.317 492.831 409.414 490.455 409.428 488.064Z" fill="#0D1882"/>
<path d="M417.95 487.875L417.802 481.069L414.02 481.15L414.168 487.956C414.168 487.956 416.086 488.888 417.95 487.875Z" fill="#CFD5FF"/>
<path d="M405.511 530.09C381.55 530.09 353.307 528.01 338.274 519.489C325.281 512.129 317.65 501.069 318.014 495.046L318.095 493.547C318.595 484.391 318.987 477.166 343.393 466.862C372.325 454.654 421.827 450.346 463.778 456.369C494.56 460.799 510.903 471.656 512.375 488.658C512.713 492.548 510.863 496.991 507.04 501.501C497.383 512.885 472.922 526.241 442.046 528.645C434.915 529.199 421.124 530.09 405.511 530.09ZM319.365 495.127C319.014 500.772 326.794 511.44 338.936 518.314C355.468 527.686 393.976 531.049 441.952 527.308C472.436 524.931 496.532 511.819 506.014 500.637C509.593 496.41 511.335 492.318 511.038 488.78C509.634 472.48 493.682 462.028 463.603 457.706C421.881 451.71 372.662 455.991 343.934 468.105C320.297 478.071 319.946 484.594 319.46 493.615L319.379 495.114L319.365 495.127Z" fill="#021754"/>
<path d="M405.268 523.257C370.812 523.257 331.427 518.719 328.901 495.492C328.685 493.439 328.307 482.73 343.002 474.249C355.441 467.065 388.182 459.921 427.148 459.921C427.837 459.921 428.512 459.921 429.201 459.921C465.683 460.151 500.044 472.048 504.231 485.877C505.176 489.01 504.339 492.494 501.732 496.234C493.925 507.403 469.546 520.367 443.775 521.852L442.357 521.933C432.767 522.487 419.436 523.257 405.268 523.257ZM427.148 461.271C388.425 461.271 355.968 468.321 343.691 475.411C329.725 483.473 330.049 493.425 330.265 495.343C333.682 526.849 409.792 522.46 442.303 520.583L443.721 520.502C468.303 519.097 493.007 506.417 500.652 495.465C503.015 492.089 503.785 488.996 502.961 486.282C498.99 473.196 464.535 461.501 429.215 461.285C428.526 461.285 427.837 461.285 427.162 461.285L427.148 461.271Z" fill="#021754"/>
<path d="M412.507 516.464C383.576 516.464 351.16 512.629 343.474 504.594C340.489 501.474 339.571 497.801 340.814 493.979C344.231 483.419 362.384 473.925 377.241 471.184C394.3 468.037 448.921 462.163 475.3 475.937C484.822 480.907 489.373 486.079 488.847 491.292C488.063 499.03 476.394 506.201 454.148 512.588C445.247 515.141 429.471 516.464 412.507 516.464ZM424.717 468.55C405.038 468.55 386.264 470.9 377.498 472.521C362.965 475.194 345.271 484.634 342.11 494.398C341.016 497.774 341.813 500.893 344.46 503.675C355.36 515.087 428.296 518.625 453.783 511.305C475.137 505.161 486.807 498.206 487.51 491.17C487.982 486.565 483.66 481.839 474.678 477.153C462.131 470.603 443.032 468.564 424.717 468.564V468.55Z" fill="#021754"/>
<path d="M413.02 511.197C390.41 511.197 365.045 508.199 359.034 501.906C356.67 499.435 355.941 496.518 356.927 493.48C359.601 485.188 373.81 477.747 385.44 475.613C398.744 473.155 441.384 468.577 461.968 479.34C469.451 483.243 473.03 487.321 472.612 491.454C471.99 497.558 462.86 503.176 445.45 508.186C438.521 510.184 426.23 511.197 413.02 511.211V511.197ZM422.475 473.844C407.145 473.844 392.517 475.681 385.683 476.937C374.391 479.016 360.668 486.322 358.21 493.898C357.373 496.478 357.981 498.854 360.007 500.974C368.475 509.847 425.244 512.588 445.072 506.876C461.658 502.109 470.707 496.721 471.261 491.305C471.612 487.781 468.276 484.148 461.334 480.529C451.568 475.424 436.711 473.844 422.461 473.844H422.475Z" fill="#021754"/>
<path d="M426.959 404.364L283.789 494.897L291.879 496.478L430.539 408.55L426.959 404.364Z" fill="#020823"/>
<path d="M430.538 408.55L433.186 422.77L411.251 434.506L407.077 423.418L430.538 408.55Z" fill="#020823"/>
<path d="M426.392 421.825L428.404 437.342L421.881 424.431L426.392 421.825Z" fill="#020823"/>
<path d="M283.653 495.289L282.289 519.935L293.648 519.692L295.364 494.263L283.653 495.289Z" fill="#020823"/>
<path d="M269.728 527.821L269.836 513.25L282.87 502.879L300.847 502.5L302.36 529.131L294.918 534.803L270.268 533.75L269.728 527.821Z" fill="#020823"/>
<path d="M414.033 340.704C414.033 340.704 426.757 355.991 429.809 380.461C432.862 404.917 427.77 411.035 421.651 411.035C415.533 411.035 414.02 340.704 414.02 340.704H414.033Z" fill="#52A1FF"/>
<path d="M355.333 343.026C355.333 343.026 373.392 333.465 390.1 332.966C406.807 332.466 417.613 340.353 422.218 353.317C426.824 366.268 426.311 384.188 425.595 399.88C424.879 415.586 422.097 421.433 416.667 423.067C411.237 424.701 410.859 409.117 411.319 402.365C411.778 395.626 411.818 384.458 411.818 384.458C411.818 384.458 410.562 394.627 405.362 398.476C400.149 402.325 397.299 395.91 397.758 389.158C397.758 389.158 396.394 398.219 392.085 399.759C387.776 401.298 385.021 395.977 384.373 389.333C384.373 389.333 385.332 399.286 379.807 399.826C374.283 400.366 372.527 393.83 371.568 383.877C370.609 373.925 369.043 346.159 369.043 346.159L355.333 343.013V343.026Z" fill="#52A1FF"/>
<path d="M402.782 400.191C397.609 400.191 396.826 395.248 396.488 393.087C396.448 392.79 396.407 392.534 396.353 392.331L397.677 392.048C397.731 392.277 397.771 392.561 397.825 392.871C398.312 395.91 399.163 399.151 403.35 398.813C408.577 398.422 410.549 387.524 410.562 387.416L410.859 369.954L412.21 369.981L411.899 387.551C411.805 388.145 409.711 399.691 403.444 400.164C403.215 400.177 402.998 400.191 402.782 400.191Z" fill="#021754"/>
<path d="M390.721 400.704C390.721 400.704 390.653 400.704 390.613 400.704C385.48 400.596 384.427 392.642 384.386 392.304L385.723 392.142C385.723 392.21 386.669 399.272 390.64 399.354C390.667 399.354 390.694 399.354 390.721 399.354C394.665 399.354 396.083 393.195 396.097 393.128L396.988 370.724L398.339 370.778L397.434 393.303C397.353 393.722 395.745 400.704 390.734 400.704H390.721Z" fill="#021754"/>
<path d="M380.226 400.609C375.107 400.609 373 397.544 372.919 397.422C367.8 391.48 369.124 361.028 369.178 359.731L370.528 359.785C370.515 360.096 369.178 390.994 374 396.599C374.121 396.761 375.877 399.259 380.24 399.259C381.861 399.259 383.549 395.194 384.224 392.304L384.832 371.912L386.183 371.953L385.561 392.48C385.359 393.425 383.576 400.609 380.253 400.609H380.226Z" fill="#021754"/>
<path d="M356.603 339.677C356.603 339.677 261.124 384.026 255.344 383.067C249.563 382.108 359.493 196.976 359.493 196.976L301.631 184.444C301.631 184.444 198.44 331.007 179.152 384.039C159.865 437.071 175.29 465.998 208.084 461.177C240.878 456.356 359.493 385.971 359.493 385.971L356.603 339.691V339.677Z" fill="#52A1FF"/>
<path d="M169.428 453.344C160.675 439.732 177.329 391.183 178.031 389.117L179.315 389.563C179.139 390.062 162.161 439.543 170.562 452.615L169.428 453.344Z" fill="#021754"/>
<path d="M809.806 225.835C809.806 225.835 811.562 233.114 808.509 239.231C805.457 245.335 797.312 249.414 797.312 256.531C797.312 263.647 805.457 260.595 805.457 260.595C805.457 260.595 803.417 263.647 806.47 268.739C809.522 273.83 815.627 269.751 815.627 269.751C815.627 269.751 810.535 273.816 815.627 277.895C820.719 281.959 825.433 278.084 825.433 278.084C825.433 278.084 822.151 280.568 826.23 285.66C830.295 290.751 842.884 281.568 846.476 269.265C850.083 256.963 847.759 251.466 841.87 239.744C835.982 228.023 816.181 220.568 809.792 225.821L809.806 225.835Z" fill="#52A1FF"/>
<path d="M805.592 261.271L805.335 259.947C805.497 259.92 821.178 256.584 824.136 228.981L825.473 229.13C822.407 257.8 806.267 261.149 805.578 261.271H805.592Z" fill="#021754"/>
<path d="M815.411 269.873L814.857 268.644C815.046 268.563 833.658 259.866 836.67 236.909L838.008 237.084C834.888 260.811 815.6 269.792 815.411 269.886V269.873Z" fill="#021754"/>
<path d="M825.541 279.056L825.068 277.786C825.23 277.732 841.452 271.493 844.383 252.317L845.72 252.52C842.681 272.506 825.717 278.988 825.541 279.056Z" fill="#021754"/>
<path d="M816.6 225.902C816.6 225.902 817.559 221.081 814.668 217.219C811.778 213.357 805.524 212.29 801.418 214.275C797.312 216.26 800.203 222.04 802.134 224.93C804.065 227.82 810.819 232.641 816.6 225.889V225.902Z" fill="#52A1FF"/>
<path d="M454.648 161.999L453.338 161.702C453.662 160.298 461.496 127.239 480.094 131.25C498.572 135.234 498.396 161.068 498.396 161.324L497.045 161.297C497.045 161.054 497.207 136.314 479.811 132.56C462.509 128.832 454.742 161.675 454.661 161.999H454.648Z" fill="#021754"/>
<path d="M520.385 128.508C520.466 127.739 520.56 126.955 520.52 126.172C520.479 125.362 520.304 124.538 520.128 123.755C520.034 123.309 519.885 122.89 519.696 122.472C519.52 121.878 519.223 121.351 518.791 120.919C518.643 120.716 518.467 120.527 518.291 120.352C517.94 119.892 517.508 119.541 516.981 119.285L515.793 118.853C514.955 118.677 514.145 118.718 513.334 118.974C512.97 119.15 512.605 119.325 512.24 119.487C511.551 119.933 510.998 120.527 510.62 121.256C510.322 122.013 510.012 122.796 509.85 123.593C509.674 124.376 509.634 125.2 509.593 125.996C509.566 126.415 509.58 126.82 509.62 127.239C509.674 127.82 509.796 128.387 509.917 128.954C509.931 129.035 509.958 129.116 509.985 129.197C510.133 129.629 510.363 130.061 510.579 130.466C510.62 130.534 510.647 130.601 510.701 130.669C510.957 131.034 511.268 131.398 511.579 131.722C511.633 131.776 511.673 131.817 511.727 131.871C511.916 132.033 512.537 132.465 512.754 132.587C512.794 132.614 512.835 132.627 512.875 132.654C513.632 133.086 514.699 133.275 515.563 133.221C516.009 133.194 516.454 133.113 516.887 132.965C517.062 132.884 517.251 132.789 517.427 132.708C517.629 132.627 517.832 132.533 518.021 132.425C518.035 132.425 518.048 132.398 518.062 132.384C518.372 132.127 518.669 131.871 518.98 131.614C519.021 131.574 519.048 131.547 519.075 131.506C519.196 131.344 519.304 131.169 519.426 131.007C519.574 130.831 519.696 130.642 519.818 130.439C519.912 130.25 520.047 129.832 520.061 129.778C520.101 129.67 520.236 129.332 520.304 129.116C520.358 128.913 520.385 128.711 520.412 128.508H520.385Z" fill="#0B0342"/>
<path d="M444.248 126.037C444.545 125.321 444.856 124.592 445.031 123.836C445.22 123.039 445.288 122.202 445.342 121.405C445.369 120.959 445.342 120.5 445.288 120.055C445.288 119.433 445.153 118.853 444.856 118.312C444.774 118.069 444.666 117.84 444.531 117.637C444.329 117.097 444.018 116.638 443.572 116.246L442.559 115.504C441.817 115.098 441.02 114.909 440.169 114.936C439.777 115.004 439.372 115.058 438.98 115.125C438.183 115.368 437.494 115.774 436.927 116.368C436.427 117.016 435.914 117.678 435.522 118.393C435.131 119.096 434.874 119.879 434.591 120.622C434.442 121.013 434.334 121.405 434.266 121.824C434.158 122.391 434.104 122.971 434.064 123.552C434.064 123.633 434.064 123.714 434.064 123.809C434.091 124.268 434.185 124.741 434.28 125.2C434.293 125.281 434.307 125.348 434.334 125.429C434.469 125.848 434.672 126.294 434.874 126.685C434.901 126.753 434.942 126.807 434.982 126.861C435.117 127.063 435.59 127.658 435.766 127.833C435.793 127.874 435.833 127.901 435.86 127.928C436.468 128.549 437.44 129.035 438.278 129.238C438.724 129.332 439.169 129.386 439.615 129.359C439.818 129.332 440.007 129.292 440.209 129.265C440.425 129.251 440.641 129.211 440.858 129.157C440.871 129.157 440.898 129.157 440.912 129.143C441.276 128.981 441.641 128.819 442.019 128.657C442.06 128.63 442.1 128.603 442.141 128.576C442.303 128.454 442.465 128.319 442.613 128.198C442.803 128.063 442.978 127.928 443.14 127.766C443.289 127.604 443.532 127.252 443.559 127.198C443.626 127.104 443.856 126.82 443.978 126.631C444.086 126.456 444.167 126.267 444.248 126.078V126.037Z" fill="#0B0342"/>
<path d="M453.14 92.0114L428.072 98.7554L428.422 100.059L453.491 93.3154L453.14 92.0114Z" fill="#021754"/>
<path d="M512.946 93.5496L512.342 94.7574L531.622 104.398L532.226 103.19L512.946 93.5496Z" fill="#021754"/>
<path d="M411.731 387.43L410.38 387.44L410.544 410.329L411.894 410.319L411.731 387.43Z" fill="#021754"/>
<path d="M254.317 443.986L253.804 442.743C288.246 428.496 369.326 379.272 370.137 378.773L370.839 379.921C370.029 380.42 288.853 429.698 254.317 443.986Z" fill="#021754"/>
<path d="M359.421 197.125L335.571 236.268L336.724 236.97L360.574 197.828L359.421 197.125Z" fill="#021754"/>
<path d="M306.37 175.882L279.388 215.43L280.503 216.191L307.486 176.643L306.37 175.882Z" fill="#021754"/>
<path d="M340.468 346.386L208.257 406.099L208.813 407.33L341.025 347.616L340.468 346.386Z" fill="#021754"/>
<path d="M424.866 415.721C424.379 415.721 423.785 415.518 423.15 414.884L422.921 414.654L422.961 414.33C422.988 414.06 426.257 387.213 424.406 365.93L425.757 365.808C427.499 385.89 424.731 410.886 424.352 414.141C424.771 414.465 424.987 414.37 425.082 414.33C427.891 413.155 429.715 396.761 429.728 385.984C429.728 385.538 429.458 341.271 399.189 334.316C377.687 329.373 341.462 347.402 341.097 347.577L340.49 346.376C341.989 345.619 377.511 327.942 399.487 332.993C424.541 338.746 431.106 370.17 431.079 385.984C431.079 391.764 430.106 413.709 425.595 415.586C425.392 415.667 425.149 415.734 424.879 415.734L424.866 415.721Z" fill="#021754"/>
<path d="M740.489 500.326C767.408 505.944 772.028 522.663 760.871 532.858C749.715 543.054 693.986 544.81 656.843 545.688C619.699 546.552 583.488 540.921 579.787 529.779C576.086 518.625 578.355 507.065 604.909 501.96C633.706 496.437 713.571 494.722 740.489 500.326Z" fill="#83C7FF"/>
<path d="M654.736 536.383C629.33 536.383 602.681 533.412 599.655 526.498C598.183 523.149 598.129 520.326 599.493 517.882C601.87 513.615 608.489 510.738 619.767 509.104C641.904 505.904 704.575 504.864 725.537 508.186C737.464 510.076 745.014 514.276 746.257 519.732C746.986 522.919 745.325 526.174 741.719 528.672C733.574 534.303 697.781 535.681 660.327 536.329C658.477 536.356 656.613 536.383 654.749 536.383H654.736ZM682.235 507.592C658.504 507.592 632.612 508.712 619.969 510.536C609.326 512.075 602.87 514.79 600.749 518.584C599.628 520.61 599.696 523.014 600.979 525.917C603.451 531.576 628.938 535.438 660.3 534.884C683.572 534.479 731.98 533.642 740.895 527.484C744.042 525.309 745.446 522.663 744.852 520.043C743.758 515.262 736.464 511.359 725.321 509.604C716.407 508.199 699.929 507.578 682.249 507.578L682.235 507.592Z" fill="#62A1ED"/>
<path d="M663.096 529.766C651.616 529.766 634.746 528.618 632.814 524.229C631.99 522.338 631.963 520.677 632.733 519.273C634.07 516.869 637.731 515.262 643.93 514.371C655.911 512.642 689.826 512.075 701.172 513.871C707.749 514.911 711.936 517.274 712.639 520.367C713.057 522.23 712.112 524.108 710.045 525.539C705.575 528.632 686.179 529.388 665.892 529.739C665.001 529.752 664.069 529.766 663.083 529.766H663.096ZM677.751 514.209C664.947 514.209 650.981 514.816 644.16 515.802C638.514 516.613 635.11 518.031 634.016 519.975C633.463 520.975 633.503 522.176 634.151 523.648C635.421 526.538 649.36 528.591 665.892 528.294C678.426 528.078 704.521 527.632 709.249 524.364C710.829 523.27 711.545 521.96 711.248 520.691C710.694 518.247 706.844 516.234 700.969 515.303C696.161 514.546 687.287 514.209 677.751 514.209Z" fill="#62A1ED"/>
<path d="M851.298 479.489C851.298 479.489 848.07 533.48 840.533 550.846C832.997 568.2 823.299 573.993 808.225 567.241C793.152 560.489 783.454 528.672 781.307 512.278C779.159 495.883 780.226 477.571 780.226 477.571C780.226 477.571 793.152 465.998 821.151 467.929C849.151 469.86 851.298 479.502 851.298 479.502V479.489Z" fill="#CFEEFF"/>
<path d="M841.614 500.704C841.614 500.704 864.224 497.814 878.23 506.484C892.223 515.168 891.156 530.59 879.311 538.301C867.466 546.012 838.386 543.122 838.386 543.122L839.466 536.37C839.466 536.37 865.305 537.328 872.855 532.507C880.392 527.686 880.391 516.113 869.627 511.292C858.862 506.471 839.48 507.43 839.48 507.43L841.627 500.677L841.614 500.704Z" fill="#CFEEFF"/>
<path d="M814.682 490.765C792.044 490.765 779.848 478.152 779.726 478.017L780.712 477.085C780.834 477.207 792.652 489.415 814.682 489.415C836.711 489.415 850.744 479.043 850.893 478.949L851.703 480.029C851.568 480.137 837.265 490.779 814.682 490.779V490.765Z" fill="#021754"/>
<path d="M144.346 435.262C144.346 435.262 147.574 489.253 155.111 506.619C162.647 523.973 172.345 529.766 187.418 523.014C202.492 516.262 212.19 484.445 214.337 468.051C216.485 451.656 215.418 433.344 215.418 433.344C215.418 433.344 202.492 421.771 174.493 423.702C146.493 425.633 144.346 435.275 144.346 435.275V435.262Z" fill="#CFEEFF"/>
<path d="M154.044 456.464C154.044 456.464 131.433 453.574 117.427 462.244C103.434 470.927 104.501 486.349 116.346 494.06C128.192 501.771 157.272 498.881 157.272 498.881L156.191 492.129C156.191 492.129 130.353 493.088 122.803 488.267C115.266 483.446 115.266 471.872 126.031 467.051C136.795 462.23 156.178 463.189 156.178 463.189L154.03 456.437L154.044 456.464Z" fill="#CFEEFF"/>
<path d="M180.962 446.538C158.379 446.538 144.089 435.897 143.941 435.789L144.751 434.708C144.886 434.816 158.852 445.174 180.962 445.174C203.073 445.174 214.81 432.98 214.932 432.845L215.918 433.776C215.796 433.898 203.613 446.525 180.962 446.525V446.538Z" fill="#021754"/>
</g>
<defs>
<clipPath id="clip0_2_3680">
<rect width="1013" height="624" fill="white"/>
</clipPath>
</defs>
</svg>
